%TF.GenerationSoftware,KiCad,Pcbnew,(5.1.10)-1*%
%TF.CreationDate,2021-09-06T20:05:53-04:00*%
%TF.ProjectId,BeagleBone-Black-Cape,42656167-6c65-4426-9f6e-652d426c6163,rev?*%
%TF.SameCoordinates,Original*%
%TF.FileFunction,Legend,Top*%
%TF.FilePolarity,Positive*%
%FSLAX46Y46*%
G04 Gerber Fmt 4.6, Leading zero omitted, Abs format (unit mm)*
G04 Created by KiCad (PCBNEW (5.1.10)-1) date 2021-09-06 20:05:53*
%MOMM*%
%LPD*%
G01*
G04 APERTURE LIST*
%ADD10C,0.100000*%
%ADD11C,0.120000*%
%ADD12C,0.150000*%
%ADD13C,0.254000*%
G04 APERTURE END LIST*
D10*
%TO.C,CR13*%
X152488900Y-113952200D02*
X152488900Y-113952200D01*
X152488900Y-114052200D02*
X152488900Y-114052200D01*
X152488900Y-114052200D02*
G75*
G02*
X152488900Y-113952200I0J50000D01*
G01*
X152488900Y-113952200D02*
G75*
G02*
X152488900Y-114052200I0J-50000D01*
G01*
D11*
%TO.C,Z63*%
X156941152Y-120296000D02*
X156418648Y-120296000D01*
X156941152Y-121766000D02*
X156418648Y-121766000D01*
%TO.C,Z62*%
X156941152Y-117527000D02*
X156418648Y-117527000D01*
X156941152Y-118947000D02*
X156418648Y-118947000D01*
%TO.C,Z61*%
X156890352Y-114758800D02*
X156367848Y-114758800D01*
X156890352Y-116228800D02*
X156367848Y-116228800D01*
%TO.C,Z60*%
X156367848Y-113816200D02*
X156890352Y-113816200D01*
X156367848Y-112396200D02*
X156890352Y-112396200D01*
%TO.C,R54*%
X157087836Y-85444000D02*
X157541964Y-85444000D01*
X157087836Y-83974000D02*
X157541964Y-83974000D01*
%TO.C,R53*%
X152753836Y-85444000D02*
X153207964Y-85444000D01*
X152753836Y-83974000D02*
X153207964Y-83974000D01*
%TO.C,L62*%
X144683848Y-94842400D02*
X145206352Y-94842400D01*
X144683848Y-93422400D02*
X145206352Y-93422400D01*
%TO.C,L55*%
X145206352Y-102312400D02*
X144683848Y-102312400D01*
X145206352Y-103732400D02*
X144683848Y-103732400D01*
%TO.C,L54*%
X144683848Y-101192400D02*
X145206352Y-101192400D01*
X144683848Y-99772400D02*
X145206352Y-99772400D01*
%TO.C,L53*%
X153181952Y-88139200D02*
X152659448Y-88139200D01*
X153181952Y-89559200D02*
X152659448Y-89559200D01*
%TO.C,L52*%
X145206352Y-88342400D02*
X144683848Y-88342400D01*
X145206352Y-89762400D02*
X144683848Y-89762400D01*
%TO.C,C497*%
X144683848Y-106297400D02*
X145206352Y-106297400D01*
X144683848Y-104827400D02*
X145206352Y-104827400D01*
%TO.C,C496*%
X152665100Y-98838652D02*
X152665100Y-98316148D01*
X151195100Y-98838652D02*
X151195100Y-98316148D01*
%TO.C,C492*%
X129458352Y-104903600D02*
X128935848Y-104903600D01*
X129458352Y-106373600D02*
X128935848Y-106373600D01*
%TO.C,C491*%
X129483752Y-108586600D02*
X128961248Y-108586600D01*
X129483752Y-110056600D02*
X128961248Y-110056600D01*
%TO.C,C483*%
X156444048Y-108304000D02*
X156966552Y-108304000D01*
X156444048Y-106834000D02*
X156966552Y-106834000D01*
%TO.C,C482*%
X156890352Y-109475600D02*
X156367848Y-109475600D01*
X156890352Y-110945600D02*
X156367848Y-110945600D01*
%TO.C,C62*%
X144683848Y-98677400D02*
X145206352Y-98677400D01*
X144683848Y-97207400D02*
X145206352Y-97207400D01*
%TO.C,C61*%
X145206352Y-90857400D02*
X144683848Y-90857400D01*
X145206352Y-92327400D02*
X144683848Y-92327400D01*
%TO.C,C59*%
X144683848Y-113282400D02*
X145206352Y-113282400D01*
X144683848Y-111812400D02*
X145206352Y-111812400D01*
%TO.C,C58*%
X144683848Y-109472400D02*
X145206352Y-109472400D01*
X144683848Y-108002400D02*
X145206352Y-108002400D01*
%TO.C,C53*%
X151195100Y-91966148D02*
X151195100Y-92488652D01*
X152665100Y-91966148D02*
X152665100Y-92488652D01*
%TO.C,C52*%
X158815100Y-91991548D02*
X158815100Y-92514052D01*
X160285100Y-91991548D02*
X160285100Y-92514052D01*
%TO.C,C51*%
X155030500Y-91915348D02*
X155030500Y-92437852D01*
X156500500Y-91915348D02*
X156500500Y-92437852D01*
%TO.C,C36*%
X132319700Y-119057052D02*
X132319700Y-118534548D01*
X130849700Y-119057052D02*
X130849700Y-118534548D01*
%TO.C,AE5*%
X152390300Y-124362400D02*
X151750300Y-124362400D01*
X149590300Y-124362400D02*
X150230300Y-124362400D01*
X151750300Y-124362400D02*
X151750300Y-123732400D01*
X152340300Y-127082400D02*
X149640300Y-127082400D01*
%TO.C,AE4*%
X159705500Y-124286200D02*
X159065500Y-124286200D01*
X156905500Y-124286200D02*
X157545500Y-124286200D01*
X159065500Y-124286200D02*
X159065500Y-123656200D01*
X159655500Y-127006200D02*
X156955500Y-127006200D01*
%TO.C,AE3*%
X145176700Y-124413200D02*
X144536700Y-124413200D01*
X142376700Y-124413200D02*
X143016700Y-124413200D01*
X144536700Y-124413200D02*
X144536700Y-123783200D01*
X145126700Y-127133200D02*
X142426700Y-127133200D01*
%TO.C,AE2*%
X137963100Y-124641800D02*
X137323100Y-124641800D01*
X135163100Y-124641800D02*
X135803100Y-124641800D01*
X137323100Y-124641800D02*
X137323100Y-124011800D01*
X137913100Y-127361800D02*
X135213100Y-127361800D01*
%TO.C,AE1*%
X130698700Y-124819600D02*
X130058700Y-124819600D01*
X127898700Y-124819600D02*
X128538700Y-124819600D01*
X130058700Y-124819600D02*
X130058700Y-124189600D01*
X130648700Y-127539600D02*
X127948700Y-127539600D01*
%TO.C,U1*%
X138109300Y-79614400D02*
X138109300Y-80089400D01*
X145329300Y-72869400D02*
X144854300Y-72869400D01*
X145329300Y-73344400D02*
X145329300Y-72869400D01*
X145329300Y-80089400D02*
X144854300Y-80089400D01*
X145329300Y-79614400D02*
X145329300Y-80089400D01*
X138109300Y-72869400D02*
X138584300Y-72869400D01*
X138109300Y-73344400D02*
X138109300Y-72869400D01*
%TO.C,L340*%
X132170100Y-92601148D02*
X132170100Y-93123652D01*
X133590100Y-92601148D02*
X133590100Y-93123652D01*
%TO.C,L339*%
X135681352Y-99772400D02*
X135158848Y-99772400D01*
X135681352Y-101192400D02*
X135158848Y-101192400D01*
%TO.C,L338*%
X135980100Y-92601148D02*
X135980100Y-93123652D01*
X137400100Y-92601148D02*
X137400100Y-93123652D01*
%TO.C,L337*%
X135681352Y-115012400D02*
X135158848Y-115012400D01*
X135681352Y-116432400D02*
X135158848Y-116432400D01*
%TO.C,L336*%
X135681352Y-107392400D02*
X135158848Y-107392400D01*
X135681352Y-108812400D02*
X135158848Y-108812400D01*
%TO.C,L22*%
X128808848Y-92302400D02*
X129331352Y-92302400D01*
X128808848Y-90882400D02*
X129331352Y-90882400D01*
%TO.C,L21*%
X129331352Y-88342400D02*
X128808848Y-88342400D01*
X129331352Y-89762400D02*
X128808848Y-89762400D01*
%TO.C,L14*%
X129331352Y-101042400D02*
X128808848Y-101042400D01*
X129331352Y-102462400D02*
X128808848Y-102462400D01*
%TO.C,L13*%
X128808848Y-97382400D02*
X129331352Y-97382400D01*
X128808848Y-95962400D02*
X129331352Y-95962400D01*
%TO.C,C490*%
X132345100Y-114713652D02*
X132345100Y-114191148D01*
X130875100Y-114713652D02*
X130875100Y-114191148D01*
%TO.C,C489*%
X139330100Y-107093652D02*
X139330100Y-106571148D01*
X137860100Y-107093652D02*
X137860100Y-106571148D01*
%TO.C,C488*%
X135158848Y-105027400D02*
X135681352Y-105027400D01*
X135158848Y-103557400D02*
X135681352Y-103557400D01*
%TO.C,C487*%
X135681352Y-95937400D02*
X135158848Y-95937400D01*
X135681352Y-97407400D02*
X135158848Y-97407400D01*
%TO.C,C37*%
X135681352Y-118797400D02*
X135158848Y-118797400D01*
X135681352Y-120267400D02*
X135158848Y-120267400D01*
%TO.C,C33*%
X135681352Y-111177400D02*
X135158848Y-111177400D01*
X135681352Y-112647400D02*
X135158848Y-112647400D01*
%TO.C,C21*%
X124251352Y-88317400D02*
X123728848Y-88317400D01*
X124251352Y-89787400D02*
X123728848Y-89787400D01*
%TO.C,C14*%
X124483852Y-101017400D02*
X123961348Y-101017400D01*
X124483852Y-102487400D02*
X123961348Y-102487400D01*
%TO.C,C13*%
X129331352Y-98477400D02*
X128808848Y-98477400D01*
X129331352Y-99947400D02*
X128808848Y-99947400D01*
%TO.C,C12*%
X128808848Y-94867400D02*
X129331352Y-94867400D01*
X128808848Y-93397400D02*
X129331352Y-93397400D01*
D12*
%TO.C,P8*%
X168440100Y-119532400D02*
X168440100Y-61112400D01*
X163360100Y-119532400D02*
X163360100Y-63652400D01*
X168440100Y-119532400D02*
X163360100Y-119532400D01*
X168440100Y-61112400D02*
X165900100Y-61112400D01*
X164630100Y-60832400D02*
X163080100Y-60832400D01*
X165900100Y-61112400D02*
X165900100Y-63652400D01*
X165900100Y-63652400D02*
X163360100Y-63652400D01*
X163080100Y-60832400D02*
X163080100Y-62382400D01*
%TO.C,P9*%
X120180100Y-119532400D02*
X120180100Y-61112400D01*
X115100100Y-119532400D02*
X115100100Y-63652400D01*
X120180100Y-119532400D02*
X115100100Y-119532400D01*
X120180100Y-61112400D02*
X117640100Y-61112400D01*
X116370100Y-60832400D02*
X114820100Y-60832400D01*
X117640100Y-61112400D02*
X117640100Y-63652400D01*
X117640100Y-63652400D02*
X115100100Y-63652400D01*
X114820100Y-60832400D02*
X114820100Y-62382400D01*
%TO.C,CR13*%
D13*
X152942471Y-114303628D02*
X153002947Y-114364104D01*
X153063423Y-114545533D01*
X153063423Y-114666485D01*
X153002947Y-114847914D01*
X152881995Y-114968866D01*
X152761042Y-115029342D01*
X152519138Y-115089819D01*
X152337709Y-115089819D01*
X152095804Y-115029342D01*
X151974852Y-114968866D01*
X151853900Y-114847914D01*
X151793423Y-114666485D01*
X151793423Y-114545533D01*
X151853900Y-114364104D01*
X151914376Y-114303628D01*
X153063423Y-113033628D02*
X152458661Y-113456961D01*
X153063423Y-113759342D02*
X151793423Y-113759342D01*
X151793423Y-113275533D01*
X151853900Y-113154580D01*
X151914376Y-113094104D01*
X152035328Y-113033628D01*
X152216757Y-113033628D01*
X152337709Y-113094104D01*
X152398185Y-113154580D01*
X152458661Y-113275533D01*
X152458661Y-113759342D01*
X153063423Y-111824104D02*
X153063423Y-112549819D01*
X153063423Y-112186961D02*
X151793423Y-112186961D01*
X151974852Y-112307914D01*
X152095804Y-112428866D01*
X152156280Y-112549819D01*
X151793423Y-111400771D02*
X151793423Y-110614580D01*
X152277233Y-111037914D01*
X152277233Y-110856485D01*
X152337709Y-110735533D01*
X152398185Y-110675057D01*
X152519138Y-110614580D01*
X152821519Y-110614580D01*
X152942471Y-110675057D01*
X153002947Y-110735533D01*
X153063423Y-110856485D01*
X153063423Y-111219342D01*
X153002947Y-111340295D01*
X152942471Y-111400771D01*
%TO.C,U2*%
D12*
X140206480Y-120167304D02*
X141016004Y-120167304D01*
X141111242Y-120119685D01*
X141158861Y-120072066D01*
X141206480Y-119976828D01*
X141206480Y-119786352D01*
X141158861Y-119691114D01*
X141111242Y-119643495D01*
X141016004Y-119595876D01*
X140206480Y-119595876D01*
X140301719Y-119167304D02*
X140254100Y-119119685D01*
X140206480Y-119024447D01*
X140206480Y-118786352D01*
X140254100Y-118691114D01*
X140301719Y-118643495D01*
X140396957Y-118595876D01*
X140492195Y-118595876D01*
X140635052Y-118643495D01*
X141206480Y-119214923D01*
X141206480Y-118595876D01*
X138974461Y-123316190D02*
X139022080Y-123173333D01*
X139022080Y-122935238D01*
X138974461Y-122840000D01*
X138926842Y-122792380D01*
X138831604Y-122744761D01*
X138736366Y-122744761D01*
X138641128Y-122792380D01*
X138593509Y-122840000D01*
X138545890Y-122935238D01*
X138498271Y-123125714D01*
X138450652Y-123220952D01*
X138403033Y-123268571D01*
X138307795Y-123316190D01*
X138212557Y-123316190D01*
X138117319Y-123268571D01*
X138069700Y-123220952D01*
X138022080Y-123125714D01*
X138022080Y-122887619D01*
X138069700Y-122744761D01*
X139022080Y-122316190D02*
X138022080Y-122316190D01*
X139022080Y-121744761D02*
X138450652Y-122173333D01*
X138022080Y-121744761D02*
X138593509Y-122316190D01*
X138545890Y-121125714D02*
X139022080Y-121125714D01*
X138022080Y-121459047D02*
X138545890Y-121125714D01*
X138022080Y-120792380D01*
X139022080Y-119935238D02*
X139022080Y-120506666D01*
X139022080Y-120220952D02*
X138022080Y-120220952D01*
X138164938Y-120316190D01*
X138260176Y-120411428D01*
X138307795Y-120506666D01*
X138022080Y-119601904D02*
X138022080Y-118982857D01*
X138403033Y-119316190D01*
X138403033Y-119173333D01*
X138450652Y-119078095D01*
X138498271Y-119030476D01*
X138593509Y-118982857D01*
X138831604Y-118982857D01*
X138926842Y-119030476D01*
X138974461Y-119078095D01*
X139022080Y-119173333D01*
X139022080Y-119459047D01*
X138974461Y-119554285D01*
X138926842Y-119601904D01*
X138022080Y-118649523D02*
X138022080Y-118030476D01*
X138403033Y-118363809D01*
X138403033Y-118220952D01*
X138450652Y-118125714D01*
X138498271Y-118078095D01*
X138593509Y-118030476D01*
X138831604Y-118030476D01*
X138926842Y-118078095D01*
X138974461Y-118125714D01*
X139022080Y-118220952D01*
X139022080Y-118506666D01*
X138974461Y-118601904D01*
X138926842Y-118649523D01*
X139022080Y-117078095D02*
X139022080Y-117649523D01*
X139022080Y-117363809D02*
X138022080Y-117363809D01*
X138164938Y-117459047D01*
X138260176Y-117554285D01*
X138307795Y-117649523D01*
X138022080Y-116744761D02*
X138022080Y-116078095D01*
X139022080Y-116506666D01*
X138641128Y-115697142D02*
X138641128Y-114935238D01*
X138022080Y-114554285D02*
X138022080Y-113935238D01*
X138403033Y-114268571D01*
X138403033Y-114125714D01*
X138450652Y-114030476D01*
X138498271Y-113982857D01*
X138593509Y-113935238D01*
X138831604Y-113935238D01*
X138926842Y-113982857D01*
X138974461Y-114030476D01*
X139022080Y-114125714D01*
X139022080Y-114411428D01*
X138974461Y-114506666D01*
X138926842Y-114554285D01*
X138022080Y-113601904D02*
X138022080Y-112935238D01*
X139022080Y-113363809D01*
X138022080Y-112649523D02*
X138022080Y-112030476D01*
X138403033Y-112363809D01*
X138403033Y-112220952D01*
X138450652Y-112125714D01*
X138498271Y-112078095D01*
X138593509Y-112030476D01*
X138831604Y-112030476D01*
X138926842Y-112078095D01*
X138974461Y-112125714D01*
X139022080Y-112220952D01*
X139022080Y-112506666D01*
X138974461Y-112601904D01*
X138926842Y-112649523D01*
X139022080Y-111125714D02*
X139022080Y-111601904D01*
X138022080Y-111601904D01*
X138498271Y-110459047D02*
X138498271Y-110792380D01*
X139022080Y-110792380D02*
X138022080Y-110792380D01*
X138022080Y-110316190D01*
X140206480Y-116865400D02*
X140444576Y-116865400D01*
X140349338Y-117103495D02*
X140444576Y-116865400D01*
X140349338Y-116627304D01*
X140635052Y-117008257D02*
X140444576Y-116865400D01*
X140635052Y-116722542D01*
%TO.C,Z63*%
X159102585Y-120534180D02*
X159769252Y-120534180D01*
X159102585Y-121534180D01*
X159769252Y-121534180D01*
X160578776Y-120534180D02*
X160388300Y-120534180D01*
X160293061Y-120581800D01*
X160245442Y-120629419D01*
X160150204Y-120772276D01*
X160102585Y-120962752D01*
X160102585Y-121343704D01*
X160150204Y-121438942D01*
X160197823Y-121486561D01*
X160293061Y-121534180D01*
X160483538Y-121534180D01*
X160578776Y-121486561D01*
X160626395Y-121438942D01*
X160674014Y-121343704D01*
X160674014Y-121105609D01*
X160626395Y-121010371D01*
X160578776Y-120962752D01*
X160483538Y-120915133D01*
X160293061Y-120915133D01*
X160197823Y-120962752D01*
X160150204Y-121010371D01*
X160102585Y-121105609D01*
X161007347Y-120534180D02*
X161626395Y-120534180D01*
X161293061Y-120915133D01*
X161435919Y-120915133D01*
X161531157Y-120962752D01*
X161578776Y-121010371D01*
X161626395Y-121105609D01*
X161626395Y-121343704D01*
X161578776Y-121438942D01*
X161531157Y-121486561D01*
X161435919Y-121534180D01*
X161150204Y-121534180D01*
X161054966Y-121486561D01*
X161007347Y-121438942D01*
%TO.C,Z62*%
X158873985Y-117689380D02*
X159540652Y-117689380D01*
X158873985Y-118689380D01*
X159540652Y-118689380D01*
X160350176Y-117689380D02*
X160159700Y-117689380D01*
X160064461Y-117737000D01*
X160016842Y-117784619D01*
X159921604Y-117927476D01*
X159873985Y-118117952D01*
X159873985Y-118498904D01*
X159921604Y-118594142D01*
X159969223Y-118641761D01*
X160064461Y-118689380D01*
X160254938Y-118689380D01*
X160350176Y-118641761D01*
X160397795Y-118594142D01*
X160445414Y-118498904D01*
X160445414Y-118260809D01*
X160397795Y-118165571D01*
X160350176Y-118117952D01*
X160254938Y-118070333D01*
X160064461Y-118070333D01*
X159969223Y-118117952D01*
X159921604Y-118165571D01*
X159873985Y-118260809D01*
X160826366Y-117784619D02*
X160873985Y-117737000D01*
X160969223Y-117689380D01*
X161207319Y-117689380D01*
X161302557Y-117737000D01*
X161350176Y-117784619D01*
X161397795Y-117879857D01*
X161397795Y-117975095D01*
X161350176Y-118117952D01*
X160778747Y-118689380D01*
X161397795Y-118689380D01*
%TO.C,Z61*%
X158873985Y-115123980D02*
X159540652Y-115123980D01*
X158873985Y-116123980D01*
X159540652Y-116123980D01*
X160350176Y-115123980D02*
X160159700Y-115123980D01*
X160064461Y-115171600D01*
X160016842Y-115219219D01*
X159921604Y-115362076D01*
X159873985Y-115552552D01*
X159873985Y-115933504D01*
X159921604Y-116028742D01*
X159969223Y-116076361D01*
X160064461Y-116123980D01*
X160254938Y-116123980D01*
X160350176Y-116076361D01*
X160397795Y-116028742D01*
X160445414Y-115933504D01*
X160445414Y-115695409D01*
X160397795Y-115600171D01*
X160350176Y-115552552D01*
X160254938Y-115504933D01*
X160064461Y-115504933D01*
X159969223Y-115552552D01*
X159921604Y-115600171D01*
X159873985Y-115695409D01*
X161397795Y-116123980D02*
X160826366Y-116123980D01*
X161112080Y-116123980D02*
X161112080Y-115123980D01*
X161016842Y-115266838D01*
X160921604Y-115362076D01*
X160826366Y-115409695D01*
%TO.C,Z60*%
X158873985Y-112456980D02*
X159540652Y-112456980D01*
X158873985Y-113456980D01*
X159540652Y-113456980D01*
X160350176Y-112456980D02*
X160159700Y-112456980D01*
X160064461Y-112504600D01*
X160016842Y-112552219D01*
X159921604Y-112695076D01*
X159873985Y-112885552D01*
X159873985Y-113266504D01*
X159921604Y-113361742D01*
X159969223Y-113409361D01*
X160064461Y-113456980D01*
X160254938Y-113456980D01*
X160350176Y-113409361D01*
X160397795Y-113361742D01*
X160445414Y-113266504D01*
X160445414Y-113028409D01*
X160397795Y-112933171D01*
X160350176Y-112885552D01*
X160254938Y-112837933D01*
X160064461Y-112837933D01*
X159969223Y-112885552D01*
X159921604Y-112933171D01*
X159873985Y-113028409D01*
X161064461Y-112456980D02*
X161159700Y-112456980D01*
X161254938Y-112504600D01*
X161302557Y-112552219D01*
X161350176Y-112647457D01*
X161397795Y-112837933D01*
X161397795Y-113076028D01*
X161350176Y-113266504D01*
X161302557Y-113361742D01*
X161254938Y-113409361D01*
X161159700Y-113456980D01*
X161064461Y-113456980D01*
X160969223Y-113409361D01*
X160921604Y-113361742D01*
X160873985Y-113266504D01*
X160826366Y-113076028D01*
X160826366Y-112837933D01*
X160873985Y-112647457D01*
X160921604Y-112552219D01*
X160969223Y-112504600D01*
X161064461Y-112456980D01*
%TO.C,R54*%
X156672042Y-83511380D02*
X156338709Y-83035190D01*
X156100614Y-83511380D02*
X156100614Y-82511380D01*
X156481566Y-82511380D01*
X156576804Y-82559000D01*
X156624423Y-82606619D01*
X156672042Y-82701857D01*
X156672042Y-82844714D01*
X156624423Y-82939952D01*
X156576804Y-82987571D01*
X156481566Y-83035190D01*
X156100614Y-83035190D01*
X157576804Y-82511380D02*
X157100614Y-82511380D01*
X157052995Y-82987571D01*
X157100614Y-82939952D01*
X157195852Y-82892333D01*
X157433947Y-82892333D01*
X157529185Y-82939952D01*
X157576804Y-82987571D01*
X157624423Y-83082809D01*
X157624423Y-83320904D01*
X157576804Y-83416142D01*
X157529185Y-83463761D01*
X157433947Y-83511380D01*
X157195852Y-83511380D01*
X157100614Y-83463761D01*
X157052995Y-83416142D01*
X158481566Y-82844714D02*
X158481566Y-83511380D01*
X158243471Y-82463761D02*
X158005376Y-83178047D01*
X158624423Y-83178047D01*
%TO.C,R53*%
X152338042Y-83511380D02*
X152004709Y-83035190D01*
X151766614Y-83511380D02*
X151766614Y-82511380D01*
X152147566Y-82511380D01*
X152242804Y-82559000D01*
X152290423Y-82606619D01*
X152338042Y-82701857D01*
X152338042Y-82844714D01*
X152290423Y-82939952D01*
X152242804Y-82987571D01*
X152147566Y-83035190D01*
X151766614Y-83035190D01*
X153242804Y-82511380D02*
X152766614Y-82511380D01*
X152718995Y-82987571D01*
X152766614Y-82939952D01*
X152861852Y-82892333D01*
X153099947Y-82892333D01*
X153195185Y-82939952D01*
X153242804Y-82987571D01*
X153290423Y-83082809D01*
X153290423Y-83320904D01*
X153242804Y-83416142D01*
X153195185Y-83463761D01*
X153099947Y-83511380D01*
X152861852Y-83511380D01*
X152766614Y-83463761D01*
X152718995Y-83416142D01*
X153623757Y-82511380D02*
X154242804Y-82511380D01*
X153909471Y-82892333D01*
X154052328Y-82892333D01*
X154147566Y-82939952D01*
X154195185Y-82987571D01*
X154242804Y-83082809D01*
X154242804Y-83320904D01*
X154195185Y-83416142D01*
X154147566Y-83463761D01*
X154052328Y-83511380D01*
X153766614Y-83511380D01*
X153671376Y-83463761D01*
X153623757Y-83416142D01*
%TO.C,L62*%
X148112242Y-94584780D02*
X147636052Y-94584780D01*
X147636052Y-93584780D01*
X148874147Y-93584780D02*
X148683671Y-93584780D01*
X148588433Y-93632400D01*
X148540814Y-93680019D01*
X148445576Y-93822876D01*
X148397957Y-94013352D01*
X148397957Y-94394304D01*
X148445576Y-94489542D01*
X148493195Y-94537161D01*
X148588433Y-94584780D01*
X148778909Y-94584780D01*
X148874147Y-94537161D01*
X148921766Y-94489542D01*
X148969385Y-94394304D01*
X148969385Y-94156209D01*
X148921766Y-94060971D01*
X148874147Y-94013352D01*
X148778909Y-93965733D01*
X148588433Y-93965733D01*
X148493195Y-94013352D01*
X148445576Y-94060971D01*
X148397957Y-94156209D01*
X149350338Y-93680019D02*
X149397957Y-93632400D01*
X149493195Y-93584780D01*
X149731290Y-93584780D01*
X149826528Y-93632400D01*
X149874147Y-93680019D01*
X149921766Y-93775257D01*
X149921766Y-93870495D01*
X149874147Y-94013352D01*
X149302719Y-94584780D01*
X149921766Y-94584780D01*
%TO.C,L55*%
X148112242Y-103474780D02*
X147636052Y-103474780D01*
X147636052Y-102474780D01*
X148921766Y-102474780D02*
X148445576Y-102474780D01*
X148397957Y-102950971D01*
X148445576Y-102903352D01*
X148540814Y-102855733D01*
X148778909Y-102855733D01*
X148874147Y-102903352D01*
X148921766Y-102950971D01*
X148969385Y-103046209D01*
X148969385Y-103284304D01*
X148921766Y-103379542D01*
X148874147Y-103427161D01*
X148778909Y-103474780D01*
X148540814Y-103474780D01*
X148445576Y-103427161D01*
X148397957Y-103379542D01*
X149874147Y-102474780D02*
X149397957Y-102474780D01*
X149350338Y-102950971D01*
X149397957Y-102903352D01*
X149493195Y-102855733D01*
X149731290Y-102855733D01*
X149826528Y-102903352D01*
X149874147Y-102950971D01*
X149921766Y-103046209D01*
X149921766Y-103284304D01*
X149874147Y-103379542D01*
X149826528Y-103427161D01*
X149731290Y-103474780D01*
X149493195Y-103474780D01*
X149397957Y-103427161D01*
X149350338Y-103379542D01*
%TO.C,L54*%
X148112242Y-100934780D02*
X147636052Y-100934780D01*
X147636052Y-99934780D01*
X148921766Y-99934780D02*
X148445576Y-99934780D01*
X148397957Y-100410971D01*
X148445576Y-100363352D01*
X148540814Y-100315733D01*
X148778909Y-100315733D01*
X148874147Y-100363352D01*
X148921766Y-100410971D01*
X148969385Y-100506209D01*
X148969385Y-100744304D01*
X148921766Y-100839542D01*
X148874147Y-100887161D01*
X148778909Y-100934780D01*
X148540814Y-100934780D01*
X148445576Y-100887161D01*
X148397957Y-100839542D01*
X149826528Y-100268114D02*
X149826528Y-100934780D01*
X149588433Y-99887161D02*
X149350338Y-100601447D01*
X149969385Y-100601447D01*
%TO.C,L53*%
X152328642Y-87498180D02*
X151852452Y-87498180D01*
X151852452Y-86498180D01*
X153138166Y-86498180D02*
X152661976Y-86498180D01*
X152614357Y-86974371D01*
X152661976Y-86926752D01*
X152757214Y-86879133D01*
X152995309Y-86879133D01*
X153090547Y-86926752D01*
X153138166Y-86974371D01*
X153185785Y-87069609D01*
X153185785Y-87307704D01*
X153138166Y-87402942D01*
X153090547Y-87450561D01*
X152995309Y-87498180D01*
X152757214Y-87498180D01*
X152661976Y-87450561D01*
X152614357Y-87402942D01*
X153519119Y-86498180D02*
X154138166Y-86498180D01*
X153804833Y-86879133D01*
X153947690Y-86879133D01*
X154042928Y-86926752D01*
X154090547Y-86974371D01*
X154138166Y-87069609D01*
X154138166Y-87307704D01*
X154090547Y-87402942D01*
X154042928Y-87450561D01*
X153947690Y-87498180D01*
X153661976Y-87498180D01*
X153566738Y-87450561D01*
X153519119Y-87402942D01*
%TO.C,L52*%
X148112242Y-89504780D02*
X147636052Y-89504780D01*
X147636052Y-88504780D01*
X148921766Y-88504780D02*
X148445576Y-88504780D01*
X148397957Y-88980971D01*
X148445576Y-88933352D01*
X148540814Y-88885733D01*
X148778909Y-88885733D01*
X148874147Y-88933352D01*
X148921766Y-88980971D01*
X148969385Y-89076209D01*
X148969385Y-89314304D01*
X148921766Y-89409542D01*
X148874147Y-89457161D01*
X148778909Y-89504780D01*
X148540814Y-89504780D01*
X148445576Y-89457161D01*
X148397957Y-89409542D01*
X149350338Y-88600019D02*
X149397957Y-88552400D01*
X149493195Y-88504780D01*
X149731290Y-88504780D01*
X149826528Y-88552400D01*
X149874147Y-88600019D01*
X149921766Y-88695257D01*
X149921766Y-88790495D01*
X149874147Y-88933352D01*
X149302719Y-89504780D01*
X149921766Y-89504780D01*
%TO.C,C497*%
X148271052Y-105919542D02*
X148223433Y-105967161D01*
X148080576Y-106014780D01*
X147985338Y-106014780D01*
X147842480Y-105967161D01*
X147747242Y-105871923D01*
X147699623Y-105776685D01*
X147652004Y-105586209D01*
X147652004Y-105443352D01*
X147699623Y-105252876D01*
X147747242Y-105157638D01*
X147842480Y-105062400D01*
X147985338Y-105014780D01*
X148080576Y-105014780D01*
X148223433Y-105062400D01*
X148271052Y-105110019D01*
X149128195Y-105348114D02*
X149128195Y-106014780D01*
X148890100Y-104967161D02*
X148652004Y-105681447D01*
X149271052Y-105681447D01*
X149699623Y-106014780D02*
X149890100Y-106014780D01*
X149985338Y-105967161D01*
X150032957Y-105919542D01*
X150128195Y-105776685D01*
X150175814Y-105586209D01*
X150175814Y-105205257D01*
X150128195Y-105110019D01*
X150080576Y-105062400D01*
X149985338Y-105014780D01*
X149794861Y-105014780D01*
X149699623Y-105062400D01*
X149652004Y-105110019D01*
X149604385Y-105205257D01*
X149604385Y-105443352D01*
X149652004Y-105538590D01*
X149699623Y-105586209D01*
X149794861Y-105633828D01*
X149985338Y-105633828D01*
X150080576Y-105586209D01*
X150128195Y-105538590D01*
X150175814Y-105443352D01*
X150509147Y-105014780D02*
X151175814Y-105014780D01*
X150747242Y-106014780D01*
%TO.C,C496*%
X154192242Y-99696447D02*
X154239861Y-99744066D01*
X154287480Y-99886923D01*
X154287480Y-99982161D01*
X154239861Y-100125019D01*
X154144623Y-100220257D01*
X154049385Y-100267876D01*
X153858909Y-100315495D01*
X153716052Y-100315495D01*
X153525576Y-100267876D01*
X153430338Y-100220257D01*
X153335100Y-100125019D01*
X153287480Y-99982161D01*
X153287480Y-99886923D01*
X153335100Y-99744066D01*
X153382719Y-99696447D01*
X153620814Y-98839304D02*
X154287480Y-98839304D01*
X153239861Y-99077400D02*
X153954147Y-99315495D01*
X153954147Y-98696447D01*
X154287480Y-98267876D02*
X154287480Y-98077400D01*
X154239861Y-97982161D01*
X154192242Y-97934542D01*
X154049385Y-97839304D01*
X153858909Y-97791685D01*
X153477957Y-97791685D01*
X153382719Y-97839304D01*
X153335100Y-97886923D01*
X153287480Y-97982161D01*
X153287480Y-98172638D01*
X153335100Y-98267876D01*
X153382719Y-98315495D01*
X153477957Y-98363114D01*
X153716052Y-98363114D01*
X153811290Y-98315495D01*
X153858909Y-98267876D01*
X153906528Y-98172638D01*
X153906528Y-97982161D01*
X153858909Y-97886923D01*
X153811290Y-97839304D01*
X153716052Y-97791685D01*
X153287480Y-96934542D02*
X153287480Y-97125019D01*
X153335100Y-97220257D01*
X153382719Y-97267876D01*
X153525576Y-97363114D01*
X153716052Y-97410733D01*
X154097004Y-97410733D01*
X154192242Y-97363114D01*
X154239861Y-97315495D01*
X154287480Y-97220257D01*
X154287480Y-97029780D01*
X154239861Y-96934542D01*
X154192242Y-96886923D01*
X154097004Y-96839304D01*
X153858909Y-96839304D01*
X153763671Y-96886923D01*
X153716052Y-96934542D01*
X153668433Y-97029780D01*
X153668433Y-97220257D01*
X153716052Y-97315495D01*
X153763671Y-97363114D01*
X153858909Y-97410733D01*
%TO.C,C492*%
X128078052Y-107675742D02*
X128030433Y-107723361D01*
X127887576Y-107770980D01*
X127792338Y-107770980D01*
X127649480Y-107723361D01*
X127554242Y-107628123D01*
X127506623Y-107532885D01*
X127459004Y-107342409D01*
X127459004Y-107199552D01*
X127506623Y-107009076D01*
X127554242Y-106913838D01*
X127649480Y-106818600D01*
X127792338Y-106770980D01*
X127887576Y-106770980D01*
X128030433Y-106818600D01*
X128078052Y-106866219D01*
X128935195Y-107104314D02*
X128935195Y-107770980D01*
X128697100Y-106723361D02*
X128459004Y-107437647D01*
X129078052Y-107437647D01*
X129506623Y-107770980D02*
X129697100Y-107770980D01*
X129792338Y-107723361D01*
X129839957Y-107675742D01*
X129935195Y-107532885D01*
X129982814Y-107342409D01*
X129982814Y-106961457D01*
X129935195Y-106866219D01*
X129887576Y-106818600D01*
X129792338Y-106770980D01*
X129601861Y-106770980D01*
X129506623Y-106818600D01*
X129459004Y-106866219D01*
X129411385Y-106961457D01*
X129411385Y-107199552D01*
X129459004Y-107294790D01*
X129506623Y-107342409D01*
X129601861Y-107390028D01*
X129792338Y-107390028D01*
X129887576Y-107342409D01*
X129935195Y-107294790D01*
X129982814Y-107199552D01*
X130363766Y-106866219D02*
X130411385Y-106818600D01*
X130506623Y-106770980D01*
X130744719Y-106770980D01*
X130839957Y-106818600D01*
X130887576Y-106866219D01*
X130935195Y-106961457D01*
X130935195Y-107056695D01*
X130887576Y-107199552D01*
X130316147Y-107770980D01*
X130935195Y-107770980D01*
%TO.C,C491*%
X128103452Y-111358742D02*
X128055833Y-111406361D01*
X127912976Y-111453980D01*
X127817738Y-111453980D01*
X127674880Y-111406361D01*
X127579642Y-111311123D01*
X127532023Y-111215885D01*
X127484404Y-111025409D01*
X127484404Y-110882552D01*
X127532023Y-110692076D01*
X127579642Y-110596838D01*
X127674880Y-110501600D01*
X127817738Y-110453980D01*
X127912976Y-110453980D01*
X128055833Y-110501600D01*
X128103452Y-110549219D01*
X128960595Y-110787314D02*
X128960595Y-111453980D01*
X128722500Y-110406361D02*
X128484404Y-111120647D01*
X129103452Y-111120647D01*
X129532023Y-111453980D02*
X129722500Y-111453980D01*
X129817738Y-111406361D01*
X129865357Y-111358742D01*
X129960595Y-111215885D01*
X130008214Y-111025409D01*
X130008214Y-110644457D01*
X129960595Y-110549219D01*
X129912976Y-110501600D01*
X129817738Y-110453980D01*
X129627261Y-110453980D01*
X129532023Y-110501600D01*
X129484404Y-110549219D01*
X129436785Y-110644457D01*
X129436785Y-110882552D01*
X129484404Y-110977790D01*
X129532023Y-111025409D01*
X129627261Y-111073028D01*
X129817738Y-111073028D01*
X129912976Y-111025409D01*
X129960595Y-110977790D01*
X130008214Y-110882552D01*
X130960595Y-111453980D02*
X130389166Y-111453980D01*
X130674880Y-111453980D02*
X130674880Y-110453980D01*
X130579642Y-110596838D01*
X130484404Y-110692076D01*
X130389166Y-110739695D01*
%TO.C,C483*%
X159548652Y-107976942D02*
X159501033Y-108024561D01*
X159358176Y-108072180D01*
X159262938Y-108072180D01*
X159120080Y-108024561D01*
X159024842Y-107929323D01*
X158977223Y-107834085D01*
X158929604Y-107643609D01*
X158929604Y-107500752D01*
X158977223Y-107310276D01*
X159024842Y-107215038D01*
X159120080Y-107119800D01*
X159262938Y-107072180D01*
X159358176Y-107072180D01*
X159501033Y-107119800D01*
X159548652Y-107167419D01*
X160405795Y-107405514D02*
X160405795Y-108072180D01*
X160167700Y-107024561D02*
X159929604Y-107738847D01*
X160548652Y-107738847D01*
X161072461Y-107500752D02*
X160977223Y-107453133D01*
X160929604Y-107405514D01*
X160881985Y-107310276D01*
X160881985Y-107262657D01*
X160929604Y-107167419D01*
X160977223Y-107119800D01*
X161072461Y-107072180D01*
X161262938Y-107072180D01*
X161358176Y-107119800D01*
X161405795Y-107167419D01*
X161453414Y-107262657D01*
X161453414Y-107310276D01*
X161405795Y-107405514D01*
X161358176Y-107453133D01*
X161262938Y-107500752D01*
X161072461Y-107500752D01*
X160977223Y-107548371D01*
X160929604Y-107595990D01*
X160881985Y-107691228D01*
X160881985Y-107881704D01*
X160929604Y-107976942D01*
X160977223Y-108024561D01*
X161072461Y-108072180D01*
X161262938Y-108072180D01*
X161358176Y-108024561D01*
X161405795Y-107976942D01*
X161453414Y-107881704D01*
X161453414Y-107691228D01*
X161405795Y-107595990D01*
X161358176Y-107548371D01*
X161262938Y-107500752D01*
X161786747Y-107072180D02*
X162405795Y-107072180D01*
X162072461Y-107453133D01*
X162215319Y-107453133D01*
X162310557Y-107500752D01*
X162358176Y-107548371D01*
X162405795Y-107643609D01*
X162405795Y-107881704D01*
X162358176Y-107976942D01*
X162310557Y-108024561D01*
X162215319Y-108072180D01*
X161929604Y-108072180D01*
X161834366Y-108024561D01*
X161786747Y-107976942D01*
%TO.C,C482*%
X159599452Y-110516942D02*
X159551833Y-110564561D01*
X159408976Y-110612180D01*
X159313738Y-110612180D01*
X159170880Y-110564561D01*
X159075642Y-110469323D01*
X159028023Y-110374085D01*
X158980404Y-110183609D01*
X158980404Y-110040752D01*
X159028023Y-109850276D01*
X159075642Y-109755038D01*
X159170880Y-109659800D01*
X159313738Y-109612180D01*
X159408976Y-109612180D01*
X159551833Y-109659800D01*
X159599452Y-109707419D01*
X160456595Y-109945514D02*
X160456595Y-110612180D01*
X160218500Y-109564561D02*
X159980404Y-110278847D01*
X160599452Y-110278847D01*
X161123261Y-110040752D02*
X161028023Y-109993133D01*
X160980404Y-109945514D01*
X160932785Y-109850276D01*
X160932785Y-109802657D01*
X160980404Y-109707419D01*
X161028023Y-109659800D01*
X161123261Y-109612180D01*
X161313738Y-109612180D01*
X161408976Y-109659800D01*
X161456595Y-109707419D01*
X161504214Y-109802657D01*
X161504214Y-109850276D01*
X161456595Y-109945514D01*
X161408976Y-109993133D01*
X161313738Y-110040752D01*
X161123261Y-110040752D01*
X161028023Y-110088371D01*
X160980404Y-110135990D01*
X160932785Y-110231228D01*
X160932785Y-110421704D01*
X160980404Y-110516942D01*
X161028023Y-110564561D01*
X161123261Y-110612180D01*
X161313738Y-110612180D01*
X161408976Y-110564561D01*
X161456595Y-110516942D01*
X161504214Y-110421704D01*
X161504214Y-110231228D01*
X161456595Y-110135990D01*
X161408976Y-110088371D01*
X161313738Y-110040752D01*
X161885166Y-109707419D02*
X161932785Y-109659800D01*
X162028023Y-109612180D01*
X162266119Y-109612180D01*
X162361357Y-109659800D01*
X162408976Y-109707419D01*
X162456595Y-109802657D01*
X162456595Y-109897895D01*
X162408976Y-110040752D01*
X161837547Y-110612180D01*
X162456595Y-110612180D01*
%TO.C,C62*%
X148112242Y-98299542D02*
X148064623Y-98347161D01*
X147921766Y-98394780D01*
X147826528Y-98394780D01*
X147683671Y-98347161D01*
X147588433Y-98251923D01*
X147540814Y-98156685D01*
X147493195Y-97966209D01*
X147493195Y-97823352D01*
X147540814Y-97632876D01*
X147588433Y-97537638D01*
X147683671Y-97442400D01*
X147826528Y-97394780D01*
X147921766Y-97394780D01*
X148064623Y-97442400D01*
X148112242Y-97490019D01*
X148969385Y-97394780D02*
X148778909Y-97394780D01*
X148683671Y-97442400D01*
X148636052Y-97490019D01*
X148540814Y-97632876D01*
X148493195Y-97823352D01*
X148493195Y-98204304D01*
X148540814Y-98299542D01*
X148588433Y-98347161D01*
X148683671Y-98394780D01*
X148874147Y-98394780D01*
X148969385Y-98347161D01*
X149017004Y-98299542D01*
X149064623Y-98204304D01*
X149064623Y-97966209D01*
X149017004Y-97870971D01*
X148969385Y-97823352D01*
X148874147Y-97775733D01*
X148683671Y-97775733D01*
X148588433Y-97823352D01*
X148540814Y-97870971D01*
X148493195Y-97966209D01*
X149445576Y-97490019D02*
X149493195Y-97442400D01*
X149588433Y-97394780D01*
X149826528Y-97394780D01*
X149921766Y-97442400D01*
X149969385Y-97490019D01*
X150017004Y-97585257D01*
X150017004Y-97680495D01*
X149969385Y-97823352D01*
X149397957Y-98394780D01*
X150017004Y-98394780D01*
%TO.C,C61*%
X148112242Y-91949542D02*
X148064623Y-91997161D01*
X147921766Y-92044780D01*
X147826528Y-92044780D01*
X147683671Y-91997161D01*
X147588433Y-91901923D01*
X147540814Y-91806685D01*
X147493195Y-91616209D01*
X147493195Y-91473352D01*
X147540814Y-91282876D01*
X147588433Y-91187638D01*
X147683671Y-91092400D01*
X147826528Y-91044780D01*
X147921766Y-91044780D01*
X148064623Y-91092400D01*
X148112242Y-91140019D01*
X148969385Y-91044780D02*
X148778909Y-91044780D01*
X148683671Y-91092400D01*
X148636052Y-91140019D01*
X148540814Y-91282876D01*
X148493195Y-91473352D01*
X148493195Y-91854304D01*
X148540814Y-91949542D01*
X148588433Y-91997161D01*
X148683671Y-92044780D01*
X148874147Y-92044780D01*
X148969385Y-91997161D01*
X149017004Y-91949542D01*
X149064623Y-91854304D01*
X149064623Y-91616209D01*
X149017004Y-91520971D01*
X148969385Y-91473352D01*
X148874147Y-91425733D01*
X148683671Y-91425733D01*
X148588433Y-91473352D01*
X148540814Y-91520971D01*
X148493195Y-91616209D01*
X150017004Y-92044780D02*
X149445576Y-92044780D01*
X149731290Y-92044780D02*
X149731290Y-91044780D01*
X149636052Y-91187638D01*
X149540814Y-91282876D01*
X149445576Y-91330495D01*
%TO.C,C59*%
X144302242Y-111224542D02*
X144254623Y-111272161D01*
X144111766Y-111319780D01*
X144016528Y-111319780D01*
X143873671Y-111272161D01*
X143778433Y-111176923D01*
X143730814Y-111081685D01*
X143683195Y-110891209D01*
X143683195Y-110748352D01*
X143730814Y-110557876D01*
X143778433Y-110462638D01*
X143873671Y-110367400D01*
X144016528Y-110319780D01*
X144111766Y-110319780D01*
X144254623Y-110367400D01*
X144302242Y-110415019D01*
X145207004Y-110319780D02*
X144730814Y-110319780D01*
X144683195Y-110795971D01*
X144730814Y-110748352D01*
X144826052Y-110700733D01*
X145064147Y-110700733D01*
X145159385Y-110748352D01*
X145207004Y-110795971D01*
X145254623Y-110891209D01*
X145254623Y-111129304D01*
X145207004Y-111224542D01*
X145159385Y-111272161D01*
X145064147Y-111319780D01*
X144826052Y-111319780D01*
X144730814Y-111272161D01*
X144683195Y-111224542D01*
X145730814Y-111319780D02*
X145921290Y-111319780D01*
X146016528Y-111272161D01*
X146064147Y-111224542D01*
X146159385Y-111081685D01*
X146207004Y-110891209D01*
X146207004Y-110510257D01*
X146159385Y-110415019D01*
X146111766Y-110367400D01*
X146016528Y-110319780D01*
X145826052Y-110319780D01*
X145730814Y-110367400D01*
X145683195Y-110415019D01*
X145635576Y-110510257D01*
X145635576Y-110748352D01*
X145683195Y-110843590D01*
X145730814Y-110891209D01*
X145826052Y-110938828D01*
X146016528Y-110938828D01*
X146111766Y-110891209D01*
X146159385Y-110843590D01*
X146207004Y-110748352D01*
%TO.C,C58*%
X148112242Y-109094542D02*
X148064623Y-109142161D01*
X147921766Y-109189780D01*
X147826528Y-109189780D01*
X147683671Y-109142161D01*
X147588433Y-109046923D01*
X147540814Y-108951685D01*
X147493195Y-108761209D01*
X147493195Y-108618352D01*
X147540814Y-108427876D01*
X147588433Y-108332638D01*
X147683671Y-108237400D01*
X147826528Y-108189780D01*
X147921766Y-108189780D01*
X148064623Y-108237400D01*
X148112242Y-108285019D01*
X149017004Y-108189780D02*
X148540814Y-108189780D01*
X148493195Y-108665971D01*
X148540814Y-108618352D01*
X148636052Y-108570733D01*
X148874147Y-108570733D01*
X148969385Y-108618352D01*
X149017004Y-108665971D01*
X149064623Y-108761209D01*
X149064623Y-108999304D01*
X149017004Y-109094542D01*
X148969385Y-109142161D01*
X148874147Y-109189780D01*
X148636052Y-109189780D01*
X148540814Y-109142161D01*
X148493195Y-109094542D01*
X149636052Y-108618352D02*
X149540814Y-108570733D01*
X149493195Y-108523114D01*
X149445576Y-108427876D01*
X149445576Y-108380257D01*
X149493195Y-108285019D01*
X149540814Y-108237400D01*
X149636052Y-108189780D01*
X149826528Y-108189780D01*
X149921766Y-108237400D01*
X149969385Y-108285019D01*
X150017004Y-108380257D01*
X150017004Y-108427876D01*
X149969385Y-108523114D01*
X149921766Y-108570733D01*
X149826528Y-108618352D01*
X149636052Y-108618352D01*
X149540814Y-108665971D01*
X149493195Y-108713590D01*
X149445576Y-108808828D01*
X149445576Y-108999304D01*
X149493195Y-109094542D01*
X149540814Y-109142161D01*
X149636052Y-109189780D01*
X149826528Y-109189780D01*
X149921766Y-109142161D01*
X149969385Y-109094542D01*
X150017004Y-108999304D01*
X150017004Y-108808828D01*
X149969385Y-108713590D01*
X149921766Y-108665971D01*
X149826528Y-108618352D01*
%TO.C,C53*%
X154065242Y-92870257D02*
X154112861Y-92917876D01*
X154160480Y-93060733D01*
X154160480Y-93155971D01*
X154112861Y-93298828D01*
X154017623Y-93394066D01*
X153922385Y-93441685D01*
X153731909Y-93489304D01*
X153589052Y-93489304D01*
X153398576Y-93441685D01*
X153303338Y-93394066D01*
X153208100Y-93298828D01*
X153160480Y-93155971D01*
X153160480Y-93060733D01*
X153208100Y-92917876D01*
X153255719Y-92870257D01*
X153160480Y-91965495D02*
X153160480Y-92441685D01*
X153636671Y-92489304D01*
X153589052Y-92441685D01*
X153541433Y-92346447D01*
X153541433Y-92108352D01*
X153589052Y-92013114D01*
X153636671Y-91965495D01*
X153731909Y-91917876D01*
X153970004Y-91917876D01*
X154065242Y-91965495D01*
X154112861Y-92013114D01*
X154160480Y-92108352D01*
X154160480Y-92346447D01*
X154112861Y-92441685D01*
X154065242Y-92489304D01*
X153160480Y-91584542D02*
X153160480Y-90965495D01*
X153541433Y-91298828D01*
X153541433Y-91155971D01*
X153589052Y-91060733D01*
X153636671Y-91013114D01*
X153731909Y-90965495D01*
X153970004Y-90965495D01*
X154065242Y-91013114D01*
X154112861Y-91060733D01*
X154160480Y-91155971D01*
X154160480Y-91441685D01*
X154112861Y-91536923D01*
X154065242Y-91584542D01*
%TO.C,C52*%
X161587242Y-92895657D02*
X161634861Y-92943276D01*
X161682480Y-93086133D01*
X161682480Y-93181371D01*
X161634861Y-93324228D01*
X161539623Y-93419466D01*
X161444385Y-93467085D01*
X161253909Y-93514704D01*
X161111052Y-93514704D01*
X160920576Y-93467085D01*
X160825338Y-93419466D01*
X160730100Y-93324228D01*
X160682480Y-93181371D01*
X160682480Y-93086133D01*
X160730100Y-92943276D01*
X160777719Y-92895657D01*
X160682480Y-91990895D02*
X160682480Y-92467085D01*
X161158671Y-92514704D01*
X161111052Y-92467085D01*
X161063433Y-92371847D01*
X161063433Y-92133752D01*
X161111052Y-92038514D01*
X161158671Y-91990895D01*
X161253909Y-91943276D01*
X161492004Y-91943276D01*
X161587242Y-91990895D01*
X161634861Y-92038514D01*
X161682480Y-92133752D01*
X161682480Y-92371847D01*
X161634861Y-92467085D01*
X161587242Y-92514704D01*
X160777719Y-91562323D02*
X160730100Y-91514704D01*
X160682480Y-91419466D01*
X160682480Y-91181371D01*
X160730100Y-91086133D01*
X160777719Y-91038514D01*
X160872957Y-90990895D01*
X160968195Y-90990895D01*
X161111052Y-91038514D01*
X161682480Y-91609942D01*
X161682480Y-90990895D01*
%TO.C,C51*%
X157802642Y-92819457D02*
X157850261Y-92867076D01*
X157897880Y-93009933D01*
X157897880Y-93105171D01*
X157850261Y-93248028D01*
X157755023Y-93343266D01*
X157659785Y-93390885D01*
X157469309Y-93438504D01*
X157326452Y-93438504D01*
X157135976Y-93390885D01*
X157040738Y-93343266D01*
X156945500Y-93248028D01*
X156897880Y-93105171D01*
X156897880Y-93009933D01*
X156945500Y-92867076D01*
X156993119Y-92819457D01*
X156897880Y-91914695D02*
X156897880Y-92390885D01*
X157374071Y-92438504D01*
X157326452Y-92390885D01*
X157278833Y-92295647D01*
X157278833Y-92057552D01*
X157326452Y-91962314D01*
X157374071Y-91914695D01*
X157469309Y-91867076D01*
X157707404Y-91867076D01*
X157802642Y-91914695D01*
X157850261Y-91962314D01*
X157897880Y-92057552D01*
X157897880Y-92295647D01*
X157850261Y-92390885D01*
X157802642Y-92438504D01*
X157897880Y-90914695D02*
X157897880Y-91486123D01*
X157897880Y-91200409D02*
X156897880Y-91200409D01*
X157040738Y-91295647D01*
X157135976Y-91390885D01*
X157183595Y-91486123D01*
%TO.C,C36*%
X130261842Y-119438657D02*
X130309461Y-119486276D01*
X130357080Y-119629133D01*
X130357080Y-119724371D01*
X130309461Y-119867228D01*
X130214223Y-119962466D01*
X130118985Y-120010085D01*
X129928509Y-120057704D01*
X129785652Y-120057704D01*
X129595176Y-120010085D01*
X129499938Y-119962466D01*
X129404700Y-119867228D01*
X129357080Y-119724371D01*
X129357080Y-119629133D01*
X129404700Y-119486276D01*
X129452319Y-119438657D01*
X129357080Y-119105323D02*
X129357080Y-118486276D01*
X129738033Y-118819609D01*
X129738033Y-118676752D01*
X129785652Y-118581514D01*
X129833271Y-118533895D01*
X129928509Y-118486276D01*
X130166604Y-118486276D01*
X130261842Y-118533895D01*
X130309461Y-118581514D01*
X130357080Y-118676752D01*
X130357080Y-118962466D01*
X130309461Y-119057704D01*
X130261842Y-119105323D01*
X129357080Y-117629133D02*
X129357080Y-117819609D01*
X129404700Y-117914847D01*
X129452319Y-117962466D01*
X129595176Y-118057704D01*
X129785652Y-118105323D01*
X130166604Y-118105323D01*
X130261842Y-118057704D01*
X130309461Y-118010085D01*
X130357080Y-117914847D01*
X130357080Y-117724371D01*
X130309461Y-117629133D01*
X130261842Y-117581514D01*
X130166604Y-117533895D01*
X129928509Y-117533895D01*
X129833271Y-117581514D01*
X129785652Y-117629133D01*
X129738033Y-117724371D01*
X129738033Y-117914847D01*
X129785652Y-118010085D01*
X129833271Y-118057704D01*
X129928509Y-118105323D01*
%TO.C,AE5*%
X154356966Y-126889066D02*
X154356966Y-126412876D01*
X154642680Y-126984304D02*
X153642680Y-126650971D01*
X154642680Y-126317638D01*
X154118871Y-125984304D02*
X154118871Y-125650971D01*
X154642680Y-125508114D02*
X154642680Y-125984304D01*
X153642680Y-125984304D01*
X153642680Y-125508114D01*
X153642680Y-124603352D02*
X153642680Y-125079542D01*
X154118871Y-125127161D01*
X154071252Y-125079542D01*
X154023633Y-124984304D01*
X154023633Y-124746209D01*
X154071252Y-124650971D01*
X154118871Y-124603352D01*
X154214109Y-124555733D01*
X154452204Y-124555733D01*
X154547442Y-124603352D01*
X154595061Y-124650971D01*
X154642680Y-124746209D01*
X154642680Y-124984304D01*
X154595061Y-125079542D01*
X154547442Y-125127161D01*
%TO.C,AE4*%
X161672166Y-126812866D02*
X161672166Y-126336676D01*
X161957880Y-126908104D02*
X160957880Y-126574771D01*
X161957880Y-126241438D01*
X161434071Y-125908104D02*
X161434071Y-125574771D01*
X161957880Y-125431914D02*
X161957880Y-125908104D01*
X160957880Y-125908104D01*
X160957880Y-125431914D01*
X161291214Y-124574771D02*
X161957880Y-124574771D01*
X160910261Y-124812866D02*
X161624547Y-125050961D01*
X161624547Y-124431914D01*
%TO.C,AE3*%
X147143366Y-126939866D02*
X147143366Y-126463676D01*
X147429080Y-127035104D02*
X146429080Y-126701771D01*
X147429080Y-126368438D01*
X146905271Y-126035104D02*
X146905271Y-125701771D01*
X147429080Y-125558914D02*
X147429080Y-126035104D01*
X146429080Y-126035104D01*
X146429080Y-125558914D01*
X146429080Y-125225580D02*
X146429080Y-124606533D01*
X146810033Y-124939866D01*
X146810033Y-124797009D01*
X146857652Y-124701771D01*
X146905271Y-124654152D01*
X147000509Y-124606533D01*
X147238604Y-124606533D01*
X147333842Y-124654152D01*
X147381461Y-124701771D01*
X147429080Y-124797009D01*
X147429080Y-125082723D01*
X147381461Y-125177961D01*
X147333842Y-125225580D01*
%TO.C,AE2*%
X139929766Y-127168466D02*
X139929766Y-126692276D01*
X140215480Y-127263704D02*
X139215480Y-126930371D01*
X140215480Y-126597038D01*
X139691671Y-126263704D02*
X139691671Y-125930371D01*
X140215480Y-125787514D02*
X140215480Y-126263704D01*
X139215480Y-126263704D01*
X139215480Y-125787514D01*
X139310719Y-125406561D02*
X139263100Y-125358942D01*
X139215480Y-125263704D01*
X139215480Y-125025609D01*
X139263100Y-124930371D01*
X139310719Y-124882752D01*
X139405957Y-124835133D01*
X139501195Y-124835133D01*
X139644052Y-124882752D01*
X140215480Y-125454180D01*
X140215480Y-124835133D01*
%TO.C,AE1*%
X132665366Y-127346266D02*
X132665366Y-126870076D01*
X132951080Y-127441504D02*
X131951080Y-127108171D01*
X132951080Y-126774838D01*
X132427271Y-126441504D02*
X132427271Y-126108171D01*
X132951080Y-125965314D02*
X132951080Y-126441504D01*
X131951080Y-126441504D01*
X131951080Y-125965314D01*
X132951080Y-125012933D02*
X132951080Y-125584361D01*
X132951080Y-125298647D02*
X131951080Y-125298647D01*
X132093938Y-125393885D01*
X132189176Y-125489123D01*
X132236795Y-125584361D01*
%TO.C,U1*%
X136351680Y-77241304D02*
X137161204Y-77241304D01*
X137256442Y-77193685D01*
X137304061Y-77146066D01*
X137351680Y-77050828D01*
X137351680Y-76860352D01*
X137304061Y-76765114D01*
X137256442Y-76717495D01*
X137161204Y-76669876D01*
X136351680Y-76669876D01*
X137351680Y-75669876D02*
X137351680Y-76241304D01*
X137351680Y-75955590D02*
X136351680Y-75955590D01*
X136494538Y-76050828D01*
X136589776Y-76146066D01*
X136637395Y-76241304D01*
%TO.C,L340*%
X134982480Y-93981447D02*
X134982480Y-94457638D01*
X133982480Y-94457638D01*
X133982480Y-93743352D02*
X133982480Y-93124304D01*
X134363433Y-93457638D01*
X134363433Y-93314780D01*
X134411052Y-93219542D01*
X134458671Y-93171923D01*
X134553909Y-93124304D01*
X134792004Y-93124304D01*
X134887242Y-93171923D01*
X134934861Y-93219542D01*
X134982480Y-93314780D01*
X134982480Y-93600495D01*
X134934861Y-93695733D01*
X134887242Y-93743352D01*
X134315814Y-92267161D02*
X134982480Y-92267161D01*
X133934861Y-92505257D02*
X134649147Y-92743352D01*
X134649147Y-92124304D01*
X133982480Y-91552876D02*
X133982480Y-91457638D01*
X134030100Y-91362400D01*
X134077719Y-91314780D01*
X134172957Y-91267161D01*
X134363433Y-91219542D01*
X134601528Y-91219542D01*
X134792004Y-91267161D01*
X134887242Y-91314780D01*
X134934861Y-91362400D01*
X134982480Y-91457638D01*
X134982480Y-91552876D01*
X134934861Y-91648114D01*
X134887242Y-91695733D01*
X134792004Y-91743352D01*
X134601528Y-91790971D01*
X134363433Y-91790971D01*
X134172957Y-91743352D01*
X134077719Y-91695733D01*
X134030100Y-91648114D01*
X133982480Y-91552876D01*
%TO.C,L339*%
X134301052Y-102839780D02*
X133824861Y-102839780D01*
X133824861Y-101839780D01*
X134539147Y-101839780D02*
X135158195Y-101839780D01*
X134824861Y-102220733D01*
X134967719Y-102220733D01*
X135062957Y-102268352D01*
X135110576Y-102315971D01*
X135158195Y-102411209D01*
X135158195Y-102649304D01*
X135110576Y-102744542D01*
X135062957Y-102792161D01*
X134967719Y-102839780D01*
X134682004Y-102839780D01*
X134586766Y-102792161D01*
X134539147Y-102744542D01*
X135491528Y-101839780D02*
X136110576Y-101839780D01*
X135777242Y-102220733D01*
X135920100Y-102220733D01*
X136015338Y-102268352D01*
X136062957Y-102315971D01*
X136110576Y-102411209D01*
X136110576Y-102649304D01*
X136062957Y-102744542D01*
X136015338Y-102792161D01*
X135920100Y-102839780D01*
X135634385Y-102839780D01*
X135539147Y-102792161D01*
X135491528Y-102744542D01*
X136586766Y-102839780D02*
X136777242Y-102839780D01*
X136872480Y-102792161D01*
X136920100Y-102744542D01*
X137015338Y-102601685D01*
X137062957Y-102411209D01*
X137062957Y-102030257D01*
X137015338Y-101935019D01*
X136967719Y-101887400D01*
X136872480Y-101839780D01*
X136682004Y-101839780D01*
X136586766Y-101887400D01*
X136539147Y-101935019D01*
X136491528Y-102030257D01*
X136491528Y-102268352D01*
X136539147Y-102363590D01*
X136586766Y-102411209D01*
X136682004Y-102458828D01*
X136872480Y-102458828D01*
X136967719Y-102411209D01*
X137015338Y-102363590D01*
X137062957Y-102268352D01*
%TO.C,L338*%
X138792480Y-93981447D02*
X138792480Y-94457638D01*
X137792480Y-94457638D01*
X137792480Y-93743352D02*
X137792480Y-93124304D01*
X138173433Y-93457638D01*
X138173433Y-93314780D01*
X138221052Y-93219542D01*
X138268671Y-93171923D01*
X138363909Y-93124304D01*
X138602004Y-93124304D01*
X138697242Y-93171923D01*
X138744861Y-93219542D01*
X138792480Y-93314780D01*
X138792480Y-93600495D01*
X138744861Y-93695733D01*
X138697242Y-93743352D01*
X137792480Y-92790971D02*
X137792480Y-92171923D01*
X138173433Y-92505257D01*
X138173433Y-92362400D01*
X138221052Y-92267161D01*
X138268671Y-92219542D01*
X138363909Y-92171923D01*
X138602004Y-92171923D01*
X138697242Y-92219542D01*
X138744861Y-92267161D01*
X138792480Y-92362400D01*
X138792480Y-92648114D01*
X138744861Y-92743352D01*
X138697242Y-92790971D01*
X138221052Y-91600495D02*
X138173433Y-91695733D01*
X138125814Y-91743352D01*
X138030576Y-91790971D01*
X137982957Y-91790971D01*
X137887719Y-91743352D01*
X137840100Y-91695733D01*
X137792480Y-91600495D01*
X137792480Y-91410019D01*
X137840100Y-91314780D01*
X137887719Y-91267161D01*
X137982957Y-91219542D01*
X138030576Y-91219542D01*
X138125814Y-91267161D01*
X138173433Y-91314780D01*
X138221052Y-91410019D01*
X138221052Y-91600495D01*
X138268671Y-91695733D01*
X138316290Y-91743352D01*
X138411528Y-91790971D01*
X138602004Y-91790971D01*
X138697242Y-91743352D01*
X138744861Y-91695733D01*
X138792480Y-91600495D01*
X138792480Y-91410019D01*
X138744861Y-91314780D01*
X138697242Y-91267161D01*
X138602004Y-91219542D01*
X138411528Y-91219542D01*
X138316290Y-91267161D01*
X138268671Y-91314780D01*
X138221052Y-91410019D01*
%TO.C,L337*%
X134301052Y-118079780D02*
X133824861Y-118079780D01*
X133824861Y-117079780D01*
X134539147Y-117079780D02*
X135158195Y-117079780D01*
X134824861Y-117460733D01*
X134967719Y-117460733D01*
X135062957Y-117508352D01*
X135110576Y-117555971D01*
X135158195Y-117651209D01*
X135158195Y-117889304D01*
X135110576Y-117984542D01*
X135062957Y-118032161D01*
X134967719Y-118079780D01*
X134682004Y-118079780D01*
X134586766Y-118032161D01*
X134539147Y-117984542D01*
X135491528Y-117079780D02*
X136110576Y-117079780D01*
X135777242Y-117460733D01*
X135920100Y-117460733D01*
X136015338Y-117508352D01*
X136062957Y-117555971D01*
X136110576Y-117651209D01*
X136110576Y-117889304D01*
X136062957Y-117984542D01*
X136015338Y-118032161D01*
X135920100Y-118079780D01*
X135634385Y-118079780D01*
X135539147Y-118032161D01*
X135491528Y-117984542D01*
X136443909Y-117079780D02*
X137110576Y-117079780D01*
X136682004Y-118079780D01*
%TO.C,L336*%
X134301052Y-110204780D02*
X133824861Y-110204780D01*
X133824861Y-109204780D01*
X134539147Y-109204780D02*
X135158195Y-109204780D01*
X134824861Y-109585733D01*
X134967719Y-109585733D01*
X135062957Y-109633352D01*
X135110576Y-109680971D01*
X135158195Y-109776209D01*
X135158195Y-110014304D01*
X135110576Y-110109542D01*
X135062957Y-110157161D01*
X134967719Y-110204780D01*
X134682004Y-110204780D01*
X134586766Y-110157161D01*
X134539147Y-110109542D01*
X135491528Y-109204780D02*
X136110576Y-109204780D01*
X135777242Y-109585733D01*
X135920100Y-109585733D01*
X136015338Y-109633352D01*
X136062957Y-109680971D01*
X136110576Y-109776209D01*
X136110576Y-110014304D01*
X136062957Y-110109542D01*
X136015338Y-110157161D01*
X135920100Y-110204780D01*
X135634385Y-110204780D01*
X135539147Y-110157161D01*
X135491528Y-110109542D01*
X136967719Y-109204780D02*
X136777242Y-109204780D01*
X136682004Y-109252400D01*
X136634385Y-109300019D01*
X136539147Y-109442876D01*
X136491528Y-109633352D01*
X136491528Y-110014304D01*
X136539147Y-110109542D01*
X136586766Y-110157161D01*
X136682004Y-110204780D01*
X136872480Y-110204780D01*
X136967719Y-110157161D01*
X137015338Y-110109542D01*
X137062957Y-110014304D01*
X137062957Y-109776209D01*
X137015338Y-109680971D01*
X136967719Y-109633352D01*
X136872480Y-109585733D01*
X136682004Y-109585733D01*
X136586766Y-109633352D01*
X136539147Y-109680971D01*
X136491528Y-109776209D01*
%TO.C,L22*%
X124617242Y-92044780D02*
X124141052Y-92044780D01*
X124141052Y-91044780D01*
X124902957Y-91140019D02*
X124950576Y-91092400D01*
X125045814Y-91044780D01*
X125283909Y-91044780D01*
X125379147Y-91092400D01*
X125426766Y-91140019D01*
X125474385Y-91235257D01*
X125474385Y-91330495D01*
X125426766Y-91473352D01*
X124855338Y-92044780D01*
X125474385Y-92044780D01*
X125855338Y-91140019D02*
X125902957Y-91092400D01*
X125998195Y-91044780D01*
X126236290Y-91044780D01*
X126331528Y-91092400D01*
X126379147Y-91140019D01*
X126426766Y-91235257D01*
X126426766Y-91330495D01*
X126379147Y-91473352D01*
X125807719Y-92044780D01*
X126426766Y-92044780D01*
%TO.C,L21*%
X128427242Y-86964780D02*
X127951052Y-86964780D01*
X127951052Y-85964780D01*
X128712957Y-86060019D02*
X128760576Y-86012400D01*
X128855814Y-85964780D01*
X129093909Y-85964780D01*
X129189147Y-86012400D01*
X129236766Y-86060019D01*
X129284385Y-86155257D01*
X129284385Y-86250495D01*
X129236766Y-86393352D01*
X128665338Y-86964780D01*
X129284385Y-86964780D01*
X130236766Y-86964780D02*
X129665338Y-86964780D01*
X129951052Y-86964780D02*
X129951052Y-85964780D01*
X129855814Y-86107638D01*
X129760576Y-86202876D01*
X129665338Y-86250495D01*
%TO.C,L14*%
X128427242Y-104109780D02*
X127951052Y-104109780D01*
X127951052Y-103109780D01*
X129284385Y-104109780D02*
X128712957Y-104109780D01*
X128998671Y-104109780D02*
X128998671Y-103109780D01*
X128903433Y-103252638D01*
X128808195Y-103347876D01*
X128712957Y-103395495D01*
X130141528Y-103443114D02*
X130141528Y-104109780D01*
X129903433Y-103062161D02*
X129665338Y-103776447D01*
X130284385Y-103776447D01*
%TO.C,L13*%
X124617242Y-97124780D02*
X124141052Y-97124780D01*
X124141052Y-96124780D01*
X125474385Y-97124780D02*
X124902957Y-97124780D01*
X125188671Y-97124780D02*
X125188671Y-96124780D01*
X125093433Y-96267638D01*
X124998195Y-96362876D01*
X124902957Y-96410495D01*
X125807719Y-96124780D02*
X126426766Y-96124780D01*
X126093433Y-96505733D01*
X126236290Y-96505733D01*
X126331528Y-96553352D01*
X126379147Y-96600971D01*
X126426766Y-96696209D01*
X126426766Y-96934304D01*
X126379147Y-97029542D01*
X126331528Y-97077161D01*
X126236290Y-97124780D01*
X125950576Y-97124780D01*
X125855338Y-97077161D01*
X125807719Y-97029542D01*
%TO.C,C490*%
X130287242Y-115571447D02*
X130334861Y-115619066D01*
X130382480Y-115761923D01*
X130382480Y-115857161D01*
X130334861Y-116000019D01*
X130239623Y-116095257D01*
X130144385Y-116142876D01*
X129953909Y-116190495D01*
X129811052Y-116190495D01*
X129620576Y-116142876D01*
X129525338Y-116095257D01*
X129430100Y-116000019D01*
X129382480Y-115857161D01*
X129382480Y-115761923D01*
X129430100Y-115619066D01*
X129477719Y-115571447D01*
X129715814Y-114714304D02*
X130382480Y-114714304D01*
X129334861Y-114952400D02*
X130049147Y-115190495D01*
X130049147Y-114571447D01*
X130382480Y-114142876D02*
X130382480Y-113952400D01*
X130334861Y-113857161D01*
X130287242Y-113809542D01*
X130144385Y-113714304D01*
X129953909Y-113666685D01*
X129572957Y-113666685D01*
X129477719Y-113714304D01*
X129430100Y-113761923D01*
X129382480Y-113857161D01*
X129382480Y-114047638D01*
X129430100Y-114142876D01*
X129477719Y-114190495D01*
X129572957Y-114238114D01*
X129811052Y-114238114D01*
X129906290Y-114190495D01*
X129953909Y-114142876D01*
X130001528Y-114047638D01*
X130001528Y-113857161D01*
X129953909Y-113761923D01*
X129906290Y-113714304D01*
X129811052Y-113666685D01*
X129382480Y-113047638D02*
X129382480Y-112952400D01*
X129430100Y-112857161D01*
X129477719Y-112809542D01*
X129572957Y-112761923D01*
X129763433Y-112714304D01*
X130001528Y-112714304D01*
X130192004Y-112761923D01*
X130287242Y-112809542D01*
X130334861Y-112857161D01*
X130382480Y-112952400D01*
X130382480Y-113047638D01*
X130334861Y-113142876D01*
X130287242Y-113190495D01*
X130192004Y-113238114D01*
X130001528Y-113285733D01*
X129763433Y-113285733D01*
X129572957Y-113238114D01*
X129477719Y-113190495D01*
X129430100Y-113142876D01*
X129382480Y-113047638D01*
%TO.C,C489*%
X140857242Y-107951447D02*
X140904861Y-107999066D01*
X140952480Y-108141923D01*
X140952480Y-108237161D01*
X140904861Y-108380019D01*
X140809623Y-108475257D01*
X140714385Y-108522876D01*
X140523909Y-108570495D01*
X140381052Y-108570495D01*
X140190576Y-108522876D01*
X140095338Y-108475257D01*
X140000100Y-108380019D01*
X139952480Y-108237161D01*
X139952480Y-108141923D01*
X140000100Y-107999066D01*
X140047719Y-107951447D01*
X140285814Y-107094304D02*
X140952480Y-107094304D01*
X139904861Y-107332400D02*
X140619147Y-107570495D01*
X140619147Y-106951447D01*
X140381052Y-106427638D02*
X140333433Y-106522876D01*
X140285814Y-106570495D01*
X140190576Y-106618114D01*
X140142957Y-106618114D01*
X140047719Y-106570495D01*
X140000100Y-106522876D01*
X139952480Y-106427638D01*
X139952480Y-106237161D01*
X140000100Y-106141923D01*
X140047719Y-106094304D01*
X140142957Y-106046685D01*
X140190576Y-106046685D01*
X140285814Y-106094304D01*
X140333433Y-106141923D01*
X140381052Y-106237161D01*
X140381052Y-106427638D01*
X140428671Y-106522876D01*
X140476290Y-106570495D01*
X140571528Y-106618114D01*
X140762004Y-106618114D01*
X140857242Y-106570495D01*
X140904861Y-106522876D01*
X140952480Y-106427638D01*
X140952480Y-106237161D01*
X140904861Y-106141923D01*
X140857242Y-106094304D01*
X140762004Y-106046685D01*
X140571528Y-106046685D01*
X140476290Y-106094304D01*
X140428671Y-106141923D01*
X140381052Y-106237161D01*
X140952480Y-105570495D02*
X140952480Y-105380019D01*
X140904861Y-105284780D01*
X140857242Y-105237161D01*
X140714385Y-105141923D01*
X140523909Y-105094304D01*
X140142957Y-105094304D01*
X140047719Y-105141923D01*
X140000100Y-105189542D01*
X139952480Y-105284780D01*
X139952480Y-105475257D01*
X140000100Y-105570495D01*
X140047719Y-105618114D01*
X140142957Y-105665733D01*
X140381052Y-105665733D01*
X140476290Y-105618114D01*
X140523909Y-105570495D01*
X140571528Y-105475257D01*
X140571528Y-105284780D01*
X140523909Y-105189542D01*
X140476290Y-105141923D01*
X140381052Y-105094304D01*
%TO.C,C488*%
X134301052Y-106554542D02*
X134253433Y-106602161D01*
X134110576Y-106649780D01*
X134015338Y-106649780D01*
X133872480Y-106602161D01*
X133777242Y-106506923D01*
X133729623Y-106411685D01*
X133682004Y-106221209D01*
X133682004Y-106078352D01*
X133729623Y-105887876D01*
X133777242Y-105792638D01*
X133872480Y-105697400D01*
X134015338Y-105649780D01*
X134110576Y-105649780D01*
X134253433Y-105697400D01*
X134301052Y-105745019D01*
X135158195Y-105983114D02*
X135158195Y-106649780D01*
X134920100Y-105602161D02*
X134682004Y-106316447D01*
X135301052Y-106316447D01*
X135824861Y-106078352D02*
X135729623Y-106030733D01*
X135682004Y-105983114D01*
X135634385Y-105887876D01*
X135634385Y-105840257D01*
X135682004Y-105745019D01*
X135729623Y-105697400D01*
X135824861Y-105649780D01*
X136015338Y-105649780D01*
X136110576Y-105697400D01*
X136158195Y-105745019D01*
X136205814Y-105840257D01*
X136205814Y-105887876D01*
X136158195Y-105983114D01*
X136110576Y-106030733D01*
X136015338Y-106078352D01*
X135824861Y-106078352D01*
X135729623Y-106125971D01*
X135682004Y-106173590D01*
X135634385Y-106268828D01*
X135634385Y-106459304D01*
X135682004Y-106554542D01*
X135729623Y-106602161D01*
X135824861Y-106649780D01*
X136015338Y-106649780D01*
X136110576Y-106602161D01*
X136158195Y-106554542D01*
X136205814Y-106459304D01*
X136205814Y-106268828D01*
X136158195Y-106173590D01*
X136110576Y-106125971D01*
X136015338Y-106078352D01*
X136777242Y-106078352D02*
X136682004Y-106030733D01*
X136634385Y-105983114D01*
X136586766Y-105887876D01*
X136586766Y-105840257D01*
X136634385Y-105745019D01*
X136682004Y-105697400D01*
X136777242Y-105649780D01*
X136967719Y-105649780D01*
X137062957Y-105697400D01*
X137110576Y-105745019D01*
X137158195Y-105840257D01*
X137158195Y-105887876D01*
X137110576Y-105983114D01*
X137062957Y-106030733D01*
X136967719Y-106078352D01*
X136777242Y-106078352D01*
X136682004Y-106125971D01*
X136634385Y-106173590D01*
X136586766Y-106268828D01*
X136586766Y-106459304D01*
X136634385Y-106554542D01*
X136682004Y-106602161D01*
X136777242Y-106649780D01*
X136967719Y-106649780D01*
X137062957Y-106602161D01*
X137110576Y-106554542D01*
X137158195Y-106459304D01*
X137158195Y-106268828D01*
X137110576Y-106173590D01*
X137062957Y-106125971D01*
X136967719Y-106078352D01*
%TO.C,C487*%
X134301052Y-98709542D02*
X134253433Y-98757161D01*
X134110576Y-98804780D01*
X134015338Y-98804780D01*
X133872480Y-98757161D01*
X133777242Y-98661923D01*
X133729623Y-98566685D01*
X133682004Y-98376209D01*
X133682004Y-98233352D01*
X133729623Y-98042876D01*
X133777242Y-97947638D01*
X133872480Y-97852400D01*
X134015338Y-97804780D01*
X134110576Y-97804780D01*
X134253433Y-97852400D01*
X134301052Y-97900019D01*
X135158195Y-98138114D02*
X135158195Y-98804780D01*
X134920100Y-97757161D02*
X134682004Y-98471447D01*
X135301052Y-98471447D01*
X135824861Y-98233352D02*
X135729623Y-98185733D01*
X135682004Y-98138114D01*
X135634385Y-98042876D01*
X135634385Y-97995257D01*
X135682004Y-97900019D01*
X135729623Y-97852400D01*
X135824861Y-97804780D01*
X136015338Y-97804780D01*
X136110576Y-97852400D01*
X136158195Y-97900019D01*
X136205814Y-97995257D01*
X136205814Y-98042876D01*
X136158195Y-98138114D01*
X136110576Y-98185733D01*
X136015338Y-98233352D01*
X135824861Y-98233352D01*
X135729623Y-98280971D01*
X135682004Y-98328590D01*
X135634385Y-98423828D01*
X135634385Y-98614304D01*
X135682004Y-98709542D01*
X135729623Y-98757161D01*
X135824861Y-98804780D01*
X136015338Y-98804780D01*
X136110576Y-98757161D01*
X136158195Y-98709542D01*
X136205814Y-98614304D01*
X136205814Y-98423828D01*
X136158195Y-98328590D01*
X136110576Y-98280971D01*
X136015338Y-98233352D01*
X136539147Y-97804780D02*
X137205814Y-97804780D01*
X136777242Y-98804780D01*
%TO.C,C37*%
X134777242Y-121569542D02*
X134729623Y-121617161D01*
X134586766Y-121664780D01*
X134491528Y-121664780D01*
X134348671Y-121617161D01*
X134253433Y-121521923D01*
X134205814Y-121426685D01*
X134158195Y-121236209D01*
X134158195Y-121093352D01*
X134205814Y-120902876D01*
X134253433Y-120807638D01*
X134348671Y-120712400D01*
X134491528Y-120664780D01*
X134586766Y-120664780D01*
X134729623Y-120712400D01*
X134777242Y-120760019D01*
X135110576Y-120664780D02*
X135729623Y-120664780D01*
X135396290Y-121045733D01*
X135539147Y-121045733D01*
X135634385Y-121093352D01*
X135682004Y-121140971D01*
X135729623Y-121236209D01*
X135729623Y-121474304D01*
X135682004Y-121569542D01*
X135634385Y-121617161D01*
X135539147Y-121664780D01*
X135253433Y-121664780D01*
X135158195Y-121617161D01*
X135110576Y-121569542D01*
X136062957Y-120664780D02*
X136729623Y-120664780D01*
X136301052Y-121664780D01*
%TO.C,C33*%
X134777242Y-114174542D02*
X134729623Y-114222161D01*
X134586766Y-114269780D01*
X134491528Y-114269780D01*
X134348671Y-114222161D01*
X134253433Y-114126923D01*
X134205814Y-114031685D01*
X134158195Y-113841209D01*
X134158195Y-113698352D01*
X134205814Y-113507876D01*
X134253433Y-113412638D01*
X134348671Y-113317400D01*
X134491528Y-113269780D01*
X134586766Y-113269780D01*
X134729623Y-113317400D01*
X134777242Y-113365019D01*
X135110576Y-113269780D02*
X135729623Y-113269780D01*
X135396290Y-113650733D01*
X135539147Y-113650733D01*
X135634385Y-113698352D01*
X135682004Y-113745971D01*
X135729623Y-113841209D01*
X135729623Y-114079304D01*
X135682004Y-114174542D01*
X135634385Y-114222161D01*
X135539147Y-114269780D01*
X135253433Y-114269780D01*
X135158195Y-114222161D01*
X135110576Y-114174542D01*
X136062957Y-113269780D02*
X136682004Y-113269780D01*
X136348671Y-113650733D01*
X136491528Y-113650733D01*
X136586766Y-113698352D01*
X136634385Y-113745971D01*
X136682004Y-113841209D01*
X136682004Y-114079304D01*
X136634385Y-114174542D01*
X136586766Y-114222161D01*
X136491528Y-114269780D01*
X136205814Y-114269780D01*
X136110576Y-114222161D01*
X136062957Y-114174542D01*
%TO.C,C21*%
X123347242Y-87504542D02*
X123299623Y-87552161D01*
X123156766Y-87599780D01*
X123061528Y-87599780D01*
X122918671Y-87552161D01*
X122823433Y-87456923D01*
X122775814Y-87361685D01*
X122728195Y-87171209D01*
X122728195Y-87028352D01*
X122775814Y-86837876D01*
X122823433Y-86742638D01*
X122918671Y-86647400D01*
X123061528Y-86599780D01*
X123156766Y-86599780D01*
X123299623Y-86647400D01*
X123347242Y-86695019D01*
X123728195Y-86695019D02*
X123775814Y-86647400D01*
X123871052Y-86599780D01*
X124109147Y-86599780D01*
X124204385Y-86647400D01*
X124252004Y-86695019D01*
X124299623Y-86790257D01*
X124299623Y-86885495D01*
X124252004Y-87028352D01*
X123680576Y-87599780D01*
X124299623Y-87599780D01*
X125252004Y-87599780D02*
X124680576Y-87599780D01*
X124966290Y-87599780D02*
X124966290Y-86599780D01*
X124871052Y-86742638D01*
X124775814Y-86837876D01*
X124680576Y-86885495D01*
%TO.C,C14*%
X123579742Y-103789542D02*
X123532123Y-103837161D01*
X123389266Y-103884780D01*
X123294028Y-103884780D01*
X123151171Y-103837161D01*
X123055933Y-103741923D01*
X123008314Y-103646685D01*
X122960695Y-103456209D01*
X122960695Y-103313352D01*
X123008314Y-103122876D01*
X123055933Y-103027638D01*
X123151171Y-102932400D01*
X123294028Y-102884780D01*
X123389266Y-102884780D01*
X123532123Y-102932400D01*
X123579742Y-102980019D01*
X124532123Y-103884780D02*
X123960695Y-103884780D01*
X124246409Y-103884780D02*
X124246409Y-102884780D01*
X124151171Y-103027638D01*
X124055933Y-103122876D01*
X123960695Y-103170495D01*
X125389266Y-103218114D02*
X125389266Y-103884780D01*
X125151171Y-102837161D02*
X124913076Y-103551447D01*
X125532123Y-103551447D01*
%TO.C,C13*%
X124617242Y-99569542D02*
X124569623Y-99617161D01*
X124426766Y-99664780D01*
X124331528Y-99664780D01*
X124188671Y-99617161D01*
X124093433Y-99521923D01*
X124045814Y-99426685D01*
X123998195Y-99236209D01*
X123998195Y-99093352D01*
X124045814Y-98902876D01*
X124093433Y-98807638D01*
X124188671Y-98712400D01*
X124331528Y-98664780D01*
X124426766Y-98664780D01*
X124569623Y-98712400D01*
X124617242Y-98760019D01*
X125569623Y-99664780D02*
X124998195Y-99664780D01*
X125283909Y-99664780D02*
X125283909Y-98664780D01*
X125188671Y-98807638D01*
X125093433Y-98902876D01*
X124998195Y-98950495D01*
X125902957Y-98664780D02*
X126522004Y-98664780D01*
X126188671Y-99045733D01*
X126331528Y-99045733D01*
X126426766Y-99093352D01*
X126474385Y-99140971D01*
X126522004Y-99236209D01*
X126522004Y-99474304D01*
X126474385Y-99569542D01*
X126426766Y-99617161D01*
X126331528Y-99664780D01*
X126045814Y-99664780D01*
X125950576Y-99617161D01*
X125902957Y-99569542D01*
%TO.C,C12*%
X124617242Y-94489542D02*
X124569623Y-94537161D01*
X124426766Y-94584780D01*
X124331528Y-94584780D01*
X124188671Y-94537161D01*
X124093433Y-94441923D01*
X124045814Y-94346685D01*
X123998195Y-94156209D01*
X123998195Y-94013352D01*
X124045814Y-93822876D01*
X124093433Y-93727638D01*
X124188671Y-93632400D01*
X124331528Y-93584780D01*
X124426766Y-93584780D01*
X124569623Y-93632400D01*
X124617242Y-93680019D01*
X125569623Y-94584780D02*
X124998195Y-94584780D01*
X125283909Y-94584780D02*
X125283909Y-93584780D01*
X125188671Y-93727638D01*
X125093433Y-93822876D01*
X124998195Y-93870495D01*
X125950576Y-93680019D02*
X125998195Y-93632400D01*
X126093433Y-93584780D01*
X126331528Y-93584780D01*
X126426766Y-93632400D01*
X126474385Y-93680019D01*
X126522004Y-93775257D01*
X126522004Y-93870495D01*
X126474385Y-94013352D01*
X125902957Y-94584780D01*
X126522004Y-94584780D01*
%TO.C,P8*%
X163892004Y-57734780D02*
X163892004Y-56734780D01*
X164272957Y-56734780D01*
X164368195Y-56782400D01*
X164415814Y-56830019D01*
X164463433Y-56925257D01*
X164463433Y-57068114D01*
X164415814Y-57163352D01*
X164368195Y-57210971D01*
X164272957Y-57258590D01*
X163892004Y-57258590D01*
X165034861Y-57163352D02*
X164939623Y-57115733D01*
X164892004Y-57068114D01*
X164844385Y-56972876D01*
X164844385Y-56925257D01*
X164892004Y-56830019D01*
X164939623Y-56782400D01*
X165034861Y-56734780D01*
X165225338Y-56734780D01*
X165320576Y-56782400D01*
X165368195Y-56830019D01*
X165415814Y-56925257D01*
X165415814Y-56972876D01*
X165368195Y-57068114D01*
X165320576Y-57115733D01*
X165225338Y-57163352D01*
X165034861Y-57163352D01*
X164939623Y-57210971D01*
X164892004Y-57258590D01*
X164844385Y-57353828D01*
X164844385Y-57544304D01*
X164892004Y-57639542D01*
X164939623Y-57687161D01*
X165034861Y-57734780D01*
X165225338Y-57734780D01*
X165320576Y-57687161D01*
X165368195Y-57639542D01*
X165415814Y-57544304D01*
X165415814Y-57353828D01*
X165368195Y-57258590D01*
X165320576Y-57210971D01*
X165225338Y-57163352D01*
%TO.C,P9*%
X115632004Y-57734780D02*
X115632004Y-56734780D01*
X116012957Y-56734780D01*
X116108195Y-56782400D01*
X116155814Y-56830019D01*
X116203433Y-56925257D01*
X116203433Y-57068114D01*
X116155814Y-57163352D01*
X116108195Y-57210971D01*
X116012957Y-57258590D01*
X115632004Y-57258590D01*
X116679623Y-57734780D02*
X116870100Y-57734780D01*
X116965338Y-57687161D01*
X117012957Y-57639542D01*
X117108195Y-57496685D01*
X117155814Y-57306209D01*
X117155814Y-56925257D01*
X117108195Y-56830019D01*
X117060576Y-56782400D01*
X116965338Y-56734780D01*
X116774861Y-56734780D01*
X116679623Y-56782400D01*
X116632004Y-56830019D01*
X116584385Y-56925257D01*
X116584385Y-57163352D01*
X116632004Y-57258590D01*
X116679623Y-57306209D01*
X116774861Y-57353828D01*
X116965338Y-57353828D01*
X117060576Y-57306209D01*
X117108195Y-57258590D01*
X117155814Y-57163352D01*
%TD*%
M02*
