%TF.GenerationSoftware,KiCad,Pcbnew,(5.1.10)-1*%
%TF.CreationDate,2021-09-06T20:05:53-04:00*%
%TF.ProjectId,BeagleBone-Black-Cape,42656167-6c65-4426-9f6e-652d426c6163,rev?*%
%TF.SameCoordinates,Original*%
%TF.FileFunction,Paste,Top*%
%TF.FilePolarity,Positive*%
%FSLAX46Y46*%
G04 Gerber Fmt 4.6, Leading zero omitted, Abs format (unit mm)*
G04 Created by KiCad (PCBNEW (5.1.10)-1) date 2021-09-06 20:05:53*
%MOMM*%
%LPD*%
G01*
G04 APERTURE LIST*
%ADD10C,0.152400*%
%ADD11R,0.500000X0.250000*%
%ADD12R,1.244600X0.762000*%
%ADD13R,0.203200X0.558800*%
%ADD14R,1.050000X2.200000*%
%ADD15R,1.000000X1.050000*%
G04 APERTURE END LIST*
D10*
%TO.C,U2*%
X140131800Y-116865400D02*
X140131800Y-116967000D01*
X140081000Y-116865400D02*
X140131800Y-116865400D01*
X140081000Y-116967000D02*
X140081000Y-116865400D01*
X140131800Y-116967000D02*
X140081000Y-116967000D01*
X140131800Y-116865400D02*
X140131800Y-116763800D01*
X140081000Y-116865400D02*
X140131800Y-116865400D01*
X140081000Y-116763800D02*
X140081000Y-116865400D01*
X140131800Y-116763800D02*
X140081000Y-116763800D01*
X141376400Y-116865400D02*
X141376400Y-116967000D01*
X141427200Y-116865400D02*
X141376400Y-116865400D01*
X141427200Y-116967000D02*
X141427200Y-116865400D01*
X141376400Y-116967000D02*
X141427200Y-116967000D01*
X141376400Y-116865400D02*
X141376400Y-116763800D01*
X141427200Y-116865400D02*
X141376400Y-116865400D01*
X141427200Y-116763800D02*
X141427200Y-116865400D01*
X141376400Y-116763800D02*
X141427200Y-116763800D01*
%TD*%
D11*
%TO.C,CR13*%
X152488900Y-112527200D03*
X152488900Y-113177200D03*
%TD*%
D12*
%TO.C,U2*%
X140754100Y-116865400D03*
D13*
X141354099Y-117640100D03*
X140954100Y-117640100D03*
X140554100Y-117640100D03*
X140154101Y-117640100D03*
X140154101Y-116090700D03*
X140554100Y-116090700D03*
X140954100Y-116090700D03*
X141354099Y-116090700D03*
%TD*%
%TO.C,Z63*%
G36*
G01*
X156229900Y-120556000D02*
X156229900Y-121506000D01*
G75*
G02*
X155979900Y-121756000I-250000J0D01*
G01*
X155304900Y-121756000D01*
G75*
G02*
X155054900Y-121506000I0J250000D01*
G01*
X155054900Y-120556000D01*
G75*
G02*
X155304900Y-120306000I250000J0D01*
G01*
X155979900Y-120306000D01*
G75*
G02*
X156229900Y-120556000I0J-250000D01*
G01*
G37*
G36*
G01*
X158304900Y-120556000D02*
X158304900Y-121506000D01*
G75*
G02*
X158054900Y-121756000I-250000J0D01*
G01*
X157379900Y-121756000D01*
G75*
G02*
X157129900Y-121506000I0J250000D01*
G01*
X157129900Y-120556000D01*
G75*
G02*
X157379900Y-120306000I250000J0D01*
G01*
X158054900Y-120306000D01*
G75*
G02*
X158304900Y-120556000I0J-250000D01*
G01*
G37*
%TD*%
%TO.C,Z62*%
G36*
G01*
X156229900Y-117786999D02*
X156229900Y-118687001D01*
G75*
G02*
X155979901Y-118937000I-249999J0D01*
G01*
X155329899Y-118937000D01*
G75*
G02*
X155079900Y-118687001I0J249999D01*
G01*
X155079900Y-117786999D01*
G75*
G02*
X155329899Y-117537000I249999J0D01*
G01*
X155979901Y-117537000D01*
G75*
G02*
X156229900Y-117786999I0J-249999D01*
G01*
G37*
G36*
G01*
X158279900Y-117786999D02*
X158279900Y-118687001D01*
G75*
G02*
X158029901Y-118937000I-249999J0D01*
G01*
X157379899Y-118937000D01*
G75*
G02*
X157129900Y-118687001I0J249999D01*
G01*
X157129900Y-117786999D01*
G75*
G02*
X157379899Y-117537000I249999J0D01*
G01*
X158029901Y-117537000D01*
G75*
G02*
X158279900Y-117786999I0J-249999D01*
G01*
G37*
%TD*%
%TO.C,Z61*%
G36*
G01*
X156179100Y-115018800D02*
X156179100Y-115968800D01*
G75*
G02*
X155929100Y-116218800I-250000J0D01*
G01*
X155254100Y-116218800D01*
G75*
G02*
X155004100Y-115968800I0J250000D01*
G01*
X155004100Y-115018800D01*
G75*
G02*
X155254100Y-114768800I250000J0D01*
G01*
X155929100Y-114768800D01*
G75*
G02*
X156179100Y-115018800I0J-250000D01*
G01*
G37*
G36*
G01*
X158254100Y-115018800D02*
X158254100Y-115968800D01*
G75*
G02*
X158004100Y-116218800I-250000J0D01*
G01*
X157329100Y-116218800D01*
G75*
G02*
X157079100Y-115968800I0J250000D01*
G01*
X157079100Y-115018800D01*
G75*
G02*
X157329100Y-114768800I250000J0D01*
G01*
X158004100Y-114768800D01*
G75*
G02*
X158254100Y-115018800I0J-250000D01*
G01*
G37*
%TD*%
%TO.C,Z60*%
G36*
G01*
X157079100Y-113556201D02*
X157079100Y-112656199D01*
G75*
G02*
X157329099Y-112406200I249999J0D01*
G01*
X157979101Y-112406200D01*
G75*
G02*
X158229100Y-112656199I0J-249999D01*
G01*
X158229100Y-113556201D01*
G75*
G02*
X157979101Y-113806200I-249999J0D01*
G01*
X157329099Y-113806200D01*
G75*
G02*
X157079100Y-113556201I0J249999D01*
G01*
G37*
G36*
G01*
X155029100Y-113556201D02*
X155029100Y-112656199D01*
G75*
G02*
X155279099Y-112406200I249999J0D01*
G01*
X155929101Y-112406200D01*
G75*
G02*
X156179100Y-112656199I0J-249999D01*
G01*
X156179100Y-113556201D01*
G75*
G02*
X155929101Y-113806200I-249999J0D01*
G01*
X155279099Y-113806200D01*
G75*
G02*
X155029100Y-113556201I0J249999D01*
G01*
G37*
%TD*%
%TO.C,R54*%
G36*
G01*
X157714900Y-85159001D02*
X157714900Y-84258999D01*
G75*
G02*
X157964899Y-84009000I249999J0D01*
G01*
X158664901Y-84009000D01*
G75*
G02*
X158914900Y-84258999I0J-249999D01*
G01*
X158914900Y-85159001D01*
G75*
G02*
X158664901Y-85409000I-249999J0D01*
G01*
X157964899Y-85409000D01*
G75*
G02*
X157714900Y-85159001I0J249999D01*
G01*
G37*
G36*
G01*
X155714900Y-85159001D02*
X155714900Y-84258999D01*
G75*
G02*
X155964899Y-84009000I249999J0D01*
G01*
X156664901Y-84009000D01*
G75*
G02*
X156914900Y-84258999I0J-249999D01*
G01*
X156914900Y-85159001D01*
G75*
G02*
X156664901Y-85409000I-249999J0D01*
G01*
X155964899Y-85409000D01*
G75*
G02*
X155714900Y-85159001I0J249999D01*
G01*
G37*
%TD*%
%TO.C,R53*%
G36*
G01*
X153380900Y-85159001D02*
X153380900Y-84258999D01*
G75*
G02*
X153630899Y-84009000I249999J0D01*
G01*
X154330901Y-84009000D01*
G75*
G02*
X154580900Y-84258999I0J-249999D01*
G01*
X154580900Y-85159001D01*
G75*
G02*
X154330901Y-85409000I-249999J0D01*
G01*
X153630899Y-85409000D01*
G75*
G02*
X153380900Y-85159001I0J249999D01*
G01*
G37*
G36*
G01*
X151380900Y-85159001D02*
X151380900Y-84258999D01*
G75*
G02*
X151630899Y-84009000I249999J0D01*
G01*
X152330901Y-84009000D01*
G75*
G02*
X152580900Y-84258999I0J-249999D01*
G01*
X152580900Y-85159001D01*
G75*
G02*
X152330901Y-85409000I-249999J0D01*
G01*
X151630899Y-85409000D01*
G75*
G02*
X151380900Y-85159001I0J249999D01*
G01*
G37*
%TD*%
%TO.C,L62*%
G36*
G01*
X145395100Y-94582401D02*
X145395100Y-93682399D01*
G75*
G02*
X145645099Y-93432400I249999J0D01*
G01*
X146295101Y-93432400D01*
G75*
G02*
X146545100Y-93682399I0J-249999D01*
G01*
X146545100Y-94582401D01*
G75*
G02*
X146295101Y-94832400I-249999J0D01*
G01*
X145645099Y-94832400D01*
G75*
G02*
X145395100Y-94582401I0J249999D01*
G01*
G37*
G36*
G01*
X143345100Y-94582401D02*
X143345100Y-93682399D01*
G75*
G02*
X143595099Y-93432400I249999J0D01*
G01*
X144245101Y-93432400D01*
G75*
G02*
X144495100Y-93682399I0J-249999D01*
G01*
X144495100Y-94582401D01*
G75*
G02*
X144245101Y-94832400I-249999J0D01*
G01*
X143595099Y-94832400D01*
G75*
G02*
X143345100Y-94582401I0J249999D01*
G01*
G37*
%TD*%
%TO.C,L55*%
G36*
G01*
X144495100Y-102572399D02*
X144495100Y-103472401D01*
G75*
G02*
X144245101Y-103722400I-249999J0D01*
G01*
X143595099Y-103722400D01*
G75*
G02*
X143345100Y-103472401I0J249999D01*
G01*
X143345100Y-102572399D01*
G75*
G02*
X143595099Y-102322400I249999J0D01*
G01*
X144245101Y-102322400D01*
G75*
G02*
X144495100Y-102572399I0J-249999D01*
G01*
G37*
G36*
G01*
X146545100Y-102572399D02*
X146545100Y-103472401D01*
G75*
G02*
X146295101Y-103722400I-249999J0D01*
G01*
X145645099Y-103722400D01*
G75*
G02*
X145395100Y-103472401I0J249999D01*
G01*
X145395100Y-102572399D01*
G75*
G02*
X145645099Y-102322400I249999J0D01*
G01*
X146295101Y-102322400D01*
G75*
G02*
X146545100Y-102572399I0J-249999D01*
G01*
G37*
%TD*%
%TO.C,L54*%
G36*
G01*
X145395100Y-100932401D02*
X145395100Y-100032399D01*
G75*
G02*
X145645099Y-99782400I249999J0D01*
G01*
X146295101Y-99782400D01*
G75*
G02*
X146545100Y-100032399I0J-249999D01*
G01*
X146545100Y-100932401D01*
G75*
G02*
X146295101Y-101182400I-249999J0D01*
G01*
X145645099Y-101182400D01*
G75*
G02*
X145395100Y-100932401I0J249999D01*
G01*
G37*
G36*
G01*
X143345100Y-100932401D02*
X143345100Y-100032399D01*
G75*
G02*
X143595099Y-99782400I249999J0D01*
G01*
X144245101Y-99782400D01*
G75*
G02*
X144495100Y-100032399I0J-249999D01*
G01*
X144495100Y-100932401D01*
G75*
G02*
X144245101Y-101182400I-249999J0D01*
G01*
X143595099Y-101182400D01*
G75*
G02*
X143345100Y-100932401I0J249999D01*
G01*
G37*
%TD*%
%TO.C,L53*%
G36*
G01*
X152470700Y-88399199D02*
X152470700Y-89299201D01*
G75*
G02*
X152220701Y-89549200I-249999J0D01*
G01*
X151570699Y-89549200D01*
G75*
G02*
X151320700Y-89299201I0J249999D01*
G01*
X151320700Y-88399199D01*
G75*
G02*
X151570699Y-88149200I249999J0D01*
G01*
X152220701Y-88149200D01*
G75*
G02*
X152470700Y-88399199I0J-249999D01*
G01*
G37*
G36*
G01*
X154520700Y-88399199D02*
X154520700Y-89299201D01*
G75*
G02*
X154270701Y-89549200I-249999J0D01*
G01*
X153620699Y-89549200D01*
G75*
G02*
X153370700Y-89299201I0J249999D01*
G01*
X153370700Y-88399199D01*
G75*
G02*
X153620699Y-88149200I249999J0D01*
G01*
X154270701Y-88149200D01*
G75*
G02*
X154520700Y-88399199I0J-249999D01*
G01*
G37*
%TD*%
%TO.C,L52*%
G36*
G01*
X144495100Y-88602399D02*
X144495100Y-89502401D01*
G75*
G02*
X144245101Y-89752400I-249999J0D01*
G01*
X143595099Y-89752400D01*
G75*
G02*
X143345100Y-89502401I0J249999D01*
G01*
X143345100Y-88602399D01*
G75*
G02*
X143595099Y-88352400I249999J0D01*
G01*
X144245101Y-88352400D01*
G75*
G02*
X144495100Y-88602399I0J-249999D01*
G01*
G37*
G36*
G01*
X146545100Y-88602399D02*
X146545100Y-89502401D01*
G75*
G02*
X146295101Y-89752400I-249999J0D01*
G01*
X145645099Y-89752400D01*
G75*
G02*
X145395100Y-89502401I0J249999D01*
G01*
X145395100Y-88602399D01*
G75*
G02*
X145645099Y-88352400I249999J0D01*
G01*
X146295101Y-88352400D01*
G75*
G02*
X146545100Y-88602399I0J-249999D01*
G01*
G37*
%TD*%
%TO.C,C497*%
G36*
G01*
X145395100Y-106037400D02*
X145395100Y-105087400D01*
G75*
G02*
X145645100Y-104837400I250000J0D01*
G01*
X146320100Y-104837400D01*
G75*
G02*
X146570100Y-105087400I0J-250000D01*
G01*
X146570100Y-106037400D01*
G75*
G02*
X146320100Y-106287400I-250000J0D01*
G01*
X145645100Y-106287400D01*
G75*
G02*
X145395100Y-106037400I0J250000D01*
G01*
G37*
G36*
G01*
X143320100Y-106037400D02*
X143320100Y-105087400D01*
G75*
G02*
X143570100Y-104837400I250000J0D01*
G01*
X144245100Y-104837400D01*
G75*
G02*
X144495100Y-105087400I0J-250000D01*
G01*
X144495100Y-106037400D01*
G75*
G02*
X144245100Y-106287400I-250000J0D01*
G01*
X143570100Y-106287400D01*
G75*
G02*
X143320100Y-106037400I0J250000D01*
G01*
G37*
%TD*%
%TO.C,C496*%
G36*
G01*
X152405100Y-98127400D02*
X151455100Y-98127400D01*
G75*
G02*
X151205100Y-97877400I0J250000D01*
G01*
X151205100Y-97202400D01*
G75*
G02*
X151455100Y-96952400I250000J0D01*
G01*
X152405100Y-96952400D01*
G75*
G02*
X152655100Y-97202400I0J-250000D01*
G01*
X152655100Y-97877400D01*
G75*
G02*
X152405100Y-98127400I-250000J0D01*
G01*
G37*
G36*
G01*
X152405100Y-100202400D02*
X151455100Y-100202400D01*
G75*
G02*
X151205100Y-99952400I0J250000D01*
G01*
X151205100Y-99277400D01*
G75*
G02*
X151455100Y-99027400I250000J0D01*
G01*
X152405100Y-99027400D01*
G75*
G02*
X152655100Y-99277400I0J-250000D01*
G01*
X152655100Y-99952400D01*
G75*
G02*
X152405100Y-100202400I-250000J0D01*
G01*
G37*
%TD*%
%TO.C,C492*%
G36*
G01*
X128747100Y-105163600D02*
X128747100Y-106113600D01*
G75*
G02*
X128497100Y-106363600I-250000J0D01*
G01*
X127822100Y-106363600D01*
G75*
G02*
X127572100Y-106113600I0J250000D01*
G01*
X127572100Y-105163600D01*
G75*
G02*
X127822100Y-104913600I250000J0D01*
G01*
X128497100Y-104913600D01*
G75*
G02*
X128747100Y-105163600I0J-250000D01*
G01*
G37*
G36*
G01*
X130822100Y-105163600D02*
X130822100Y-106113600D01*
G75*
G02*
X130572100Y-106363600I-250000J0D01*
G01*
X129897100Y-106363600D01*
G75*
G02*
X129647100Y-106113600I0J250000D01*
G01*
X129647100Y-105163600D01*
G75*
G02*
X129897100Y-104913600I250000J0D01*
G01*
X130572100Y-104913600D01*
G75*
G02*
X130822100Y-105163600I0J-250000D01*
G01*
G37*
%TD*%
%TO.C,C491*%
G36*
G01*
X128772500Y-108846600D02*
X128772500Y-109796600D01*
G75*
G02*
X128522500Y-110046600I-250000J0D01*
G01*
X127847500Y-110046600D01*
G75*
G02*
X127597500Y-109796600I0J250000D01*
G01*
X127597500Y-108846600D01*
G75*
G02*
X127847500Y-108596600I250000J0D01*
G01*
X128522500Y-108596600D01*
G75*
G02*
X128772500Y-108846600I0J-250000D01*
G01*
G37*
G36*
G01*
X130847500Y-108846600D02*
X130847500Y-109796600D01*
G75*
G02*
X130597500Y-110046600I-250000J0D01*
G01*
X129922500Y-110046600D01*
G75*
G02*
X129672500Y-109796600I0J250000D01*
G01*
X129672500Y-108846600D01*
G75*
G02*
X129922500Y-108596600I250000J0D01*
G01*
X130597500Y-108596600D01*
G75*
G02*
X130847500Y-108846600I0J-250000D01*
G01*
G37*
%TD*%
%TO.C,C483*%
G36*
G01*
X157155300Y-108044000D02*
X157155300Y-107094000D01*
G75*
G02*
X157405300Y-106844000I250000J0D01*
G01*
X158080300Y-106844000D01*
G75*
G02*
X158330300Y-107094000I0J-250000D01*
G01*
X158330300Y-108044000D01*
G75*
G02*
X158080300Y-108294000I-250000J0D01*
G01*
X157405300Y-108294000D01*
G75*
G02*
X157155300Y-108044000I0J250000D01*
G01*
G37*
G36*
G01*
X155080300Y-108044000D02*
X155080300Y-107094000D01*
G75*
G02*
X155330300Y-106844000I250000J0D01*
G01*
X156005300Y-106844000D01*
G75*
G02*
X156255300Y-107094000I0J-250000D01*
G01*
X156255300Y-108044000D01*
G75*
G02*
X156005300Y-108294000I-250000J0D01*
G01*
X155330300Y-108294000D01*
G75*
G02*
X155080300Y-108044000I0J250000D01*
G01*
G37*
%TD*%
%TO.C,C482*%
G36*
G01*
X156179100Y-109735600D02*
X156179100Y-110685600D01*
G75*
G02*
X155929100Y-110935600I-250000J0D01*
G01*
X155254100Y-110935600D01*
G75*
G02*
X155004100Y-110685600I0J250000D01*
G01*
X155004100Y-109735600D01*
G75*
G02*
X155254100Y-109485600I250000J0D01*
G01*
X155929100Y-109485600D01*
G75*
G02*
X156179100Y-109735600I0J-250000D01*
G01*
G37*
G36*
G01*
X158254100Y-109735600D02*
X158254100Y-110685600D01*
G75*
G02*
X158004100Y-110935600I-250000J0D01*
G01*
X157329100Y-110935600D01*
G75*
G02*
X157079100Y-110685600I0J250000D01*
G01*
X157079100Y-109735600D01*
G75*
G02*
X157329100Y-109485600I250000J0D01*
G01*
X158004100Y-109485600D01*
G75*
G02*
X158254100Y-109735600I0J-250000D01*
G01*
G37*
%TD*%
%TO.C,C62*%
G36*
G01*
X145395100Y-98417400D02*
X145395100Y-97467400D01*
G75*
G02*
X145645100Y-97217400I250000J0D01*
G01*
X146320100Y-97217400D01*
G75*
G02*
X146570100Y-97467400I0J-250000D01*
G01*
X146570100Y-98417400D01*
G75*
G02*
X146320100Y-98667400I-250000J0D01*
G01*
X145645100Y-98667400D01*
G75*
G02*
X145395100Y-98417400I0J250000D01*
G01*
G37*
G36*
G01*
X143320100Y-98417400D02*
X143320100Y-97467400D01*
G75*
G02*
X143570100Y-97217400I250000J0D01*
G01*
X144245100Y-97217400D01*
G75*
G02*
X144495100Y-97467400I0J-250000D01*
G01*
X144495100Y-98417400D01*
G75*
G02*
X144245100Y-98667400I-250000J0D01*
G01*
X143570100Y-98667400D01*
G75*
G02*
X143320100Y-98417400I0J250000D01*
G01*
G37*
%TD*%
%TO.C,C61*%
G36*
G01*
X144495100Y-91117400D02*
X144495100Y-92067400D01*
G75*
G02*
X144245100Y-92317400I-250000J0D01*
G01*
X143570100Y-92317400D01*
G75*
G02*
X143320100Y-92067400I0J250000D01*
G01*
X143320100Y-91117400D01*
G75*
G02*
X143570100Y-90867400I250000J0D01*
G01*
X144245100Y-90867400D01*
G75*
G02*
X144495100Y-91117400I0J-250000D01*
G01*
G37*
G36*
G01*
X146570100Y-91117400D02*
X146570100Y-92067400D01*
G75*
G02*
X146320100Y-92317400I-250000J0D01*
G01*
X145645100Y-92317400D01*
G75*
G02*
X145395100Y-92067400I0J250000D01*
G01*
X145395100Y-91117400D01*
G75*
G02*
X145645100Y-90867400I250000J0D01*
G01*
X146320100Y-90867400D01*
G75*
G02*
X146570100Y-91117400I0J-250000D01*
G01*
G37*
%TD*%
%TO.C,C59*%
G36*
G01*
X145395100Y-113022400D02*
X145395100Y-112072400D01*
G75*
G02*
X145645100Y-111822400I250000J0D01*
G01*
X146320100Y-111822400D01*
G75*
G02*
X146570100Y-112072400I0J-250000D01*
G01*
X146570100Y-113022400D01*
G75*
G02*
X146320100Y-113272400I-250000J0D01*
G01*
X145645100Y-113272400D01*
G75*
G02*
X145395100Y-113022400I0J250000D01*
G01*
G37*
G36*
G01*
X143320100Y-113022400D02*
X143320100Y-112072400D01*
G75*
G02*
X143570100Y-111822400I250000J0D01*
G01*
X144245100Y-111822400D01*
G75*
G02*
X144495100Y-112072400I0J-250000D01*
G01*
X144495100Y-113022400D01*
G75*
G02*
X144245100Y-113272400I-250000J0D01*
G01*
X143570100Y-113272400D01*
G75*
G02*
X143320100Y-113022400I0J250000D01*
G01*
G37*
%TD*%
%TO.C,C58*%
G36*
G01*
X145395100Y-109212400D02*
X145395100Y-108262400D01*
G75*
G02*
X145645100Y-108012400I250000J0D01*
G01*
X146320100Y-108012400D01*
G75*
G02*
X146570100Y-108262400I0J-250000D01*
G01*
X146570100Y-109212400D01*
G75*
G02*
X146320100Y-109462400I-250000J0D01*
G01*
X145645100Y-109462400D01*
G75*
G02*
X145395100Y-109212400I0J250000D01*
G01*
G37*
G36*
G01*
X143320100Y-109212400D02*
X143320100Y-108262400D01*
G75*
G02*
X143570100Y-108012400I250000J0D01*
G01*
X144245100Y-108012400D01*
G75*
G02*
X144495100Y-108262400I0J-250000D01*
G01*
X144495100Y-109212400D01*
G75*
G02*
X144245100Y-109462400I-250000J0D01*
G01*
X143570100Y-109462400D01*
G75*
G02*
X143320100Y-109212400I0J250000D01*
G01*
G37*
%TD*%
%TO.C,C53*%
G36*
G01*
X151455100Y-92677400D02*
X152405100Y-92677400D01*
G75*
G02*
X152655100Y-92927400I0J-250000D01*
G01*
X152655100Y-93602400D01*
G75*
G02*
X152405100Y-93852400I-250000J0D01*
G01*
X151455100Y-93852400D01*
G75*
G02*
X151205100Y-93602400I0J250000D01*
G01*
X151205100Y-92927400D01*
G75*
G02*
X151455100Y-92677400I250000J0D01*
G01*
G37*
G36*
G01*
X151455100Y-90602400D02*
X152405100Y-90602400D01*
G75*
G02*
X152655100Y-90852400I0J-250000D01*
G01*
X152655100Y-91527400D01*
G75*
G02*
X152405100Y-91777400I-250000J0D01*
G01*
X151455100Y-91777400D01*
G75*
G02*
X151205100Y-91527400I0J250000D01*
G01*
X151205100Y-90852400D01*
G75*
G02*
X151455100Y-90602400I250000J0D01*
G01*
G37*
%TD*%
%TO.C,C52*%
G36*
G01*
X159075100Y-92702800D02*
X160025100Y-92702800D01*
G75*
G02*
X160275100Y-92952800I0J-250000D01*
G01*
X160275100Y-93627800D01*
G75*
G02*
X160025100Y-93877800I-250000J0D01*
G01*
X159075100Y-93877800D01*
G75*
G02*
X158825100Y-93627800I0J250000D01*
G01*
X158825100Y-92952800D01*
G75*
G02*
X159075100Y-92702800I250000J0D01*
G01*
G37*
G36*
G01*
X159075100Y-90627800D02*
X160025100Y-90627800D01*
G75*
G02*
X160275100Y-90877800I0J-250000D01*
G01*
X160275100Y-91552800D01*
G75*
G02*
X160025100Y-91802800I-250000J0D01*
G01*
X159075100Y-91802800D01*
G75*
G02*
X158825100Y-91552800I0J250000D01*
G01*
X158825100Y-90877800D01*
G75*
G02*
X159075100Y-90627800I250000J0D01*
G01*
G37*
%TD*%
%TO.C,C51*%
G36*
G01*
X155290500Y-92626600D02*
X156240500Y-92626600D01*
G75*
G02*
X156490500Y-92876600I0J-250000D01*
G01*
X156490500Y-93551600D01*
G75*
G02*
X156240500Y-93801600I-250000J0D01*
G01*
X155290500Y-93801600D01*
G75*
G02*
X155040500Y-93551600I0J250000D01*
G01*
X155040500Y-92876600D01*
G75*
G02*
X155290500Y-92626600I250000J0D01*
G01*
G37*
G36*
G01*
X155290500Y-90551600D02*
X156240500Y-90551600D01*
G75*
G02*
X156490500Y-90801600I0J-250000D01*
G01*
X156490500Y-91476600D01*
G75*
G02*
X156240500Y-91726600I-250000J0D01*
G01*
X155290500Y-91726600D01*
G75*
G02*
X155040500Y-91476600I0J250000D01*
G01*
X155040500Y-90801600D01*
G75*
G02*
X155290500Y-90551600I250000J0D01*
G01*
G37*
%TD*%
%TO.C,C36*%
G36*
G01*
X132059700Y-118345800D02*
X131109700Y-118345800D01*
G75*
G02*
X130859700Y-118095800I0J250000D01*
G01*
X130859700Y-117420800D01*
G75*
G02*
X131109700Y-117170800I250000J0D01*
G01*
X132059700Y-117170800D01*
G75*
G02*
X132309700Y-117420800I0J-250000D01*
G01*
X132309700Y-118095800D01*
G75*
G02*
X132059700Y-118345800I-250000J0D01*
G01*
G37*
G36*
G01*
X132059700Y-120420800D02*
X131109700Y-120420800D01*
G75*
G02*
X130859700Y-120170800I0J250000D01*
G01*
X130859700Y-119495800D01*
G75*
G02*
X131109700Y-119245800I250000J0D01*
G01*
X132059700Y-119245800D01*
G75*
G02*
X132309700Y-119495800I0J-250000D01*
G01*
X132309700Y-120170800D01*
G75*
G02*
X132059700Y-120420800I-250000J0D01*
G01*
G37*
%TD*%
D14*
%TO.C,AE5*%
X152465300Y-125722400D03*
D15*
X150990300Y-124197400D03*
D14*
X149515300Y-125722400D03*
%TD*%
%TO.C,AE4*%
X159780500Y-125646200D03*
D15*
X158305500Y-124121200D03*
D14*
X156830500Y-125646200D03*
%TD*%
%TO.C,AE3*%
X145251700Y-125773200D03*
D15*
X143776700Y-124248200D03*
D14*
X142301700Y-125773200D03*
%TD*%
%TO.C,AE2*%
X138038100Y-126001800D03*
D15*
X136563100Y-124476800D03*
D14*
X135088100Y-126001800D03*
%TD*%
%TO.C,AE1*%
X130773700Y-126179600D03*
D15*
X129298700Y-124654600D03*
D14*
X127823700Y-126179600D03*
%TD*%
%TO.C,U1*%
G36*
G01*
X138656800Y-79354400D02*
X137906800Y-79354400D01*
G75*
G02*
X137844300Y-79291900I0J62500D01*
G01*
X137844300Y-79166900D01*
G75*
G02*
X137906800Y-79104400I62500J0D01*
G01*
X138656800Y-79104400D01*
G75*
G02*
X138719300Y-79166900I0J-62500D01*
G01*
X138719300Y-79291900D01*
G75*
G02*
X138656800Y-79354400I-62500J0D01*
G01*
G37*
G36*
G01*
X138656800Y-78854400D02*
X137906800Y-78854400D01*
G75*
G02*
X137844300Y-78791900I0J62500D01*
G01*
X137844300Y-78666900D01*
G75*
G02*
X137906800Y-78604400I62500J0D01*
G01*
X138656800Y-78604400D01*
G75*
G02*
X138719300Y-78666900I0J-62500D01*
G01*
X138719300Y-78791900D01*
G75*
G02*
X138656800Y-78854400I-62500J0D01*
G01*
G37*
G36*
G01*
X138656800Y-78354400D02*
X137906800Y-78354400D01*
G75*
G02*
X137844300Y-78291900I0J62500D01*
G01*
X137844300Y-78166900D01*
G75*
G02*
X137906800Y-78104400I62500J0D01*
G01*
X138656800Y-78104400D01*
G75*
G02*
X138719300Y-78166900I0J-62500D01*
G01*
X138719300Y-78291900D01*
G75*
G02*
X138656800Y-78354400I-62500J0D01*
G01*
G37*
G36*
G01*
X138656800Y-77854400D02*
X137906800Y-77854400D01*
G75*
G02*
X137844300Y-77791900I0J62500D01*
G01*
X137844300Y-77666900D01*
G75*
G02*
X137906800Y-77604400I62500J0D01*
G01*
X138656800Y-77604400D01*
G75*
G02*
X138719300Y-77666900I0J-62500D01*
G01*
X138719300Y-77791900D01*
G75*
G02*
X138656800Y-77854400I-62500J0D01*
G01*
G37*
G36*
G01*
X138656800Y-77354400D02*
X137906800Y-77354400D01*
G75*
G02*
X137844300Y-77291900I0J62500D01*
G01*
X137844300Y-77166900D01*
G75*
G02*
X137906800Y-77104400I62500J0D01*
G01*
X138656800Y-77104400D01*
G75*
G02*
X138719300Y-77166900I0J-62500D01*
G01*
X138719300Y-77291900D01*
G75*
G02*
X138656800Y-77354400I-62500J0D01*
G01*
G37*
G36*
G01*
X138656800Y-76854400D02*
X137906800Y-76854400D01*
G75*
G02*
X137844300Y-76791900I0J62500D01*
G01*
X137844300Y-76666900D01*
G75*
G02*
X137906800Y-76604400I62500J0D01*
G01*
X138656800Y-76604400D01*
G75*
G02*
X138719300Y-76666900I0J-62500D01*
G01*
X138719300Y-76791900D01*
G75*
G02*
X138656800Y-76854400I-62500J0D01*
G01*
G37*
G36*
G01*
X138656800Y-76354400D02*
X137906800Y-76354400D01*
G75*
G02*
X137844300Y-76291900I0J62500D01*
G01*
X137844300Y-76166900D01*
G75*
G02*
X137906800Y-76104400I62500J0D01*
G01*
X138656800Y-76104400D01*
G75*
G02*
X138719300Y-76166900I0J-62500D01*
G01*
X138719300Y-76291900D01*
G75*
G02*
X138656800Y-76354400I-62500J0D01*
G01*
G37*
G36*
G01*
X138656800Y-75854400D02*
X137906800Y-75854400D01*
G75*
G02*
X137844300Y-75791900I0J62500D01*
G01*
X137844300Y-75666900D01*
G75*
G02*
X137906800Y-75604400I62500J0D01*
G01*
X138656800Y-75604400D01*
G75*
G02*
X138719300Y-75666900I0J-62500D01*
G01*
X138719300Y-75791900D01*
G75*
G02*
X138656800Y-75854400I-62500J0D01*
G01*
G37*
G36*
G01*
X138656800Y-75354400D02*
X137906800Y-75354400D01*
G75*
G02*
X137844300Y-75291900I0J62500D01*
G01*
X137844300Y-75166900D01*
G75*
G02*
X137906800Y-75104400I62500J0D01*
G01*
X138656800Y-75104400D01*
G75*
G02*
X138719300Y-75166900I0J-62500D01*
G01*
X138719300Y-75291900D01*
G75*
G02*
X138656800Y-75354400I-62500J0D01*
G01*
G37*
G36*
G01*
X138656800Y-74854400D02*
X137906800Y-74854400D01*
G75*
G02*
X137844300Y-74791900I0J62500D01*
G01*
X137844300Y-74666900D01*
G75*
G02*
X137906800Y-74604400I62500J0D01*
G01*
X138656800Y-74604400D01*
G75*
G02*
X138719300Y-74666900I0J-62500D01*
G01*
X138719300Y-74791900D01*
G75*
G02*
X138656800Y-74854400I-62500J0D01*
G01*
G37*
G36*
G01*
X138656800Y-74354400D02*
X137906800Y-74354400D01*
G75*
G02*
X137844300Y-74291900I0J62500D01*
G01*
X137844300Y-74166900D01*
G75*
G02*
X137906800Y-74104400I62500J0D01*
G01*
X138656800Y-74104400D01*
G75*
G02*
X138719300Y-74166900I0J-62500D01*
G01*
X138719300Y-74291900D01*
G75*
G02*
X138656800Y-74354400I-62500J0D01*
G01*
G37*
G36*
G01*
X138656800Y-73854400D02*
X137906800Y-73854400D01*
G75*
G02*
X137844300Y-73791900I0J62500D01*
G01*
X137844300Y-73666900D01*
G75*
G02*
X137906800Y-73604400I62500J0D01*
G01*
X138656800Y-73604400D01*
G75*
G02*
X138719300Y-73666900I0J-62500D01*
G01*
X138719300Y-73791900D01*
G75*
G02*
X138656800Y-73854400I-62500J0D01*
G01*
G37*
G36*
G01*
X139031800Y-73479400D02*
X138906800Y-73479400D01*
G75*
G02*
X138844300Y-73416900I0J62500D01*
G01*
X138844300Y-72666900D01*
G75*
G02*
X138906800Y-72604400I62500J0D01*
G01*
X139031800Y-72604400D01*
G75*
G02*
X139094300Y-72666900I0J-62500D01*
G01*
X139094300Y-73416900D01*
G75*
G02*
X139031800Y-73479400I-62500J0D01*
G01*
G37*
G36*
G01*
X139531800Y-73479400D02*
X139406800Y-73479400D01*
G75*
G02*
X139344300Y-73416900I0J62500D01*
G01*
X139344300Y-72666900D01*
G75*
G02*
X139406800Y-72604400I62500J0D01*
G01*
X139531800Y-72604400D01*
G75*
G02*
X139594300Y-72666900I0J-62500D01*
G01*
X139594300Y-73416900D01*
G75*
G02*
X139531800Y-73479400I-62500J0D01*
G01*
G37*
G36*
G01*
X140031800Y-73479400D02*
X139906800Y-73479400D01*
G75*
G02*
X139844300Y-73416900I0J62500D01*
G01*
X139844300Y-72666900D01*
G75*
G02*
X139906800Y-72604400I62500J0D01*
G01*
X140031800Y-72604400D01*
G75*
G02*
X140094300Y-72666900I0J-62500D01*
G01*
X140094300Y-73416900D01*
G75*
G02*
X140031800Y-73479400I-62500J0D01*
G01*
G37*
G36*
G01*
X140531800Y-73479400D02*
X140406800Y-73479400D01*
G75*
G02*
X140344300Y-73416900I0J62500D01*
G01*
X140344300Y-72666900D01*
G75*
G02*
X140406800Y-72604400I62500J0D01*
G01*
X140531800Y-72604400D01*
G75*
G02*
X140594300Y-72666900I0J-62500D01*
G01*
X140594300Y-73416900D01*
G75*
G02*
X140531800Y-73479400I-62500J0D01*
G01*
G37*
G36*
G01*
X141031800Y-73479400D02*
X140906800Y-73479400D01*
G75*
G02*
X140844300Y-73416900I0J62500D01*
G01*
X140844300Y-72666900D01*
G75*
G02*
X140906800Y-72604400I62500J0D01*
G01*
X141031800Y-72604400D01*
G75*
G02*
X141094300Y-72666900I0J-62500D01*
G01*
X141094300Y-73416900D01*
G75*
G02*
X141031800Y-73479400I-62500J0D01*
G01*
G37*
G36*
G01*
X141531800Y-73479400D02*
X141406800Y-73479400D01*
G75*
G02*
X141344300Y-73416900I0J62500D01*
G01*
X141344300Y-72666900D01*
G75*
G02*
X141406800Y-72604400I62500J0D01*
G01*
X141531800Y-72604400D01*
G75*
G02*
X141594300Y-72666900I0J-62500D01*
G01*
X141594300Y-73416900D01*
G75*
G02*
X141531800Y-73479400I-62500J0D01*
G01*
G37*
G36*
G01*
X142031800Y-73479400D02*
X141906800Y-73479400D01*
G75*
G02*
X141844300Y-73416900I0J62500D01*
G01*
X141844300Y-72666900D01*
G75*
G02*
X141906800Y-72604400I62500J0D01*
G01*
X142031800Y-72604400D01*
G75*
G02*
X142094300Y-72666900I0J-62500D01*
G01*
X142094300Y-73416900D01*
G75*
G02*
X142031800Y-73479400I-62500J0D01*
G01*
G37*
G36*
G01*
X142531800Y-73479400D02*
X142406800Y-73479400D01*
G75*
G02*
X142344300Y-73416900I0J62500D01*
G01*
X142344300Y-72666900D01*
G75*
G02*
X142406800Y-72604400I62500J0D01*
G01*
X142531800Y-72604400D01*
G75*
G02*
X142594300Y-72666900I0J-62500D01*
G01*
X142594300Y-73416900D01*
G75*
G02*
X142531800Y-73479400I-62500J0D01*
G01*
G37*
G36*
G01*
X143031800Y-73479400D02*
X142906800Y-73479400D01*
G75*
G02*
X142844300Y-73416900I0J62500D01*
G01*
X142844300Y-72666900D01*
G75*
G02*
X142906800Y-72604400I62500J0D01*
G01*
X143031800Y-72604400D01*
G75*
G02*
X143094300Y-72666900I0J-62500D01*
G01*
X143094300Y-73416900D01*
G75*
G02*
X143031800Y-73479400I-62500J0D01*
G01*
G37*
G36*
G01*
X143531800Y-73479400D02*
X143406800Y-73479400D01*
G75*
G02*
X143344300Y-73416900I0J62500D01*
G01*
X143344300Y-72666900D01*
G75*
G02*
X143406800Y-72604400I62500J0D01*
G01*
X143531800Y-72604400D01*
G75*
G02*
X143594300Y-72666900I0J-62500D01*
G01*
X143594300Y-73416900D01*
G75*
G02*
X143531800Y-73479400I-62500J0D01*
G01*
G37*
G36*
G01*
X144031800Y-73479400D02*
X143906800Y-73479400D01*
G75*
G02*
X143844300Y-73416900I0J62500D01*
G01*
X143844300Y-72666900D01*
G75*
G02*
X143906800Y-72604400I62500J0D01*
G01*
X144031800Y-72604400D01*
G75*
G02*
X144094300Y-72666900I0J-62500D01*
G01*
X144094300Y-73416900D01*
G75*
G02*
X144031800Y-73479400I-62500J0D01*
G01*
G37*
G36*
G01*
X144531800Y-73479400D02*
X144406800Y-73479400D01*
G75*
G02*
X144344300Y-73416900I0J62500D01*
G01*
X144344300Y-72666900D01*
G75*
G02*
X144406800Y-72604400I62500J0D01*
G01*
X144531800Y-72604400D01*
G75*
G02*
X144594300Y-72666900I0J-62500D01*
G01*
X144594300Y-73416900D01*
G75*
G02*
X144531800Y-73479400I-62500J0D01*
G01*
G37*
G36*
G01*
X145531800Y-73854400D02*
X144781800Y-73854400D01*
G75*
G02*
X144719300Y-73791900I0J62500D01*
G01*
X144719300Y-73666900D01*
G75*
G02*
X144781800Y-73604400I62500J0D01*
G01*
X145531800Y-73604400D01*
G75*
G02*
X145594300Y-73666900I0J-62500D01*
G01*
X145594300Y-73791900D01*
G75*
G02*
X145531800Y-73854400I-62500J0D01*
G01*
G37*
G36*
G01*
X145531800Y-74354400D02*
X144781800Y-74354400D01*
G75*
G02*
X144719300Y-74291900I0J62500D01*
G01*
X144719300Y-74166900D01*
G75*
G02*
X144781800Y-74104400I62500J0D01*
G01*
X145531800Y-74104400D01*
G75*
G02*
X145594300Y-74166900I0J-62500D01*
G01*
X145594300Y-74291900D01*
G75*
G02*
X145531800Y-74354400I-62500J0D01*
G01*
G37*
G36*
G01*
X145531800Y-74854400D02*
X144781800Y-74854400D01*
G75*
G02*
X144719300Y-74791900I0J62500D01*
G01*
X144719300Y-74666900D01*
G75*
G02*
X144781800Y-74604400I62500J0D01*
G01*
X145531800Y-74604400D01*
G75*
G02*
X145594300Y-74666900I0J-62500D01*
G01*
X145594300Y-74791900D01*
G75*
G02*
X145531800Y-74854400I-62500J0D01*
G01*
G37*
G36*
G01*
X145531800Y-75354400D02*
X144781800Y-75354400D01*
G75*
G02*
X144719300Y-75291900I0J62500D01*
G01*
X144719300Y-75166900D01*
G75*
G02*
X144781800Y-75104400I62500J0D01*
G01*
X145531800Y-75104400D01*
G75*
G02*
X145594300Y-75166900I0J-62500D01*
G01*
X145594300Y-75291900D01*
G75*
G02*
X145531800Y-75354400I-62500J0D01*
G01*
G37*
G36*
G01*
X145531800Y-75854400D02*
X144781800Y-75854400D01*
G75*
G02*
X144719300Y-75791900I0J62500D01*
G01*
X144719300Y-75666900D01*
G75*
G02*
X144781800Y-75604400I62500J0D01*
G01*
X145531800Y-75604400D01*
G75*
G02*
X145594300Y-75666900I0J-62500D01*
G01*
X145594300Y-75791900D01*
G75*
G02*
X145531800Y-75854400I-62500J0D01*
G01*
G37*
G36*
G01*
X145531800Y-76354400D02*
X144781800Y-76354400D01*
G75*
G02*
X144719300Y-76291900I0J62500D01*
G01*
X144719300Y-76166900D01*
G75*
G02*
X144781800Y-76104400I62500J0D01*
G01*
X145531800Y-76104400D01*
G75*
G02*
X145594300Y-76166900I0J-62500D01*
G01*
X145594300Y-76291900D01*
G75*
G02*
X145531800Y-76354400I-62500J0D01*
G01*
G37*
G36*
G01*
X145531800Y-76854400D02*
X144781800Y-76854400D01*
G75*
G02*
X144719300Y-76791900I0J62500D01*
G01*
X144719300Y-76666900D01*
G75*
G02*
X144781800Y-76604400I62500J0D01*
G01*
X145531800Y-76604400D01*
G75*
G02*
X145594300Y-76666900I0J-62500D01*
G01*
X145594300Y-76791900D01*
G75*
G02*
X145531800Y-76854400I-62500J0D01*
G01*
G37*
G36*
G01*
X145531800Y-77354400D02*
X144781800Y-77354400D01*
G75*
G02*
X144719300Y-77291900I0J62500D01*
G01*
X144719300Y-77166900D01*
G75*
G02*
X144781800Y-77104400I62500J0D01*
G01*
X145531800Y-77104400D01*
G75*
G02*
X145594300Y-77166900I0J-62500D01*
G01*
X145594300Y-77291900D01*
G75*
G02*
X145531800Y-77354400I-62500J0D01*
G01*
G37*
G36*
G01*
X145531800Y-77854400D02*
X144781800Y-77854400D01*
G75*
G02*
X144719300Y-77791900I0J62500D01*
G01*
X144719300Y-77666900D01*
G75*
G02*
X144781800Y-77604400I62500J0D01*
G01*
X145531800Y-77604400D01*
G75*
G02*
X145594300Y-77666900I0J-62500D01*
G01*
X145594300Y-77791900D01*
G75*
G02*
X145531800Y-77854400I-62500J0D01*
G01*
G37*
G36*
G01*
X145531800Y-78354400D02*
X144781800Y-78354400D01*
G75*
G02*
X144719300Y-78291900I0J62500D01*
G01*
X144719300Y-78166900D01*
G75*
G02*
X144781800Y-78104400I62500J0D01*
G01*
X145531800Y-78104400D01*
G75*
G02*
X145594300Y-78166900I0J-62500D01*
G01*
X145594300Y-78291900D01*
G75*
G02*
X145531800Y-78354400I-62500J0D01*
G01*
G37*
G36*
G01*
X145531800Y-78854400D02*
X144781800Y-78854400D01*
G75*
G02*
X144719300Y-78791900I0J62500D01*
G01*
X144719300Y-78666900D01*
G75*
G02*
X144781800Y-78604400I62500J0D01*
G01*
X145531800Y-78604400D01*
G75*
G02*
X145594300Y-78666900I0J-62500D01*
G01*
X145594300Y-78791900D01*
G75*
G02*
X145531800Y-78854400I-62500J0D01*
G01*
G37*
G36*
G01*
X145531800Y-79354400D02*
X144781800Y-79354400D01*
G75*
G02*
X144719300Y-79291900I0J62500D01*
G01*
X144719300Y-79166900D01*
G75*
G02*
X144781800Y-79104400I62500J0D01*
G01*
X145531800Y-79104400D01*
G75*
G02*
X145594300Y-79166900I0J-62500D01*
G01*
X145594300Y-79291900D01*
G75*
G02*
X145531800Y-79354400I-62500J0D01*
G01*
G37*
G36*
G01*
X144531800Y-80354400D02*
X144406800Y-80354400D01*
G75*
G02*
X144344300Y-80291900I0J62500D01*
G01*
X144344300Y-79541900D01*
G75*
G02*
X144406800Y-79479400I62500J0D01*
G01*
X144531800Y-79479400D01*
G75*
G02*
X144594300Y-79541900I0J-62500D01*
G01*
X144594300Y-80291900D01*
G75*
G02*
X144531800Y-80354400I-62500J0D01*
G01*
G37*
G36*
G01*
X144031800Y-80354400D02*
X143906800Y-80354400D01*
G75*
G02*
X143844300Y-80291900I0J62500D01*
G01*
X143844300Y-79541900D01*
G75*
G02*
X143906800Y-79479400I62500J0D01*
G01*
X144031800Y-79479400D01*
G75*
G02*
X144094300Y-79541900I0J-62500D01*
G01*
X144094300Y-80291900D01*
G75*
G02*
X144031800Y-80354400I-62500J0D01*
G01*
G37*
G36*
G01*
X143531800Y-80354400D02*
X143406800Y-80354400D01*
G75*
G02*
X143344300Y-80291900I0J62500D01*
G01*
X143344300Y-79541900D01*
G75*
G02*
X143406800Y-79479400I62500J0D01*
G01*
X143531800Y-79479400D01*
G75*
G02*
X143594300Y-79541900I0J-62500D01*
G01*
X143594300Y-80291900D01*
G75*
G02*
X143531800Y-80354400I-62500J0D01*
G01*
G37*
G36*
G01*
X143031800Y-80354400D02*
X142906800Y-80354400D01*
G75*
G02*
X142844300Y-80291900I0J62500D01*
G01*
X142844300Y-79541900D01*
G75*
G02*
X142906800Y-79479400I62500J0D01*
G01*
X143031800Y-79479400D01*
G75*
G02*
X143094300Y-79541900I0J-62500D01*
G01*
X143094300Y-80291900D01*
G75*
G02*
X143031800Y-80354400I-62500J0D01*
G01*
G37*
G36*
G01*
X142531800Y-80354400D02*
X142406800Y-80354400D01*
G75*
G02*
X142344300Y-80291900I0J62500D01*
G01*
X142344300Y-79541900D01*
G75*
G02*
X142406800Y-79479400I62500J0D01*
G01*
X142531800Y-79479400D01*
G75*
G02*
X142594300Y-79541900I0J-62500D01*
G01*
X142594300Y-80291900D01*
G75*
G02*
X142531800Y-80354400I-62500J0D01*
G01*
G37*
G36*
G01*
X142031800Y-80354400D02*
X141906800Y-80354400D01*
G75*
G02*
X141844300Y-80291900I0J62500D01*
G01*
X141844300Y-79541900D01*
G75*
G02*
X141906800Y-79479400I62500J0D01*
G01*
X142031800Y-79479400D01*
G75*
G02*
X142094300Y-79541900I0J-62500D01*
G01*
X142094300Y-80291900D01*
G75*
G02*
X142031800Y-80354400I-62500J0D01*
G01*
G37*
G36*
G01*
X141531800Y-80354400D02*
X141406800Y-80354400D01*
G75*
G02*
X141344300Y-80291900I0J62500D01*
G01*
X141344300Y-79541900D01*
G75*
G02*
X141406800Y-79479400I62500J0D01*
G01*
X141531800Y-79479400D01*
G75*
G02*
X141594300Y-79541900I0J-62500D01*
G01*
X141594300Y-80291900D01*
G75*
G02*
X141531800Y-80354400I-62500J0D01*
G01*
G37*
G36*
G01*
X141031800Y-80354400D02*
X140906800Y-80354400D01*
G75*
G02*
X140844300Y-80291900I0J62500D01*
G01*
X140844300Y-79541900D01*
G75*
G02*
X140906800Y-79479400I62500J0D01*
G01*
X141031800Y-79479400D01*
G75*
G02*
X141094300Y-79541900I0J-62500D01*
G01*
X141094300Y-80291900D01*
G75*
G02*
X141031800Y-80354400I-62500J0D01*
G01*
G37*
G36*
G01*
X140531800Y-80354400D02*
X140406800Y-80354400D01*
G75*
G02*
X140344300Y-80291900I0J62500D01*
G01*
X140344300Y-79541900D01*
G75*
G02*
X140406800Y-79479400I62500J0D01*
G01*
X140531800Y-79479400D01*
G75*
G02*
X140594300Y-79541900I0J-62500D01*
G01*
X140594300Y-80291900D01*
G75*
G02*
X140531800Y-80354400I-62500J0D01*
G01*
G37*
G36*
G01*
X140031800Y-80354400D02*
X139906800Y-80354400D01*
G75*
G02*
X139844300Y-80291900I0J62500D01*
G01*
X139844300Y-79541900D01*
G75*
G02*
X139906800Y-79479400I62500J0D01*
G01*
X140031800Y-79479400D01*
G75*
G02*
X140094300Y-79541900I0J-62500D01*
G01*
X140094300Y-80291900D01*
G75*
G02*
X140031800Y-80354400I-62500J0D01*
G01*
G37*
G36*
G01*
X139531800Y-80354400D02*
X139406800Y-80354400D01*
G75*
G02*
X139344300Y-80291900I0J62500D01*
G01*
X139344300Y-79541900D01*
G75*
G02*
X139406800Y-79479400I62500J0D01*
G01*
X139531800Y-79479400D01*
G75*
G02*
X139594300Y-79541900I0J-62500D01*
G01*
X139594300Y-80291900D01*
G75*
G02*
X139531800Y-80354400I-62500J0D01*
G01*
G37*
G36*
G01*
X139031800Y-80354400D02*
X138906800Y-80354400D01*
G75*
G02*
X138844300Y-80291900I0J62500D01*
G01*
X138844300Y-79541900D01*
G75*
G02*
X138906800Y-79479400I62500J0D01*
G01*
X139031800Y-79479400D01*
G75*
G02*
X139094300Y-79541900I0J-62500D01*
G01*
X139094300Y-80291900D01*
G75*
G02*
X139031800Y-80354400I-62500J0D01*
G01*
G37*
G36*
G01*
X143799301Y-76229400D02*
X142219299Y-76229400D01*
G75*
G02*
X141969300Y-75979401I0J249999D01*
G01*
X141969300Y-74399399D01*
G75*
G02*
X142219299Y-74149400I249999J0D01*
G01*
X143799301Y-74149400D01*
G75*
G02*
X144049300Y-74399399I0J-249999D01*
G01*
X144049300Y-75979401D01*
G75*
G02*
X143799301Y-76229400I-249999J0D01*
G01*
G37*
G36*
G01*
X141219301Y-76229400D02*
X139639299Y-76229400D01*
G75*
G02*
X139389300Y-75979401I0J249999D01*
G01*
X139389300Y-74399399D01*
G75*
G02*
X139639299Y-74149400I249999J0D01*
G01*
X141219301Y-74149400D01*
G75*
G02*
X141469300Y-74399399I0J-249999D01*
G01*
X141469300Y-75979401D01*
G75*
G02*
X141219301Y-76229400I-249999J0D01*
G01*
G37*
G36*
G01*
X143799301Y-78809400D02*
X142219299Y-78809400D01*
G75*
G02*
X141969300Y-78559401I0J249999D01*
G01*
X141969300Y-76979399D01*
G75*
G02*
X142219299Y-76729400I249999J0D01*
G01*
X143799301Y-76729400D01*
G75*
G02*
X144049300Y-76979399I0J-249999D01*
G01*
X144049300Y-78559401D01*
G75*
G02*
X143799301Y-78809400I-249999J0D01*
G01*
G37*
G36*
G01*
X141219301Y-78809400D02*
X139639299Y-78809400D01*
G75*
G02*
X139389300Y-78559401I0J249999D01*
G01*
X139389300Y-76979399D01*
G75*
G02*
X139639299Y-76729400I249999J0D01*
G01*
X141219301Y-76729400D01*
G75*
G02*
X141469300Y-76979399I0J-249999D01*
G01*
X141469300Y-78559401D01*
G75*
G02*
X141219301Y-78809400I-249999J0D01*
G01*
G37*
%TD*%
%TO.C,L340*%
G36*
G01*
X132430099Y-93312400D02*
X133330101Y-93312400D01*
G75*
G02*
X133580100Y-93562399I0J-249999D01*
G01*
X133580100Y-94212401D01*
G75*
G02*
X133330101Y-94462400I-249999J0D01*
G01*
X132430099Y-94462400D01*
G75*
G02*
X132180100Y-94212401I0J249999D01*
G01*
X132180100Y-93562399D01*
G75*
G02*
X132430099Y-93312400I249999J0D01*
G01*
G37*
G36*
G01*
X132430099Y-91262400D02*
X133330101Y-91262400D01*
G75*
G02*
X133580100Y-91512399I0J-249999D01*
G01*
X133580100Y-92162401D01*
G75*
G02*
X133330101Y-92412400I-249999J0D01*
G01*
X132430099Y-92412400D01*
G75*
G02*
X132180100Y-92162401I0J249999D01*
G01*
X132180100Y-91512399D01*
G75*
G02*
X132430099Y-91262400I249999J0D01*
G01*
G37*
%TD*%
%TO.C,L339*%
G36*
G01*
X134970100Y-100032399D02*
X134970100Y-100932401D01*
G75*
G02*
X134720101Y-101182400I-249999J0D01*
G01*
X134070099Y-101182400D01*
G75*
G02*
X133820100Y-100932401I0J249999D01*
G01*
X133820100Y-100032399D01*
G75*
G02*
X134070099Y-99782400I249999J0D01*
G01*
X134720101Y-99782400D01*
G75*
G02*
X134970100Y-100032399I0J-249999D01*
G01*
G37*
G36*
G01*
X137020100Y-100032399D02*
X137020100Y-100932401D01*
G75*
G02*
X136770101Y-101182400I-249999J0D01*
G01*
X136120099Y-101182400D01*
G75*
G02*
X135870100Y-100932401I0J249999D01*
G01*
X135870100Y-100032399D01*
G75*
G02*
X136120099Y-99782400I249999J0D01*
G01*
X136770101Y-99782400D01*
G75*
G02*
X137020100Y-100032399I0J-249999D01*
G01*
G37*
%TD*%
%TO.C,L338*%
G36*
G01*
X136240099Y-93312400D02*
X137140101Y-93312400D01*
G75*
G02*
X137390100Y-93562399I0J-249999D01*
G01*
X137390100Y-94212401D01*
G75*
G02*
X137140101Y-94462400I-249999J0D01*
G01*
X136240099Y-94462400D01*
G75*
G02*
X135990100Y-94212401I0J249999D01*
G01*
X135990100Y-93562399D01*
G75*
G02*
X136240099Y-93312400I249999J0D01*
G01*
G37*
G36*
G01*
X136240099Y-91262400D02*
X137140101Y-91262400D01*
G75*
G02*
X137390100Y-91512399I0J-249999D01*
G01*
X137390100Y-92162401D01*
G75*
G02*
X137140101Y-92412400I-249999J0D01*
G01*
X136240099Y-92412400D01*
G75*
G02*
X135990100Y-92162401I0J249999D01*
G01*
X135990100Y-91512399D01*
G75*
G02*
X136240099Y-91262400I249999J0D01*
G01*
G37*
%TD*%
%TO.C,L337*%
G36*
G01*
X134970100Y-115272399D02*
X134970100Y-116172401D01*
G75*
G02*
X134720101Y-116422400I-249999J0D01*
G01*
X134070099Y-116422400D01*
G75*
G02*
X133820100Y-116172401I0J249999D01*
G01*
X133820100Y-115272399D01*
G75*
G02*
X134070099Y-115022400I249999J0D01*
G01*
X134720101Y-115022400D01*
G75*
G02*
X134970100Y-115272399I0J-249999D01*
G01*
G37*
G36*
G01*
X137020100Y-115272399D02*
X137020100Y-116172401D01*
G75*
G02*
X136770101Y-116422400I-249999J0D01*
G01*
X136120099Y-116422400D01*
G75*
G02*
X135870100Y-116172401I0J249999D01*
G01*
X135870100Y-115272399D01*
G75*
G02*
X136120099Y-115022400I249999J0D01*
G01*
X136770101Y-115022400D01*
G75*
G02*
X137020100Y-115272399I0J-249999D01*
G01*
G37*
%TD*%
%TO.C,L336*%
G36*
G01*
X134970100Y-107652399D02*
X134970100Y-108552401D01*
G75*
G02*
X134720101Y-108802400I-249999J0D01*
G01*
X134070099Y-108802400D01*
G75*
G02*
X133820100Y-108552401I0J249999D01*
G01*
X133820100Y-107652399D01*
G75*
G02*
X134070099Y-107402400I249999J0D01*
G01*
X134720101Y-107402400D01*
G75*
G02*
X134970100Y-107652399I0J-249999D01*
G01*
G37*
G36*
G01*
X137020100Y-107652399D02*
X137020100Y-108552401D01*
G75*
G02*
X136770101Y-108802400I-249999J0D01*
G01*
X136120099Y-108802400D01*
G75*
G02*
X135870100Y-108552401I0J249999D01*
G01*
X135870100Y-107652399D01*
G75*
G02*
X136120099Y-107402400I249999J0D01*
G01*
X136770101Y-107402400D01*
G75*
G02*
X137020100Y-107652399I0J-249999D01*
G01*
G37*
%TD*%
%TO.C,L22*%
G36*
G01*
X129520100Y-92042401D02*
X129520100Y-91142399D01*
G75*
G02*
X129770099Y-90892400I249999J0D01*
G01*
X130420101Y-90892400D01*
G75*
G02*
X130670100Y-91142399I0J-249999D01*
G01*
X130670100Y-92042401D01*
G75*
G02*
X130420101Y-92292400I-249999J0D01*
G01*
X129770099Y-92292400D01*
G75*
G02*
X129520100Y-92042401I0J249999D01*
G01*
G37*
G36*
G01*
X127470100Y-92042401D02*
X127470100Y-91142399D01*
G75*
G02*
X127720099Y-90892400I249999J0D01*
G01*
X128370101Y-90892400D01*
G75*
G02*
X128620100Y-91142399I0J-249999D01*
G01*
X128620100Y-92042401D01*
G75*
G02*
X128370101Y-92292400I-249999J0D01*
G01*
X127720099Y-92292400D01*
G75*
G02*
X127470100Y-92042401I0J249999D01*
G01*
G37*
%TD*%
%TO.C,L21*%
G36*
G01*
X128620100Y-88602399D02*
X128620100Y-89502401D01*
G75*
G02*
X128370101Y-89752400I-249999J0D01*
G01*
X127720099Y-89752400D01*
G75*
G02*
X127470100Y-89502401I0J249999D01*
G01*
X127470100Y-88602399D01*
G75*
G02*
X127720099Y-88352400I249999J0D01*
G01*
X128370101Y-88352400D01*
G75*
G02*
X128620100Y-88602399I0J-249999D01*
G01*
G37*
G36*
G01*
X130670100Y-88602399D02*
X130670100Y-89502401D01*
G75*
G02*
X130420101Y-89752400I-249999J0D01*
G01*
X129770099Y-89752400D01*
G75*
G02*
X129520100Y-89502401I0J249999D01*
G01*
X129520100Y-88602399D01*
G75*
G02*
X129770099Y-88352400I249999J0D01*
G01*
X130420101Y-88352400D01*
G75*
G02*
X130670100Y-88602399I0J-249999D01*
G01*
G37*
%TD*%
%TO.C,L14*%
G36*
G01*
X128620100Y-101302399D02*
X128620100Y-102202401D01*
G75*
G02*
X128370101Y-102452400I-249999J0D01*
G01*
X127720099Y-102452400D01*
G75*
G02*
X127470100Y-102202401I0J249999D01*
G01*
X127470100Y-101302399D01*
G75*
G02*
X127720099Y-101052400I249999J0D01*
G01*
X128370101Y-101052400D01*
G75*
G02*
X128620100Y-101302399I0J-249999D01*
G01*
G37*
G36*
G01*
X130670100Y-101302399D02*
X130670100Y-102202401D01*
G75*
G02*
X130420101Y-102452400I-249999J0D01*
G01*
X129770099Y-102452400D01*
G75*
G02*
X129520100Y-102202401I0J249999D01*
G01*
X129520100Y-101302399D01*
G75*
G02*
X129770099Y-101052400I249999J0D01*
G01*
X130420101Y-101052400D01*
G75*
G02*
X130670100Y-101302399I0J-249999D01*
G01*
G37*
%TD*%
%TO.C,L13*%
G36*
G01*
X129520100Y-97122401D02*
X129520100Y-96222399D01*
G75*
G02*
X129770099Y-95972400I249999J0D01*
G01*
X130420101Y-95972400D01*
G75*
G02*
X130670100Y-96222399I0J-249999D01*
G01*
X130670100Y-97122401D01*
G75*
G02*
X130420101Y-97372400I-249999J0D01*
G01*
X129770099Y-97372400D01*
G75*
G02*
X129520100Y-97122401I0J249999D01*
G01*
G37*
G36*
G01*
X127470100Y-97122401D02*
X127470100Y-96222399D01*
G75*
G02*
X127720099Y-95972400I249999J0D01*
G01*
X128370101Y-95972400D01*
G75*
G02*
X128620100Y-96222399I0J-249999D01*
G01*
X128620100Y-97122401D01*
G75*
G02*
X128370101Y-97372400I-249999J0D01*
G01*
X127720099Y-97372400D01*
G75*
G02*
X127470100Y-97122401I0J249999D01*
G01*
G37*
%TD*%
%TO.C,C490*%
G36*
G01*
X132085100Y-114002400D02*
X131135100Y-114002400D01*
G75*
G02*
X130885100Y-113752400I0J250000D01*
G01*
X130885100Y-113077400D01*
G75*
G02*
X131135100Y-112827400I250000J0D01*
G01*
X132085100Y-112827400D01*
G75*
G02*
X132335100Y-113077400I0J-250000D01*
G01*
X132335100Y-113752400D01*
G75*
G02*
X132085100Y-114002400I-250000J0D01*
G01*
G37*
G36*
G01*
X132085100Y-116077400D02*
X131135100Y-116077400D01*
G75*
G02*
X130885100Y-115827400I0J250000D01*
G01*
X130885100Y-115152400D01*
G75*
G02*
X131135100Y-114902400I250000J0D01*
G01*
X132085100Y-114902400D01*
G75*
G02*
X132335100Y-115152400I0J-250000D01*
G01*
X132335100Y-115827400D01*
G75*
G02*
X132085100Y-116077400I-250000J0D01*
G01*
G37*
%TD*%
%TO.C,C489*%
G36*
G01*
X139070100Y-106382400D02*
X138120100Y-106382400D01*
G75*
G02*
X137870100Y-106132400I0J250000D01*
G01*
X137870100Y-105457400D01*
G75*
G02*
X138120100Y-105207400I250000J0D01*
G01*
X139070100Y-105207400D01*
G75*
G02*
X139320100Y-105457400I0J-250000D01*
G01*
X139320100Y-106132400D01*
G75*
G02*
X139070100Y-106382400I-250000J0D01*
G01*
G37*
G36*
G01*
X139070100Y-108457400D02*
X138120100Y-108457400D01*
G75*
G02*
X137870100Y-108207400I0J250000D01*
G01*
X137870100Y-107532400D01*
G75*
G02*
X138120100Y-107282400I250000J0D01*
G01*
X139070100Y-107282400D01*
G75*
G02*
X139320100Y-107532400I0J-250000D01*
G01*
X139320100Y-108207400D01*
G75*
G02*
X139070100Y-108457400I-250000J0D01*
G01*
G37*
%TD*%
%TO.C,C488*%
G36*
G01*
X135870100Y-104767400D02*
X135870100Y-103817400D01*
G75*
G02*
X136120100Y-103567400I250000J0D01*
G01*
X136795100Y-103567400D01*
G75*
G02*
X137045100Y-103817400I0J-250000D01*
G01*
X137045100Y-104767400D01*
G75*
G02*
X136795100Y-105017400I-250000J0D01*
G01*
X136120100Y-105017400D01*
G75*
G02*
X135870100Y-104767400I0J250000D01*
G01*
G37*
G36*
G01*
X133795100Y-104767400D02*
X133795100Y-103817400D01*
G75*
G02*
X134045100Y-103567400I250000J0D01*
G01*
X134720100Y-103567400D01*
G75*
G02*
X134970100Y-103817400I0J-250000D01*
G01*
X134970100Y-104767400D01*
G75*
G02*
X134720100Y-105017400I-250000J0D01*
G01*
X134045100Y-105017400D01*
G75*
G02*
X133795100Y-104767400I0J250000D01*
G01*
G37*
%TD*%
%TO.C,C487*%
G36*
G01*
X134970100Y-96197400D02*
X134970100Y-97147400D01*
G75*
G02*
X134720100Y-97397400I-250000J0D01*
G01*
X134045100Y-97397400D01*
G75*
G02*
X133795100Y-97147400I0J250000D01*
G01*
X133795100Y-96197400D01*
G75*
G02*
X134045100Y-95947400I250000J0D01*
G01*
X134720100Y-95947400D01*
G75*
G02*
X134970100Y-96197400I0J-250000D01*
G01*
G37*
G36*
G01*
X137045100Y-96197400D02*
X137045100Y-97147400D01*
G75*
G02*
X136795100Y-97397400I-250000J0D01*
G01*
X136120100Y-97397400D01*
G75*
G02*
X135870100Y-97147400I0J250000D01*
G01*
X135870100Y-96197400D01*
G75*
G02*
X136120100Y-95947400I250000J0D01*
G01*
X136795100Y-95947400D01*
G75*
G02*
X137045100Y-96197400I0J-250000D01*
G01*
G37*
%TD*%
%TO.C,C37*%
G36*
G01*
X134970100Y-119057400D02*
X134970100Y-120007400D01*
G75*
G02*
X134720100Y-120257400I-250000J0D01*
G01*
X134045100Y-120257400D01*
G75*
G02*
X133795100Y-120007400I0J250000D01*
G01*
X133795100Y-119057400D01*
G75*
G02*
X134045100Y-118807400I250000J0D01*
G01*
X134720100Y-118807400D01*
G75*
G02*
X134970100Y-119057400I0J-250000D01*
G01*
G37*
G36*
G01*
X137045100Y-119057400D02*
X137045100Y-120007400D01*
G75*
G02*
X136795100Y-120257400I-250000J0D01*
G01*
X136120100Y-120257400D01*
G75*
G02*
X135870100Y-120007400I0J250000D01*
G01*
X135870100Y-119057400D01*
G75*
G02*
X136120100Y-118807400I250000J0D01*
G01*
X136795100Y-118807400D01*
G75*
G02*
X137045100Y-119057400I0J-250000D01*
G01*
G37*
%TD*%
%TO.C,C33*%
G36*
G01*
X134970100Y-111437400D02*
X134970100Y-112387400D01*
G75*
G02*
X134720100Y-112637400I-250000J0D01*
G01*
X134045100Y-112637400D01*
G75*
G02*
X133795100Y-112387400I0J250000D01*
G01*
X133795100Y-111437400D01*
G75*
G02*
X134045100Y-111187400I250000J0D01*
G01*
X134720100Y-111187400D01*
G75*
G02*
X134970100Y-111437400I0J-250000D01*
G01*
G37*
G36*
G01*
X137045100Y-111437400D02*
X137045100Y-112387400D01*
G75*
G02*
X136795100Y-112637400I-250000J0D01*
G01*
X136120100Y-112637400D01*
G75*
G02*
X135870100Y-112387400I0J250000D01*
G01*
X135870100Y-111437400D01*
G75*
G02*
X136120100Y-111187400I250000J0D01*
G01*
X136795100Y-111187400D01*
G75*
G02*
X137045100Y-111437400I0J-250000D01*
G01*
G37*
%TD*%
%TO.C,C21*%
G36*
G01*
X123540100Y-88577400D02*
X123540100Y-89527400D01*
G75*
G02*
X123290100Y-89777400I-250000J0D01*
G01*
X122615100Y-89777400D01*
G75*
G02*
X122365100Y-89527400I0J250000D01*
G01*
X122365100Y-88577400D01*
G75*
G02*
X122615100Y-88327400I250000J0D01*
G01*
X123290100Y-88327400D01*
G75*
G02*
X123540100Y-88577400I0J-250000D01*
G01*
G37*
G36*
G01*
X125615100Y-88577400D02*
X125615100Y-89527400D01*
G75*
G02*
X125365100Y-89777400I-250000J0D01*
G01*
X124690100Y-89777400D01*
G75*
G02*
X124440100Y-89527400I0J250000D01*
G01*
X124440100Y-88577400D01*
G75*
G02*
X124690100Y-88327400I250000J0D01*
G01*
X125365100Y-88327400D01*
G75*
G02*
X125615100Y-88577400I0J-250000D01*
G01*
G37*
%TD*%
%TO.C,C14*%
G36*
G01*
X123772600Y-101277400D02*
X123772600Y-102227400D01*
G75*
G02*
X123522600Y-102477400I-250000J0D01*
G01*
X122847600Y-102477400D01*
G75*
G02*
X122597600Y-102227400I0J250000D01*
G01*
X122597600Y-101277400D01*
G75*
G02*
X122847600Y-101027400I250000J0D01*
G01*
X123522600Y-101027400D01*
G75*
G02*
X123772600Y-101277400I0J-250000D01*
G01*
G37*
G36*
G01*
X125847600Y-101277400D02*
X125847600Y-102227400D01*
G75*
G02*
X125597600Y-102477400I-250000J0D01*
G01*
X124922600Y-102477400D01*
G75*
G02*
X124672600Y-102227400I0J250000D01*
G01*
X124672600Y-101277400D01*
G75*
G02*
X124922600Y-101027400I250000J0D01*
G01*
X125597600Y-101027400D01*
G75*
G02*
X125847600Y-101277400I0J-250000D01*
G01*
G37*
%TD*%
%TO.C,C13*%
G36*
G01*
X128620100Y-98737400D02*
X128620100Y-99687400D01*
G75*
G02*
X128370100Y-99937400I-250000J0D01*
G01*
X127695100Y-99937400D01*
G75*
G02*
X127445100Y-99687400I0J250000D01*
G01*
X127445100Y-98737400D01*
G75*
G02*
X127695100Y-98487400I250000J0D01*
G01*
X128370100Y-98487400D01*
G75*
G02*
X128620100Y-98737400I0J-250000D01*
G01*
G37*
G36*
G01*
X130695100Y-98737400D02*
X130695100Y-99687400D01*
G75*
G02*
X130445100Y-99937400I-250000J0D01*
G01*
X129770100Y-99937400D01*
G75*
G02*
X129520100Y-99687400I0J250000D01*
G01*
X129520100Y-98737400D01*
G75*
G02*
X129770100Y-98487400I250000J0D01*
G01*
X130445100Y-98487400D01*
G75*
G02*
X130695100Y-98737400I0J-250000D01*
G01*
G37*
%TD*%
%TO.C,C12*%
G36*
G01*
X129520100Y-94607400D02*
X129520100Y-93657400D01*
G75*
G02*
X129770100Y-93407400I250000J0D01*
G01*
X130445100Y-93407400D01*
G75*
G02*
X130695100Y-93657400I0J-250000D01*
G01*
X130695100Y-94607400D01*
G75*
G02*
X130445100Y-94857400I-250000J0D01*
G01*
X129770100Y-94857400D01*
G75*
G02*
X129520100Y-94607400I0J250000D01*
G01*
G37*
G36*
G01*
X127445100Y-94607400D02*
X127445100Y-93657400D01*
G75*
G02*
X127695100Y-93407400I250000J0D01*
G01*
X128370100Y-93407400D01*
G75*
G02*
X128620100Y-93657400I0J-250000D01*
G01*
X128620100Y-94607400D01*
G75*
G02*
X128370100Y-94857400I-250000J0D01*
G01*
X127695100Y-94857400D01*
G75*
G02*
X127445100Y-94607400I0J250000D01*
G01*
G37*
%TD*%
M02*
