%TF.GenerationSoftware,KiCad,Pcbnew,(5.1.10)-1*%
%TF.CreationDate,2021-09-06T20:05:53-04:00*%
%TF.ProjectId,BeagleBone-Black-Cape,42656167-6c65-4426-9f6e-652d426c6163,rev?*%
%TF.SameCoordinates,Original*%
%TF.FileFunction,Copper,L1,Top*%
%TF.FilePolarity,Positive*%
%FSLAX46Y46*%
G04 Gerber Fmt 4.6, Leading zero omitted, Abs format (unit mm)*
G04 Created by KiCad (PCBNEW (5.1.10)-1) date 2021-09-06 20:05:53*
%MOMM*%
%LPD*%
G01*
G04 APERTURE LIST*
%TA.AperFunction,EtchedComponent*%
%ADD10C,0.152400*%
%TD*%
%TA.AperFunction,SMDPad,CuDef*%
%ADD11R,0.500000X0.250000*%
%TD*%
%TA.AperFunction,SMDPad,CuDef*%
%ADD12R,1.244600X0.762000*%
%TD*%
%TA.AperFunction,SMDPad,CuDef*%
%ADD13R,0.203200X0.558800*%
%TD*%
%TA.AperFunction,SMDPad,CuDef*%
%ADD14R,1.050000X2.200000*%
%TD*%
%TA.AperFunction,SMDPad,CuDef*%
%ADD15R,1.000000X1.050000*%
%TD*%
%TA.AperFunction,ComponentPad*%
%ADD16R,1.727200X1.727200*%
%TD*%
%TA.AperFunction,ComponentPad*%
%ADD17O,1.727200X1.727200*%
%TD*%
%TA.AperFunction,ViaPad*%
%ADD18C,0.600000*%
%TD*%
%TA.AperFunction,ViaPad*%
%ADD19C,0.400000*%
%TD*%
%TA.AperFunction,Conductor*%
%ADD20C,0.250000*%
%TD*%
G04 APERTURE END LIST*
D10*
%TO.C,U2*%
X140131800Y-116865400D02*
X140131800Y-116967000D01*
X140081000Y-116865400D02*
X140131800Y-116865400D01*
X140081000Y-116967000D02*
X140081000Y-116865400D01*
X140131800Y-116967000D02*
X140081000Y-116967000D01*
X140131800Y-116865400D02*
X140131800Y-116763800D01*
X140081000Y-116865400D02*
X140131800Y-116865400D01*
X140081000Y-116763800D02*
X140081000Y-116865400D01*
X140131800Y-116763800D02*
X140081000Y-116763800D01*
X141376400Y-116865400D02*
X141376400Y-116967000D01*
X141427200Y-116865400D02*
X141376400Y-116865400D01*
X141427200Y-116967000D02*
X141427200Y-116865400D01*
X141376400Y-116967000D02*
X141427200Y-116967000D01*
X141376400Y-116865400D02*
X141376400Y-116763800D01*
X141427200Y-116865400D02*
X141376400Y-116865400D01*
X141427200Y-116763800D02*
X141427200Y-116865400D01*
X141376400Y-116763800D02*
X141427200Y-116763800D01*
%TD*%
D11*
%TO.P,CR13,2*%
%TO.N,RFC_SKY*%
X152488900Y-112527200D03*
%TO.P,CR13,1*%
%TO.N,GND8*%
X152488900Y-113177200D03*
%TD*%
D12*
%TO.P,U2,9*%
%TO.N,GND8*%
X140754100Y-116865400D03*
D13*
%TO.P,U2,8*%
%TO.N,RF3_SKY*%
X141354099Y-117640100D03*
%TO.P,U2,7*%
%TO.N,V3_SKY*%
X140954100Y-117640100D03*
%TO.P,U2,6*%
%TO.N,V2_SKY*%
X140554100Y-117640100D03*
%TO.P,U2,5*%
%TO.N,RF2_SKY*%
X140154101Y-117640100D03*
%TO.P,U2,4*%
%TO.N,RF1_SKY*%
X140154101Y-116090700D03*
%TO.P,U2,3*%
%TO.N,V1_SKY*%
X140554100Y-116090700D03*
%TO.P,U2,2*%
%TO.N,N/C*%
X140954100Y-116090700D03*
%TO.P,U2,1*%
%TO.N,RFC_SKY*%
X141354099Y-116090700D03*
%TD*%
%TO.P,Z63,2*%
%TO.N,N/C*%
%TA.AperFunction,SMDPad,CuDef*%
G36*
G01*
X156229900Y-120556000D02*
X156229900Y-121506000D01*
G75*
G02*
X155979900Y-121756000I-250000J0D01*
G01*
X155304900Y-121756000D01*
G75*
G02*
X155054900Y-121506000I0J250000D01*
G01*
X155054900Y-120556000D01*
G75*
G02*
X155304900Y-120306000I250000J0D01*
G01*
X155979900Y-120306000D01*
G75*
G02*
X156229900Y-120556000I0J-250000D01*
G01*
G37*
%TD.AperFunction*%
%TO.P,Z63,1*%
%TO.N,Net-(Z60-Pad2)*%
%TA.AperFunction,SMDPad,CuDef*%
G36*
G01*
X158304900Y-120556000D02*
X158304900Y-121506000D01*
G75*
G02*
X158054900Y-121756000I-250000J0D01*
G01*
X157379900Y-121756000D01*
G75*
G02*
X157129900Y-121506000I0J250000D01*
G01*
X157129900Y-120556000D01*
G75*
G02*
X157379900Y-120306000I250000J0D01*
G01*
X158054900Y-120306000D01*
G75*
G02*
X158304900Y-120556000I0J-250000D01*
G01*
G37*
%TD.AperFunction*%
%TD*%
%TO.P,Z62,2*%
%TO.N,GND8*%
%TA.AperFunction,SMDPad,CuDef*%
G36*
G01*
X156229900Y-117786999D02*
X156229900Y-118687001D01*
G75*
G02*
X155979901Y-118937000I-249999J0D01*
G01*
X155329899Y-118937000D01*
G75*
G02*
X155079900Y-118687001I0J249999D01*
G01*
X155079900Y-117786999D01*
G75*
G02*
X155329899Y-117537000I249999J0D01*
G01*
X155979901Y-117537000D01*
G75*
G02*
X156229900Y-117786999I0J-249999D01*
G01*
G37*
%TD.AperFunction*%
%TO.P,Z62,1*%
%TO.N,Net-(Z60-Pad2)*%
%TA.AperFunction,SMDPad,CuDef*%
G36*
G01*
X158279900Y-117786999D02*
X158279900Y-118687001D01*
G75*
G02*
X158029901Y-118937000I-249999J0D01*
G01*
X157379899Y-118937000D01*
G75*
G02*
X157129900Y-118687001I0J249999D01*
G01*
X157129900Y-117786999D01*
G75*
G02*
X157379899Y-117537000I249999J0D01*
G01*
X158029901Y-117537000D01*
G75*
G02*
X158279900Y-117786999I0J-249999D01*
G01*
G37*
%TD.AperFunction*%
%TD*%
%TO.P,Z61,2*%
%TO.N,GND8*%
%TA.AperFunction,SMDPad,CuDef*%
G36*
G01*
X156179100Y-115018800D02*
X156179100Y-115968800D01*
G75*
G02*
X155929100Y-116218800I-250000J0D01*
G01*
X155254100Y-116218800D01*
G75*
G02*
X155004100Y-115968800I0J250000D01*
G01*
X155004100Y-115018800D01*
G75*
G02*
X155254100Y-114768800I250000J0D01*
G01*
X155929100Y-114768800D01*
G75*
G02*
X156179100Y-115018800I0J-250000D01*
G01*
G37*
%TD.AperFunction*%
%TO.P,Z61,1*%
%TO.N,Net-(Z60-Pad2)*%
%TA.AperFunction,SMDPad,CuDef*%
G36*
G01*
X158254100Y-115018800D02*
X158254100Y-115968800D01*
G75*
G02*
X158004100Y-116218800I-250000J0D01*
G01*
X157329100Y-116218800D01*
G75*
G02*
X157079100Y-115968800I0J250000D01*
G01*
X157079100Y-115018800D01*
G75*
G02*
X157329100Y-114768800I250000J0D01*
G01*
X158004100Y-114768800D01*
G75*
G02*
X158254100Y-115018800I0J-250000D01*
G01*
G37*
%TD.AperFunction*%
%TD*%
%TO.P,Z60,2*%
%TO.N,Net-(Z60-Pad2)*%
%TA.AperFunction,SMDPad,CuDef*%
G36*
G01*
X157079100Y-113556201D02*
X157079100Y-112656199D01*
G75*
G02*
X157329099Y-112406200I249999J0D01*
G01*
X157979101Y-112406200D01*
G75*
G02*
X158229100Y-112656199I0J-249999D01*
G01*
X158229100Y-113556201D01*
G75*
G02*
X157979101Y-113806200I-249999J0D01*
G01*
X157329099Y-113806200D01*
G75*
G02*
X157079100Y-113556201I0J249999D01*
G01*
G37*
%TD.AperFunction*%
%TO.P,Z60,1*%
%TO.N,Net-(C482-Pad2)*%
%TA.AperFunction,SMDPad,CuDef*%
G36*
G01*
X155029100Y-113556201D02*
X155029100Y-112656199D01*
G75*
G02*
X155279099Y-112406200I249999J0D01*
G01*
X155929101Y-112406200D01*
G75*
G02*
X156179100Y-112656199I0J-249999D01*
G01*
X156179100Y-113556201D01*
G75*
G02*
X155929101Y-113806200I-249999J0D01*
G01*
X155279099Y-113806200D01*
G75*
G02*
X155029100Y-113556201I0J249999D01*
G01*
G37*
%TD.AperFunction*%
%TD*%
%TO.P,R54,2*%
%TO.N,Net-(C51-Pad1)*%
%TA.AperFunction,SMDPad,CuDef*%
G36*
G01*
X157714900Y-85159001D02*
X157714900Y-84258999D01*
G75*
G02*
X157964899Y-84009000I249999J0D01*
G01*
X158664901Y-84009000D01*
G75*
G02*
X158914900Y-84258999I0J-249999D01*
G01*
X158914900Y-85159001D01*
G75*
G02*
X158664901Y-85409000I-249999J0D01*
G01*
X157964899Y-85409000D01*
G75*
G02*
X157714900Y-85159001I0J249999D01*
G01*
G37*
%TD.AperFunction*%
%TO.P,R54,1*%
%TO.N,N/C*%
%TA.AperFunction,SMDPad,CuDef*%
G36*
G01*
X155714900Y-85159001D02*
X155714900Y-84258999D01*
G75*
G02*
X155964899Y-84009000I249999J0D01*
G01*
X156664901Y-84009000D01*
G75*
G02*
X156914900Y-84258999I0J-249999D01*
G01*
X156914900Y-85159001D01*
G75*
G02*
X156664901Y-85409000I-249999J0D01*
G01*
X155964899Y-85409000D01*
G75*
G02*
X155714900Y-85159001I0J249999D01*
G01*
G37*
%TD.AperFunction*%
%TD*%
%TO.P,R53,2*%
%TO.N,Net-(C51-Pad1)*%
%TA.AperFunction,SMDPad,CuDef*%
G36*
G01*
X153380900Y-85159001D02*
X153380900Y-84258999D01*
G75*
G02*
X153630899Y-84009000I249999J0D01*
G01*
X154330901Y-84009000D01*
G75*
G02*
X154580900Y-84258999I0J-249999D01*
G01*
X154580900Y-85159001D01*
G75*
G02*
X154330901Y-85409000I-249999J0D01*
G01*
X153630899Y-85409000D01*
G75*
G02*
X153380900Y-85159001I0J249999D01*
G01*
G37*
%TD.AperFunction*%
%TO.P,R53,1*%
%TO.N,N/C*%
%TA.AperFunction,SMDPad,CuDef*%
G36*
G01*
X151380900Y-85159001D02*
X151380900Y-84258999D01*
G75*
G02*
X151630899Y-84009000I249999J0D01*
G01*
X152330901Y-84009000D01*
G75*
G02*
X152580900Y-84258999I0J-249999D01*
G01*
X152580900Y-85159001D01*
G75*
G02*
X152330901Y-85409000I-249999J0D01*
G01*
X151630899Y-85409000D01*
G75*
G02*
X151380900Y-85159001I0J249999D01*
G01*
G37*
%TD.AperFunction*%
%TD*%
%TO.P,L62,2*%
%TO.N,Net-(C53-Pad2)*%
%TA.AperFunction,SMDPad,CuDef*%
G36*
G01*
X145395100Y-94582401D02*
X145395100Y-93682399D01*
G75*
G02*
X145645099Y-93432400I249999J0D01*
G01*
X146295101Y-93432400D01*
G75*
G02*
X146545100Y-93682399I0J-249999D01*
G01*
X146545100Y-94582401D01*
G75*
G02*
X146295101Y-94832400I-249999J0D01*
G01*
X145645099Y-94832400D01*
G75*
G02*
X145395100Y-94582401I0J249999D01*
G01*
G37*
%TD.AperFunction*%
%TO.P,L62,1*%
%TO.N,RX_20dB_N*%
%TA.AperFunction,SMDPad,CuDef*%
G36*
G01*
X143345100Y-94582401D02*
X143345100Y-93682399D01*
G75*
G02*
X143595099Y-93432400I249999J0D01*
G01*
X144245101Y-93432400D01*
G75*
G02*
X144495100Y-93682399I0J-249999D01*
G01*
X144495100Y-94582401D01*
G75*
G02*
X144245101Y-94832400I-249999J0D01*
G01*
X143595099Y-94832400D01*
G75*
G02*
X143345100Y-94582401I0J249999D01*
G01*
G37*
%TD.AperFunction*%
%TD*%
%TO.P,L55,2*%
%TO.N,Net-(C497-Pad1)*%
%TA.AperFunction,SMDPad,CuDef*%
G36*
G01*
X144495100Y-102572399D02*
X144495100Y-103472401D01*
G75*
G02*
X144245101Y-103722400I-249999J0D01*
G01*
X143595099Y-103722400D01*
G75*
G02*
X143345100Y-103472401I0J249999D01*
G01*
X143345100Y-102572399D01*
G75*
G02*
X143595099Y-102322400I249999J0D01*
G01*
X144245101Y-102322400D01*
G75*
G02*
X144495100Y-102572399I0J-249999D01*
G01*
G37*
%TD.AperFunction*%
%TO.P,L55,1*%
%TO.N,Net-(C496-Pad1)*%
%TA.AperFunction,SMDPad,CuDef*%
G36*
G01*
X146545100Y-102572399D02*
X146545100Y-103472401D01*
G75*
G02*
X146295101Y-103722400I-249999J0D01*
G01*
X145645099Y-103722400D01*
G75*
G02*
X145395100Y-103472401I0J249999D01*
G01*
X145395100Y-102572399D01*
G75*
G02*
X145645099Y-102322400I249999J0D01*
G01*
X146295101Y-102322400D01*
G75*
G02*
X146545100Y-102572399I0J-249999D01*
G01*
G37*
%TD.AperFunction*%
%TD*%
%TO.P,L54,2*%
%TO.N,Net-(C496-Pad1)*%
%TA.AperFunction,SMDPad,CuDef*%
G36*
G01*
X145395100Y-100932401D02*
X145395100Y-100032399D01*
G75*
G02*
X145645099Y-99782400I249999J0D01*
G01*
X146295101Y-99782400D01*
G75*
G02*
X146545100Y-100032399I0J-249999D01*
G01*
X146545100Y-100932401D01*
G75*
G02*
X146295101Y-101182400I-249999J0D01*
G01*
X145645099Y-101182400D01*
G75*
G02*
X145395100Y-100932401I0J249999D01*
G01*
G37*
%TD.AperFunction*%
%TO.P,L54,1*%
%TO.N,Net-(C53-Pad2)*%
%TA.AperFunction,SMDPad,CuDef*%
G36*
G01*
X143345100Y-100932401D02*
X143345100Y-100032399D01*
G75*
G02*
X143595099Y-99782400I249999J0D01*
G01*
X144245101Y-99782400D01*
G75*
G02*
X144495100Y-100032399I0J-249999D01*
G01*
X144495100Y-100932401D01*
G75*
G02*
X144245101Y-101182400I-249999J0D01*
G01*
X143595099Y-101182400D01*
G75*
G02*
X143345100Y-100932401I0J249999D01*
G01*
G37*
%TD.AperFunction*%
%TD*%
%TO.P,L53,2*%
%TO.N,TX_20dB_P*%
%TA.AperFunction,SMDPad,CuDef*%
G36*
G01*
X152470700Y-88399199D02*
X152470700Y-89299201D01*
G75*
G02*
X152220701Y-89549200I-249999J0D01*
G01*
X151570699Y-89549200D01*
G75*
G02*
X151320700Y-89299201I0J249999D01*
G01*
X151320700Y-88399199D01*
G75*
G02*
X151570699Y-88149200I249999J0D01*
G01*
X152220701Y-88149200D01*
G75*
G02*
X152470700Y-88399199I0J-249999D01*
G01*
G37*
%TD.AperFunction*%
%TO.P,L53,1*%
%TO.N,Net-(C51-Pad1)*%
%TA.AperFunction,SMDPad,CuDef*%
G36*
G01*
X154520700Y-88399199D02*
X154520700Y-89299201D01*
G75*
G02*
X154270701Y-89549200I-249999J0D01*
G01*
X153620699Y-89549200D01*
G75*
G02*
X153370700Y-89299201I0J249999D01*
G01*
X153370700Y-88399199D01*
G75*
G02*
X153620699Y-88149200I249999J0D01*
G01*
X154270701Y-88149200D01*
G75*
G02*
X154520700Y-88399199I0J-249999D01*
G01*
G37*
%TD.AperFunction*%
%TD*%
%TO.P,L52,2*%
%TO.N,RX_20dB_N*%
%TA.AperFunction,SMDPad,CuDef*%
G36*
G01*
X144495100Y-88602399D02*
X144495100Y-89502401D01*
G75*
G02*
X144245101Y-89752400I-249999J0D01*
G01*
X143595099Y-89752400D01*
G75*
G02*
X143345100Y-89502401I0J249999D01*
G01*
X143345100Y-88602399D01*
G75*
G02*
X143595099Y-88352400I249999J0D01*
G01*
X144245101Y-88352400D01*
G75*
G02*
X144495100Y-88602399I0J-249999D01*
G01*
G37*
%TD.AperFunction*%
%TO.P,L52,1*%
%TO.N,TX_20dB_P*%
%TA.AperFunction,SMDPad,CuDef*%
G36*
G01*
X146545100Y-88602399D02*
X146545100Y-89502401D01*
G75*
G02*
X146295101Y-89752400I-249999J0D01*
G01*
X145645099Y-89752400D01*
G75*
G02*
X145395100Y-89502401I0J249999D01*
G01*
X145395100Y-88602399D01*
G75*
G02*
X145645099Y-88352400I249999J0D01*
G01*
X146295101Y-88352400D01*
G75*
G02*
X146545100Y-88602399I0J-249999D01*
G01*
G37*
%TD.AperFunction*%
%TD*%
%TO.P,C497,2*%
%TO.N,GND8*%
%TA.AperFunction,SMDPad,CuDef*%
G36*
G01*
X145395100Y-106037400D02*
X145395100Y-105087400D01*
G75*
G02*
X145645100Y-104837400I250000J0D01*
G01*
X146320100Y-104837400D01*
G75*
G02*
X146570100Y-105087400I0J-250000D01*
G01*
X146570100Y-106037400D01*
G75*
G02*
X146320100Y-106287400I-250000J0D01*
G01*
X145645100Y-106287400D01*
G75*
G02*
X145395100Y-106037400I0J250000D01*
G01*
G37*
%TD.AperFunction*%
%TO.P,C497,1*%
%TO.N,Net-(C497-Pad1)*%
%TA.AperFunction,SMDPad,CuDef*%
G36*
G01*
X143320100Y-106037400D02*
X143320100Y-105087400D01*
G75*
G02*
X143570100Y-104837400I250000J0D01*
G01*
X144245100Y-104837400D01*
G75*
G02*
X144495100Y-105087400I0J-250000D01*
G01*
X144495100Y-106037400D01*
G75*
G02*
X144245100Y-106287400I-250000J0D01*
G01*
X143570100Y-106287400D01*
G75*
G02*
X143320100Y-106037400I0J250000D01*
G01*
G37*
%TD.AperFunction*%
%TD*%
%TO.P,C496,2*%
%TO.N,GND8*%
%TA.AperFunction,SMDPad,CuDef*%
G36*
G01*
X152405100Y-98127400D02*
X151455100Y-98127400D01*
G75*
G02*
X151205100Y-97877400I0J250000D01*
G01*
X151205100Y-97202400D01*
G75*
G02*
X151455100Y-96952400I250000J0D01*
G01*
X152405100Y-96952400D01*
G75*
G02*
X152655100Y-97202400I0J-250000D01*
G01*
X152655100Y-97877400D01*
G75*
G02*
X152405100Y-98127400I-250000J0D01*
G01*
G37*
%TD.AperFunction*%
%TO.P,C496,1*%
%TO.N,Net-(C496-Pad1)*%
%TA.AperFunction,SMDPad,CuDef*%
G36*
G01*
X152405100Y-100202400D02*
X151455100Y-100202400D01*
G75*
G02*
X151205100Y-99952400I0J250000D01*
G01*
X151205100Y-99277400D01*
G75*
G02*
X151455100Y-99027400I250000J0D01*
G01*
X152405100Y-99027400D01*
G75*
G02*
X152655100Y-99277400I0J-250000D01*
G01*
X152655100Y-99952400D01*
G75*
G02*
X152405100Y-100202400I-250000J0D01*
G01*
G37*
%TD.AperFunction*%
%TD*%
%TO.P,C492,2*%
%TO.N,Net-(AE1-Pad1)*%
%TA.AperFunction,SMDPad,CuDef*%
G36*
G01*
X128747100Y-105163600D02*
X128747100Y-106113600D01*
G75*
G02*
X128497100Y-106363600I-250000J0D01*
G01*
X127822100Y-106363600D01*
G75*
G02*
X127572100Y-106113600I0J250000D01*
G01*
X127572100Y-105163600D01*
G75*
G02*
X127822100Y-104913600I250000J0D01*
G01*
X128497100Y-104913600D01*
G75*
G02*
X128747100Y-105163600I0J-250000D01*
G01*
G37*
%TD.AperFunction*%
%TO.P,C492,1*%
%TO.N,Net-(C14-Pad1)*%
%TA.AperFunction,SMDPad,CuDef*%
G36*
G01*
X130822100Y-105163600D02*
X130822100Y-106113600D01*
G75*
G02*
X130572100Y-106363600I-250000J0D01*
G01*
X129897100Y-106363600D01*
G75*
G02*
X129647100Y-106113600I0J250000D01*
G01*
X129647100Y-105163600D01*
G75*
G02*
X129897100Y-104913600I250000J0D01*
G01*
X130572100Y-104913600D01*
G75*
G02*
X130822100Y-105163600I0J-250000D01*
G01*
G37*
%TD.AperFunction*%
%TD*%
%TO.P,C491,2*%
%TO.N,RF3_SKY*%
%TA.AperFunction,SMDPad,CuDef*%
G36*
G01*
X128772500Y-108846600D02*
X128772500Y-109796600D01*
G75*
G02*
X128522500Y-110046600I-250000J0D01*
G01*
X127847500Y-110046600D01*
G75*
G02*
X127597500Y-109796600I0J250000D01*
G01*
X127597500Y-108846600D01*
G75*
G02*
X127847500Y-108596600I250000J0D01*
G01*
X128522500Y-108596600D01*
G75*
G02*
X128772500Y-108846600I0J-250000D01*
G01*
G37*
%TD.AperFunction*%
%TO.P,C491,1*%
%TO.N,Net-(C14-Pad1)*%
%TA.AperFunction,SMDPad,CuDef*%
G36*
G01*
X130847500Y-108846600D02*
X130847500Y-109796600D01*
G75*
G02*
X130597500Y-110046600I-250000J0D01*
G01*
X129922500Y-110046600D01*
G75*
G02*
X129672500Y-109796600I0J250000D01*
G01*
X129672500Y-108846600D01*
G75*
G02*
X129922500Y-108596600I250000J0D01*
G01*
X130597500Y-108596600D01*
G75*
G02*
X130847500Y-108846600I0J-250000D01*
G01*
G37*
%TD.AperFunction*%
%TD*%
%TO.P,C483,2*%
%TO.N,RFC_SKY*%
%TA.AperFunction,SMDPad,CuDef*%
G36*
G01*
X157155300Y-108044000D02*
X157155300Y-107094000D01*
G75*
G02*
X157405300Y-106844000I250000J0D01*
G01*
X158080300Y-106844000D01*
G75*
G02*
X158330300Y-107094000I0J-250000D01*
G01*
X158330300Y-108044000D01*
G75*
G02*
X158080300Y-108294000I-250000J0D01*
G01*
X157405300Y-108294000D01*
G75*
G02*
X157155300Y-108044000I0J250000D01*
G01*
G37*
%TD.AperFunction*%
%TO.P,C483,1*%
%TO.N,Net-(AE5-Pad1)*%
%TA.AperFunction,SMDPad,CuDef*%
G36*
G01*
X155080300Y-108044000D02*
X155080300Y-107094000D01*
G75*
G02*
X155330300Y-106844000I250000J0D01*
G01*
X156005300Y-106844000D01*
G75*
G02*
X156255300Y-107094000I0J-250000D01*
G01*
X156255300Y-108044000D01*
G75*
G02*
X156005300Y-108294000I-250000J0D01*
G01*
X155330300Y-108294000D01*
G75*
G02*
X155080300Y-108044000I0J250000D01*
G01*
G37*
%TD.AperFunction*%
%TD*%
%TO.P,C482,2*%
%TO.N,Net-(C482-Pad2)*%
%TA.AperFunction,SMDPad,CuDef*%
G36*
G01*
X156179100Y-109735600D02*
X156179100Y-110685600D01*
G75*
G02*
X155929100Y-110935600I-250000J0D01*
G01*
X155254100Y-110935600D01*
G75*
G02*
X155004100Y-110685600I0J250000D01*
G01*
X155004100Y-109735600D01*
G75*
G02*
X155254100Y-109485600I250000J0D01*
G01*
X155929100Y-109485600D01*
G75*
G02*
X156179100Y-109735600I0J-250000D01*
G01*
G37*
%TD.AperFunction*%
%TO.P,C482,1*%
%TO.N,RFC_SKY*%
%TA.AperFunction,SMDPad,CuDef*%
G36*
G01*
X158254100Y-109735600D02*
X158254100Y-110685600D01*
G75*
G02*
X158004100Y-110935600I-250000J0D01*
G01*
X157329100Y-110935600D01*
G75*
G02*
X157079100Y-110685600I0J250000D01*
G01*
X157079100Y-109735600D01*
G75*
G02*
X157329100Y-109485600I250000J0D01*
G01*
X158004100Y-109485600D01*
G75*
G02*
X158254100Y-109735600I0J-250000D01*
G01*
G37*
%TD.AperFunction*%
%TD*%
%TO.P,C62,2*%
%TO.N,GND8*%
%TA.AperFunction,SMDPad,CuDef*%
G36*
G01*
X145395100Y-98417400D02*
X145395100Y-97467400D01*
G75*
G02*
X145645100Y-97217400I250000J0D01*
G01*
X146320100Y-97217400D01*
G75*
G02*
X146570100Y-97467400I0J-250000D01*
G01*
X146570100Y-98417400D01*
G75*
G02*
X146320100Y-98667400I-250000J0D01*
G01*
X145645100Y-98667400D01*
G75*
G02*
X145395100Y-98417400I0J250000D01*
G01*
G37*
%TD.AperFunction*%
%TO.P,C62,1*%
%TO.N,Net-(C53-Pad2)*%
%TA.AperFunction,SMDPad,CuDef*%
G36*
G01*
X143320100Y-98417400D02*
X143320100Y-97467400D01*
G75*
G02*
X143570100Y-97217400I250000J0D01*
G01*
X144245100Y-97217400D01*
G75*
G02*
X144495100Y-97467400I0J-250000D01*
G01*
X144495100Y-98417400D01*
G75*
G02*
X144245100Y-98667400I-250000J0D01*
G01*
X143570100Y-98667400D01*
G75*
G02*
X143320100Y-98417400I0J250000D01*
G01*
G37*
%TD.AperFunction*%
%TD*%
%TO.P,C61,2*%
%TO.N,RX_20dB_N*%
%TA.AperFunction,SMDPad,CuDef*%
G36*
G01*
X144495100Y-91117400D02*
X144495100Y-92067400D01*
G75*
G02*
X144245100Y-92317400I-250000J0D01*
G01*
X143570100Y-92317400D01*
G75*
G02*
X143320100Y-92067400I0J250000D01*
G01*
X143320100Y-91117400D01*
G75*
G02*
X143570100Y-90867400I250000J0D01*
G01*
X144245100Y-90867400D01*
G75*
G02*
X144495100Y-91117400I0J-250000D01*
G01*
G37*
%TD.AperFunction*%
%TO.P,C61,1*%
%TO.N,GND8*%
%TA.AperFunction,SMDPad,CuDef*%
G36*
G01*
X146570100Y-91117400D02*
X146570100Y-92067400D01*
G75*
G02*
X146320100Y-92317400I-250000J0D01*
G01*
X145645100Y-92317400D01*
G75*
G02*
X145395100Y-92067400I0J250000D01*
G01*
X145395100Y-91117400D01*
G75*
G02*
X145645100Y-90867400I250000J0D01*
G01*
X146320100Y-90867400D01*
G75*
G02*
X146570100Y-91117400I0J-250000D01*
G01*
G37*
%TD.AperFunction*%
%TD*%
%TO.P,C59,2*%
%TO.N,Net-(AE3-Pad1)*%
%TA.AperFunction,SMDPad,CuDef*%
G36*
G01*
X145395100Y-113022400D02*
X145395100Y-112072400D01*
G75*
G02*
X145645100Y-111822400I250000J0D01*
G01*
X146320100Y-111822400D01*
G75*
G02*
X146570100Y-112072400I0J-250000D01*
G01*
X146570100Y-113022400D01*
G75*
G02*
X146320100Y-113272400I-250000J0D01*
G01*
X145645100Y-113272400D01*
G75*
G02*
X145395100Y-113022400I0J250000D01*
G01*
G37*
%TD.AperFunction*%
%TO.P,C59,1*%
%TO.N,Net-(C497-Pad1)*%
%TA.AperFunction,SMDPad,CuDef*%
G36*
G01*
X143320100Y-113022400D02*
X143320100Y-112072400D01*
G75*
G02*
X143570100Y-111822400I250000J0D01*
G01*
X144245100Y-111822400D01*
G75*
G02*
X144495100Y-112072400I0J-250000D01*
G01*
X144495100Y-113022400D01*
G75*
G02*
X144245100Y-113272400I-250000J0D01*
G01*
X143570100Y-113272400D01*
G75*
G02*
X143320100Y-113022400I0J250000D01*
G01*
G37*
%TD.AperFunction*%
%TD*%
%TO.P,C58,2*%
%TO.N,RF1_SKY*%
%TA.AperFunction,SMDPad,CuDef*%
G36*
G01*
X145395100Y-109212400D02*
X145395100Y-108262400D01*
G75*
G02*
X145645100Y-108012400I250000J0D01*
G01*
X146320100Y-108012400D01*
G75*
G02*
X146570100Y-108262400I0J-250000D01*
G01*
X146570100Y-109212400D01*
G75*
G02*
X146320100Y-109462400I-250000J0D01*
G01*
X145645100Y-109462400D01*
G75*
G02*
X145395100Y-109212400I0J250000D01*
G01*
G37*
%TD.AperFunction*%
%TO.P,C58,1*%
%TO.N,Net-(C497-Pad1)*%
%TA.AperFunction,SMDPad,CuDef*%
G36*
G01*
X143320100Y-109212400D02*
X143320100Y-108262400D01*
G75*
G02*
X143570100Y-108012400I250000J0D01*
G01*
X144245100Y-108012400D01*
G75*
G02*
X144495100Y-108262400I0J-250000D01*
G01*
X144495100Y-109212400D01*
G75*
G02*
X144245100Y-109462400I-250000J0D01*
G01*
X143570100Y-109462400D01*
G75*
G02*
X143320100Y-109212400I0J250000D01*
G01*
G37*
%TD.AperFunction*%
%TD*%
%TO.P,C53,2*%
%TO.N,Net-(C53-Pad2)*%
%TA.AperFunction,SMDPad,CuDef*%
G36*
G01*
X151455100Y-92677400D02*
X152405100Y-92677400D01*
G75*
G02*
X152655100Y-92927400I0J-250000D01*
G01*
X152655100Y-93602400D01*
G75*
G02*
X152405100Y-93852400I-250000J0D01*
G01*
X151455100Y-93852400D01*
G75*
G02*
X151205100Y-93602400I0J250000D01*
G01*
X151205100Y-92927400D01*
G75*
G02*
X151455100Y-92677400I250000J0D01*
G01*
G37*
%TD.AperFunction*%
%TO.P,C53,1*%
%TO.N,TX_20dB_P*%
%TA.AperFunction,SMDPad,CuDef*%
G36*
G01*
X151455100Y-90602400D02*
X152405100Y-90602400D01*
G75*
G02*
X152655100Y-90852400I0J-250000D01*
G01*
X152655100Y-91527400D01*
G75*
G02*
X152405100Y-91777400I-250000J0D01*
G01*
X151455100Y-91777400D01*
G75*
G02*
X151205100Y-91527400I0J250000D01*
G01*
X151205100Y-90852400D01*
G75*
G02*
X151455100Y-90602400I250000J0D01*
G01*
G37*
%TD.AperFunction*%
%TD*%
%TO.P,C52,2*%
%TO.N,GND8*%
%TA.AperFunction,SMDPad,CuDef*%
G36*
G01*
X159075100Y-92702800D02*
X160025100Y-92702800D01*
G75*
G02*
X160275100Y-92952800I0J-250000D01*
G01*
X160275100Y-93627800D01*
G75*
G02*
X160025100Y-93877800I-250000J0D01*
G01*
X159075100Y-93877800D01*
G75*
G02*
X158825100Y-93627800I0J250000D01*
G01*
X158825100Y-92952800D01*
G75*
G02*
X159075100Y-92702800I250000J0D01*
G01*
G37*
%TD.AperFunction*%
%TO.P,C52,1*%
%TO.N,Net-(C51-Pad1)*%
%TA.AperFunction,SMDPad,CuDef*%
G36*
G01*
X159075100Y-90627800D02*
X160025100Y-90627800D01*
G75*
G02*
X160275100Y-90877800I0J-250000D01*
G01*
X160275100Y-91552800D01*
G75*
G02*
X160025100Y-91802800I-250000J0D01*
G01*
X159075100Y-91802800D01*
G75*
G02*
X158825100Y-91552800I0J250000D01*
G01*
X158825100Y-90877800D01*
G75*
G02*
X159075100Y-90627800I250000J0D01*
G01*
G37*
%TD.AperFunction*%
%TD*%
%TO.P,C51,2*%
%TO.N,GND8*%
%TA.AperFunction,SMDPad,CuDef*%
G36*
G01*
X155290500Y-92626600D02*
X156240500Y-92626600D01*
G75*
G02*
X156490500Y-92876600I0J-250000D01*
G01*
X156490500Y-93551600D01*
G75*
G02*
X156240500Y-93801600I-250000J0D01*
G01*
X155290500Y-93801600D01*
G75*
G02*
X155040500Y-93551600I0J250000D01*
G01*
X155040500Y-92876600D01*
G75*
G02*
X155290500Y-92626600I250000J0D01*
G01*
G37*
%TD.AperFunction*%
%TO.P,C51,1*%
%TO.N,Net-(C51-Pad1)*%
%TA.AperFunction,SMDPad,CuDef*%
G36*
G01*
X155290500Y-90551600D02*
X156240500Y-90551600D01*
G75*
G02*
X156490500Y-90801600I0J-250000D01*
G01*
X156490500Y-91476600D01*
G75*
G02*
X156240500Y-91726600I-250000J0D01*
G01*
X155290500Y-91726600D01*
G75*
G02*
X155040500Y-91476600I0J250000D01*
G01*
X155040500Y-90801600D01*
G75*
G02*
X155290500Y-90551600I250000J0D01*
G01*
G37*
%TD.AperFunction*%
%TD*%
%TO.P,C36,2*%
%TO.N,RF2_SKY*%
%TA.AperFunction,SMDPad,CuDef*%
G36*
G01*
X132059700Y-118345800D02*
X131109700Y-118345800D01*
G75*
G02*
X130859700Y-118095800I0J250000D01*
G01*
X130859700Y-117420800D01*
G75*
G02*
X131109700Y-117170800I250000J0D01*
G01*
X132059700Y-117170800D01*
G75*
G02*
X132309700Y-117420800I0J-250000D01*
G01*
X132309700Y-118095800D01*
G75*
G02*
X132059700Y-118345800I-250000J0D01*
G01*
G37*
%TD.AperFunction*%
%TO.P,C36,1*%
%TO.N,Net-(C36-Pad1)*%
%TA.AperFunction,SMDPad,CuDef*%
G36*
G01*
X132059700Y-120420800D02*
X131109700Y-120420800D01*
G75*
G02*
X130859700Y-120170800I0J250000D01*
G01*
X130859700Y-119495800D01*
G75*
G02*
X131109700Y-119245800I250000J0D01*
G01*
X132059700Y-119245800D01*
G75*
G02*
X132309700Y-119495800I0J-250000D01*
G01*
X132309700Y-120170800D01*
G75*
G02*
X132059700Y-120420800I-250000J0D01*
G01*
G37*
%TD.AperFunction*%
%TD*%
D14*
%TO.P,AE5,2*%
%TO.N,N/C*%
X152465300Y-125722400D03*
D15*
%TO.P,AE5,1*%
%TO.N,Net-(AE5-Pad1)*%
X150990300Y-124197400D03*
D14*
%TO.P,AE5,2*%
%TO.N,N/C*%
X149515300Y-125722400D03*
%TD*%
%TO.P,AE4,2*%
%TO.N,N/C*%
X159780500Y-125646200D03*
D15*
%TO.P,AE4,1*%
X158305500Y-124121200D03*
D14*
%TO.P,AE4,2*%
X156830500Y-125646200D03*
%TD*%
%TO.P,AE3,2*%
%TO.N,N/C*%
X145251700Y-125773200D03*
D15*
%TO.P,AE3,1*%
%TO.N,Net-(AE3-Pad1)*%
X143776700Y-124248200D03*
D14*
%TO.P,AE3,2*%
%TO.N,N/C*%
X142301700Y-125773200D03*
%TD*%
%TO.P,AE2,2*%
%TO.N,N/C*%
X138038100Y-126001800D03*
D15*
%TO.P,AE2,1*%
%TO.N,Net-(AE2-Pad1)*%
X136563100Y-124476800D03*
D14*
%TO.P,AE2,2*%
%TO.N,N/C*%
X135088100Y-126001800D03*
%TD*%
%TO.P,AE1,2*%
%TO.N,N/C*%
X130773700Y-126179600D03*
D15*
%TO.P,AE1,1*%
%TO.N,Net-(AE1-Pad1)*%
X129298700Y-124654600D03*
D14*
%TO.P,AE1,2*%
%TO.N,N/C*%
X127823700Y-126179600D03*
%TD*%
%TO.P,U1,48*%
%TO.N,N/C*%
%TA.AperFunction,SMDPad,CuDef*%
G36*
G01*
X138656800Y-79354400D02*
X137906800Y-79354400D01*
G75*
G02*
X137844300Y-79291900I0J62500D01*
G01*
X137844300Y-79166900D01*
G75*
G02*
X137906800Y-79104400I62500J0D01*
G01*
X138656800Y-79104400D01*
G75*
G02*
X138719300Y-79166900I0J-62500D01*
G01*
X138719300Y-79291900D01*
G75*
G02*
X138656800Y-79354400I-62500J0D01*
G01*
G37*
%TD.AperFunction*%
%TO.P,U1,47*%
%TA.AperFunction,SMDPad,CuDef*%
G36*
G01*
X138656800Y-78854400D02*
X137906800Y-78854400D01*
G75*
G02*
X137844300Y-78791900I0J62500D01*
G01*
X137844300Y-78666900D01*
G75*
G02*
X137906800Y-78604400I62500J0D01*
G01*
X138656800Y-78604400D01*
G75*
G02*
X138719300Y-78666900I0J-62500D01*
G01*
X138719300Y-78791900D01*
G75*
G02*
X138656800Y-78854400I-62500J0D01*
G01*
G37*
%TD.AperFunction*%
%TO.P,U1,46*%
%TA.AperFunction,SMDPad,CuDef*%
G36*
G01*
X138656800Y-78354400D02*
X137906800Y-78354400D01*
G75*
G02*
X137844300Y-78291900I0J62500D01*
G01*
X137844300Y-78166900D01*
G75*
G02*
X137906800Y-78104400I62500J0D01*
G01*
X138656800Y-78104400D01*
G75*
G02*
X138719300Y-78166900I0J-62500D01*
G01*
X138719300Y-78291900D01*
G75*
G02*
X138656800Y-78354400I-62500J0D01*
G01*
G37*
%TD.AperFunction*%
%TO.P,U1,45*%
%TA.AperFunction,SMDPad,CuDef*%
G36*
G01*
X138656800Y-77854400D02*
X137906800Y-77854400D01*
G75*
G02*
X137844300Y-77791900I0J62500D01*
G01*
X137844300Y-77666900D01*
G75*
G02*
X137906800Y-77604400I62500J0D01*
G01*
X138656800Y-77604400D01*
G75*
G02*
X138719300Y-77666900I0J-62500D01*
G01*
X138719300Y-77791900D01*
G75*
G02*
X138656800Y-77854400I-62500J0D01*
G01*
G37*
%TD.AperFunction*%
%TO.P,U1,44*%
%TA.AperFunction,SMDPad,CuDef*%
G36*
G01*
X138656800Y-77354400D02*
X137906800Y-77354400D01*
G75*
G02*
X137844300Y-77291900I0J62500D01*
G01*
X137844300Y-77166900D01*
G75*
G02*
X137906800Y-77104400I62500J0D01*
G01*
X138656800Y-77104400D01*
G75*
G02*
X138719300Y-77166900I0J-62500D01*
G01*
X138719300Y-77291900D01*
G75*
G02*
X138656800Y-77354400I-62500J0D01*
G01*
G37*
%TD.AperFunction*%
%TO.P,U1,43*%
%TO.N,V2_SKY*%
%TA.AperFunction,SMDPad,CuDef*%
G36*
G01*
X138656800Y-76854400D02*
X137906800Y-76854400D01*
G75*
G02*
X137844300Y-76791900I0J62500D01*
G01*
X137844300Y-76666900D01*
G75*
G02*
X137906800Y-76604400I62500J0D01*
G01*
X138656800Y-76604400D01*
G75*
G02*
X138719300Y-76666900I0J-62500D01*
G01*
X138719300Y-76791900D01*
G75*
G02*
X138656800Y-76854400I-62500J0D01*
G01*
G37*
%TD.AperFunction*%
%TO.P,U1,42*%
%TO.N,V1_SKY*%
%TA.AperFunction,SMDPad,CuDef*%
G36*
G01*
X138656800Y-76354400D02*
X137906800Y-76354400D01*
G75*
G02*
X137844300Y-76291900I0J62500D01*
G01*
X137844300Y-76166900D01*
G75*
G02*
X137906800Y-76104400I62500J0D01*
G01*
X138656800Y-76104400D01*
G75*
G02*
X138719300Y-76166900I0J-62500D01*
G01*
X138719300Y-76291900D01*
G75*
G02*
X138656800Y-76354400I-62500J0D01*
G01*
G37*
%TD.AperFunction*%
%TO.P,U1,41*%
%TO.N,V3_SKY*%
%TA.AperFunction,SMDPad,CuDef*%
G36*
G01*
X138656800Y-75854400D02*
X137906800Y-75854400D01*
G75*
G02*
X137844300Y-75791900I0J62500D01*
G01*
X137844300Y-75666900D01*
G75*
G02*
X137906800Y-75604400I62500J0D01*
G01*
X138656800Y-75604400D01*
G75*
G02*
X138719300Y-75666900I0J-62500D01*
G01*
X138719300Y-75791900D01*
G75*
G02*
X138656800Y-75854400I-62500J0D01*
G01*
G37*
%TD.AperFunction*%
%TO.P,U1,40*%
%TO.N,N/C*%
%TA.AperFunction,SMDPad,CuDef*%
G36*
G01*
X138656800Y-75354400D02*
X137906800Y-75354400D01*
G75*
G02*
X137844300Y-75291900I0J62500D01*
G01*
X137844300Y-75166900D01*
G75*
G02*
X137906800Y-75104400I62500J0D01*
G01*
X138656800Y-75104400D01*
G75*
G02*
X138719300Y-75166900I0J-62500D01*
G01*
X138719300Y-75291900D01*
G75*
G02*
X138656800Y-75354400I-62500J0D01*
G01*
G37*
%TD.AperFunction*%
%TO.P,U1,39*%
%TA.AperFunction,SMDPad,CuDef*%
G36*
G01*
X138656800Y-74854400D02*
X137906800Y-74854400D01*
G75*
G02*
X137844300Y-74791900I0J62500D01*
G01*
X137844300Y-74666900D01*
G75*
G02*
X137906800Y-74604400I62500J0D01*
G01*
X138656800Y-74604400D01*
G75*
G02*
X138719300Y-74666900I0J-62500D01*
G01*
X138719300Y-74791900D01*
G75*
G02*
X138656800Y-74854400I-62500J0D01*
G01*
G37*
%TD.AperFunction*%
%TO.P,U1,38*%
%TA.AperFunction,SMDPad,CuDef*%
G36*
G01*
X138656800Y-74354400D02*
X137906800Y-74354400D01*
G75*
G02*
X137844300Y-74291900I0J62500D01*
G01*
X137844300Y-74166900D01*
G75*
G02*
X137906800Y-74104400I62500J0D01*
G01*
X138656800Y-74104400D01*
G75*
G02*
X138719300Y-74166900I0J-62500D01*
G01*
X138719300Y-74291900D01*
G75*
G02*
X138656800Y-74354400I-62500J0D01*
G01*
G37*
%TD.AperFunction*%
%TO.P,U1,37*%
%TA.AperFunction,SMDPad,CuDef*%
G36*
G01*
X138656800Y-73854400D02*
X137906800Y-73854400D01*
G75*
G02*
X137844300Y-73791900I0J62500D01*
G01*
X137844300Y-73666900D01*
G75*
G02*
X137906800Y-73604400I62500J0D01*
G01*
X138656800Y-73604400D01*
G75*
G02*
X138719300Y-73666900I0J-62500D01*
G01*
X138719300Y-73791900D01*
G75*
G02*
X138656800Y-73854400I-62500J0D01*
G01*
G37*
%TD.AperFunction*%
%TO.P,U1,36*%
%TA.AperFunction,SMDPad,CuDef*%
G36*
G01*
X139031800Y-73479400D02*
X138906800Y-73479400D01*
G75*
G02*
X138844300Y-73416900I0J62500D01*
G01*
X138844300Y-72666900D01*
G75*
G02*
X138906800Y-72604400I62500J0D01*
G01*
X139031800Y-72604400D01*
G75*
G02*
X139094300Y-72666900I0J-62500D01*
G01*
X139094300Y-73416900D01*
G75*
G02*
X139031800Y-73479400I-62500J0D01*
G01*
G37*
%TD.AperFunction*%
%TO.P,U1,35*%
%TA.AperFunction,SMDPad,CuDef*%
G36*
G01*
X139531800Y-73479400D02*
X139406800Y-73479400D01*
G75*
G02*
X139344300Y-73416900I0J62500D01*
G01*
X139344300Y-72666900D01*
G75*
G02*
X139406800Y-72604400I62500J0D01*
G01*
X139531800Y-72604400D01*
G75*
G02*
X139594300Y-72666900I0J-62500D01*
G01*
X139594300Y-73416900D01*
G75*
G02*
X139531800Y-73479400I-62500J0D01*
G01*
G37*
%TD.AperFunction*%
%TO.P,U1,34*%
%TA.AperFunction,SMDPad,CuDef*%
G36*
G01*
X140031800Y-73479400D02*
X139906800Y-73479400D01*
G75*
G02*
X139844300Y-73416900I0J62500D01*
G01*
X139844300Y-72666900D01*
G75*
G02*
X139906800Y-72604400I62500J0D01*
G01*
X140031800Y-72604400D01*
G75*
G02*
X140094300Y-72666900I0J-62500D01*
G01*
X140094300Y-73416900D01*
G75*
G02*
X140031800Y-73479400I-62500J0D01*
G01*
G37*
%TD.AperFunction*%
%TO.P,U1,33*%
%TA.AperFunction,SMDPad,CuDef*%
G36*
G01*
X140531800Y-73479400D02*
X140406800Y-73479400D01*
G75*
G02*
X140344300Y-73416900I0J62500D01*
G01*
X140344300Y-72666900D01*
G75*
G02*
X140406800Y-72604400I62500J0D01*
G01*
X140531800Y-72604400D01*
G75*
G02*
X140594300Y-72666900I0J-62500D01*
G01*
X140594300Y-73416900D01*
G75*
G02*
X140531800Y-73479400I-62500J0D01*
G01*
G37*
%TD.AperFunction*%
%TO.P,U1,32*%
%TA.AperFunction,SMDPad,CuDef*%
G36*
G01*
X141031800Y-73479400D02*
X140906800Y-73479400D01*
G75*
G02*
X140844300Y-73416900I0J62500D01*
G01*
X140844300Y-72666900D01*
G75*
G02*
X140906800Y-72604400I62500J0D01*
G01*
X141031800Y-72604400D01*
G75*
G02*
X141094300Y-72666900I0J-62500D01*
G01*
X141094300Y-73416900D01*
G75*
G02*
X141031800Y-73479400I-62500J0D01*
G01*
G37*
%TD.AperFunction*%
%TO.P,U1,31*%
%TA.AperFunction,SMDPad,CuDef*%
G36*
G01*
X141531800Y-73479400D02*
X141406800Y-73479400D01*
G75*
G02*
X141344300Y-73416900I0J62500D01*
G01*
X141344300Y-72666900D01*
G75*
G02*
X141406800Y-72604400I62500J0D01*
G01*
X141531800Y-72604400D01*
G75*
G02*
X141594300Y-72666900I0J-62500D01*
G01*
X141594300Y-73416900D01*
G75*
G02*
X141531800Y-73479400I-62500J0D01*
G01*
G37*
%TD.AperFunction*%
%TO.P,U1,30*%
%TA.AperFunction,SMDPad,CuDef*%
G36*
G01*
X142031800Y-73479400D02*
X141906800Y-73479400D01*
G75*
G02*
X141844300Y-73416900I0J62500D01*
G01*
X141844300Y-72666900D01*
G75*
G02*
X141906800Y-72604400I62500J0D01*
G01*
X142031800Y-72604400D01*
G75*
G02*
X142094300Y-72666900I0J-62500D01*
G01*
X142094300Y-73416900D01*
G75*
G02*
X142031800Y-73479400I-62500J0D01*
G01*
G37*
%TD.AperFunction*%
%TO.P,U1,29*%
%TA.AperFunction,SMDPad,CuDef*%
G36*
G01*
X142531800Y-73479400D02*
X142406800Y-73479400D01*
G75*
G02*
X142344300Y-73416900I0J62500D01*
G01*
X142344300Y-72666900D01*
G75*
G02*
X142406800Y-72604400I62500J0D01*
G01*
X142531800Y-72604400D01*
G75*
G02*
X142594300Y-72666900I0J-62500D01*
G01*
X142594300Y-73416900D01*
G75*
G02*
X142531800Y-73479400I-62500J0D01*
G01*
G37*
%TD.AperFunction*%
%TO.P,U1,28*%
%TA.AperFunction,SMDPad,CuDef*%
G36*
G01*
X143031800Y-73479400D02*
X142906800Y-73479400D01*
G75*
G02*
X142844300Y-73416900I0J62500D01*
G01*
X142844300Y-72666900D01*
G75*
G02*
X142906800Y-72604400I62500J0D01*
G01*
X143031800Y-72604400D01*
G75*
G02*
X143094300Y-72666900I0J-62500D01*
G01*
X143094300Y-73416900D01*
G75*
G02*
X143031800Y-73479400I-62500J0D01*
G01*
G37*
%TD.AperFunction*%
%TO.P,U1,27*%
%TA.AperFunction,SMDPad,CuDef*%
G36*
G01*
X143531800Y-73479400D02*
X143406800Y-73479400D01*
G75*
G02*
X143344300Y-73416900I0J62500D01*
G01*
X143344300Y-72666900D01*
G75*
G02*
X143406800Y-72604400I62500J0D01*
G01*
X143531800Y-72604400D01*
G75*
G02*
X143594300Y-72666900I0J-62500D01*
G01*
X143594300Y-73416900D01*
G75*
G02*
X143531800Y-73479400I-62500J0D01*
G01*
G37*
%TD.AperFunction*%
%TO.P,U1,26*%
%TA.AperFunction,SMDPad,CuDef*%
G36*
G01*
X144031800Y-73479400D02*
X143906800Y-73479400D01*
G75*
G02*
X143844300Y-73416900I0J62500D01*
G01*
X143844300Y-72666900D01*
G75*
G02*
X143906800Y-72604400I62500J0D01*
G01*
X144031800Y-72604400D01*
G75*
G02*
X144094300Y-72666900I0J-62500D01*
G01*
X144094300Y-73416900D01*
G75*
G02*
X144031800Y-73479400I-62500J0D01*
G01*
G37*
%TD.AperFunction*%
%TO.P,U1,25*%
%TA.AperFunction,SMDPad,CuDef*%
G36*
G01*
X144531800Y-73479400D02*
X144406800Y-73479400D01*
G75*
G02*
X144344300Y-73416900I0J62500D01*
G01*
X144344300Y-72666900D01*
G75*
G02*
X144406800Y-72604400I62500J0D01*
G01*
X144531800Y-72604400D01*
G75*
G02*
X144594300Y-72666900I0J-62500D01*
G01*
X144594300Y-73416900D01*
G75*
G02*
X144531800Y-73479400I-62500J0D01*
G01*
G37*
%TD.AperFunction*%
%TO.P,U1,24*%
%TA.AperFunction,SMDPad,CuDef*%
G36*
G01*
X145531800Y-73854400D02*
X144781800Y-73854400D01*
G75*
G02*
X144719300Y-73791900I0J62500D01*
G01*
X144719300Y-73666900D01*
G75*
G02*
X144781800Y-73604400I62500J0D01*
G01*
X145531800Y-73604400D01*
G75*
G02*
X145594300Y-73666900I0J-62500D01*
G01*
X145594300Y-73791900D01*
G75*
G02*
X145531800Y-73854400I-62500J0D01*
G01*
G37*
%TD.AperFunction*%
%TO.P,U1,23*%
%TA.AperFunction,SMDPad,CuDef*%
G36*
G01*
X145531800Y-74354400D02*
X144781800Y-74354400D01*
G75*
G02*
X144719300Y-74291900I0J62500D01*
G01*
X144719300Y-74166900D01*
G75*
G02*
X144781800Y-74104400I62500J0D01*
G01*
X145531800Y-74104400D01*
G75*
G02*
X145594300Y-74166900I0J-62500D01*
G01*
X145594300Y-74291900D01*
G75*
G02*
X145531800Y-74354400I-62500J0D01*
G01*
G37*
%TD.AperFunction*%
%TO.P,U1,22*%
%TA.AperFunction,SMDPad,CuDef*%
G36*
G01*
X145531800Y-74854400D02*
X144781800Y-74854400D01*
G75*
G02*
X144719300Y-74791900I0J62500D01*
G01*
X144719300Y-74666900D01*
G75*
G02*
X144781800Y-74604400I62500J0D01*
G01*
X145531800Y-74604400D01*
G75*
G02*
X145594300Y-74666900I0J-62500D01*
G01*
X145594300Y-74791900D01*
G75*
G02*
X145531800Y-74854400I-62500J0D01*
G01*
G37*
%TD.AperFunction*%
%TO.P,U1,21*%
%TA.AperFunction,SMDPad,CuDef*%
G36*
G01*
X145531800Y-75354400D02*
X144781800Y-75354400D01*
G75*
G02*
X144719300Y-75291900I0J62500D01*
G01*
X144719300Y-75166900D01*
G75*
G02*
X144781800Y-75104400I62500J0D01*
G01*
X145531800Y-75104400D01*
G75*
G02*
X145594300Y-75166900I0J-62500D01*
G01*
X145594300Y-75291900D01*
G75*
G02*
X145531800Y-75354400I-62500J0D01*
G01*
G37*
%TD.AperFunction*%
%TO.P,U1,20*%
%TA.AperFunction,SMDPad,CuDef*%
G36*
G01*
X145531800Y-75854400D02*
X144781800Y-75854400D01*
G75*
G02*
X144719300Y-75791900I0J62500D01*
G01*
X144719300Y-75666900D01*
G75*
G02*
X144781800Y-75604400I62500J0D01*
G01*
X145531800Y-75604400D01*
G75*
G02*
X145594300Y-75666900I0J-62500D01*
G01*
X145594300Y-75791900D01*
G75*
G02*
X145531800Y-75854400I-62500J0D01*
G01*
G37*
%TD.AperFunction*%
%TO.P,U1,19*%
%TA.AperFunction,SMDPad,CuDef*%
G36*
G01*
X145531800Y-76354400D02*
X144781800Y-76354400D01*
G75*
G02*
X144719300Y-76291900I0J62500D01*
G01*
X144719300Y-76166900D01*
G75*
G02*
X144781800Y-76104400I62500J0D01*
G01*
X145531800Y-76104400D01*
G75*
G02*
X145594300Y-76166900I0J-62500D01*
G01*
X145594300Y-76291900D01*
G75*
G02*
X145531800Y-76354400I-62500J0D01*
G01*
G37*
%TD.AperFunction*%
%TO.P,U1,18*%
%TA.AperFunction,SMDPad,CuDef*%
G36*
G01*
X145531800Y-76854400D02*
X144781800Y-76854400D01*
G75*
G02*
X144719300Y-76791900I0J62500D01*
G01*
X144719300Y-76666900D01*
G75*
G02*
X144781800Y-76604400I62500J0D01*
G01*
X145531800Y-76604400D01*
G75*
G02*
X145594300Y-76666900I0J-62500D01*
G01*
X145594300Y-76791900D01*
G75*
G02*
X145531800Y-76854400I-62500J0D01*
G01*
G37*
%TD.AperFunction*%
%TO.P,U1,17*%
%TA.AperFunction,SMDPad,CuDef*%
G36*
G01*
X145531800Y-77354400D02*
X144781800Y-77354400D01*
G75*
G02*
X144719300Y-77291900I0J62500D01*
G01*
X144719300Y-77166900D01*
G75*
G02*
X144781800Y-77104400I62500J0D01*
G01*
X145531800Y-77104400D01*
G75*
G02*
X145594300Y-77166900I0J-62500D01*
G01*
X145594300Y-77291900D01*
G75*
G02*
X145531800Y-77354400I-62500J0D01*
G01*
G37*
%TD.AperFunction*%
%TO.P,U1,16*%
%TA.AperFunction,SMDPad,CuDef*%
G36*
G01*
X145531800Y-77854400D02*
X144781800Y-77854400D01*
G75*
G02*
X144719300Y-77791900I0J62500D01*
G01*
X144719300Y-77666900D01*
G75*
G02*
X144781800Y-77604400I62500J0D01*
G01*
X145531800Y-77604400D01*
G75*
G02*
X145594300Y-77666900I0J-62500D01*
G01*
X145594300Y-77791900D01*
G75*
G02*
X145531800Y-77854400I-62500J0D01*
G01*
G37*
%TD.AperFunction*%
%TO.P,U1,15*%
%TA.AperFunction,SMDPad,CuDef*%
G36*
G01*
X145531800Y-78354400D02*
X144781800Y-78354400D01*
G75*
G02*
X144719300Y-78291900I0J62500D01*
G01*
X144719300Y-78166900D01*
G75*
G02*
X144781800Y-78104400I62500J0D01*
G01*
X145531800Y-78104400D01*
G75*
G02*
X145594300Y-78166900I0J-62500D01*
G01*
X145594300Y-78291900D01*
G75*
G02*
X145531800Y-78354400I-62500J0D01*
G01*
G37*
%TD.AperFunction*%
%TO.P,U1,14*%
%TA.AperFunction,SMDPad,CuDef*%
G36*
G01*
X145531800Y-78854400D02*
X144781800Y-78854400D01*
G75*
G02*
X144719300Y-78791900I0J62500D01*
G01*
X144719300Y-78666900D01*
G75*
G02*
X144781800Y-78604400I62500J0D01*
G01*
X145531800Y-78604400D01*
G75*
G02*
X145594300Y-78666900I0J-62500D01*
G01*
X145594300Y-78791900D01*
G75*
G02*
X145531800Y-78854400I-62500J0D01*
G01*
G37*
%TD.AperFunction*%
%TO.P,U1,13*%
%TA.AperFunction,SMDPad,CuDef*%
G36*
G01*
X145531800Y-79354400D02*
X144781800Y-79354400D01*
G75*
G02*
X144719300Y-79291900I0J62500D01*
G01*
X144719300Y-79166900D01*
G75*
G02*
X144781800Y-79104400I62500J0D01*
G01*
X145531800Y-79104400D01*
G75*
G02*
X145594300Y-79166900I0J-62500D01*
G01*
X145594300Y-79291900D01*
G75*
G02*
X145531800Y-79354400I-62500J0D01*
G01*
G37*
%TD.AperFunction*%
%TO.P,U1,12*%
%TA.AperFunction,SMDPad,CuDef*%
G36*
G01*
X144531800Y-80354400D02*
X144406800Y-80354400D01*
G75*
G02*
X144344300Y-80291900I0J62500D01*
G01*
X144344300Y-79541900D01*
G75*
G02*
X144406800Y-79479400I62500J0D01*
G01*
X144531800Y-79479400D01*
G75*
G02*
X144594300Y-79541900I0J-62500D01*
G01*
X144594300Y-80291900D01*
G75*
G02*
X144531800Y-80354400I-62500J0D01*
G01*
G37*
%TD.AperFunction*%
%TO.P,U1,11*%
%TA.AperFunction,SMDPad,CuDef*%
G36*
G01*
X144031800Y-80354400D02*
X143906800Y-80354400D01*
G75*
G02*
X143844300Y-80291900I0J62500D01*
G01*
X143844300Y-79541900D01*
G75*
G02*
X143906800Y-79479400I62500J0D01*
G01*
X144031800Y-79479400D01*
G75*
G02*
X144094300Y-79541900I0J-62500D01*
G01*
X144094300Y-80291900D01*
G75*
G02*
X144031800Y-80354400I-62500J0D01*
G01*
G37*
%TD.AperFunction*%
%TO.P,U1,10*%
%TA.AperFunction,SMDPad,CuDef*%
G36*
G01*
X143531800Y-80354400D02*
X143406800Y-80354400D01*
G75*
G02*
X143344300Y-80291900I0J62500D01*
G01*
X143344300Y-79541900D01*
G75*
G02*
X143406800Y-79479400I62500J0D01*
G01*
X143531800Y-79479400D01*
G75*
G02*
X143594300Y-79541900I0J-62500D01*
G01*
X143594300Y-80291900D01*
G75*
G02*
X143531800Y-80354400I-62500J0D01*
G01*
G37*
%TD.AperFunction*%
%TO.P,U1,9*%
%TA.AperFunction,SMDPad,CuDef*%
G36*
G01*
X143031800Y-80354400D02*
X142906800Y-80354400D01*
G75*
G02*
X142844300Y-80291900I0J62500D01*
G01*
X142844300Y-79541900D01*
G75*
G02*
X142906800Y-79479400I62500J0D01*
G01*
X143031800Y-79479400D01*
G75*
G02*
X143094300Y-79541900I0J-62500D01*
G01*
X143094300Y-80291900D01*
G75*
G02*
X143031800Y-80354400I-62500J0D01*
G01*
G37*
%TD.AperFunction*%
%TO.P,U1,8*%
%TA.AperFunction,SMDPad,CuDef*%
G36*
G01*
X142531800Y-80354400D02*
X142406800Y-80354400D01*
G75*
G02*
X142344300Y-80291900I0J62500D01*
G01*
X142344300Y-79541900D01*
G75*
G02*
X142406800Y-79479400I62500J0D01*
G01*
X142531800Y-79479400D01*
G75*
G02*
X142594300Y-79541900I0J-62500D01*
G01*
X142594300Y-80291900D01*
G75*
G02*
X142531800Y-80354400I-62500J0D01*
G01*
G37*
%TD.AperFunction*%
%TO.P,U1,7*%
%TO.N,RX_TX*%
%TA.AperFunction,SMDPad,CuDef*%
G36*
G01*
X142031800Y-80354400D02*
X141906800Y-80354400D01*
G75*
G02*
X141844300Y-80291900I0J62500D01*
G01*
X141844300Y-79541900D01*
G75*
G02*
X141906800Y-79479400I62500J0D01*
G01*
X142031800Y-79479400D01*
G75*
G02*
X142094300Y-79541900I0J-62500D01*
G01*
X142094300Y-80291900D01*
G75*
G02*
X142031800Y-80354400I-62500J0D01*
G01*
G37*
%TD.AperFunction*%
%TO.P,U1,6*%
%TO.N,RX_20dB_N*%
%TA.AperFunction,SMDPad,CuDef*%
G36*
G01*
X141531800Y-80354400D02*
X141406800Y-80354400D01*
G75*
G02*
X141344300Y-80291900I0J62500D01*
G01*
X141344300Y-79541900D01*
G75*
G02*
X141406800Y-79479400I62500J0D01*
G01*
X141531800Y-79479400D01*
G75*
G02*
X141594300Y-79541900I0J-62500D01*
G01*
X141594300Y-80291900D01*
G75*
G02*
X141531800Y-80354400I-62500J0D01*
G01*
G37*
%TD.AperFunction*%
%TO.P,U1,5*%
%TO.N,TX_20dB_P*%
%TA.AperFunction,SMDPad,CuDef*%
G36*
G01*
X141031800Y-80354400D02*
X140906800Y-80354400D01*
G75*
G02*
X140844300Y-80291900I0J62500D01*
G01*
X140844300Y-79541900D01*
G75*
G02*
X140906800Y-79479400I62500J0D01*
G01*
X141031800Y-79479400D01*
G75*
G02*
X141094300Y-79541900I0J-62500D01*
G01*
X141094300Y-80291900D01*
G75*
G02*
X141031800Y-80354400I-62500J0D01*
G01*
G37*
%TD.AperFunction*%
%TO.P,U1,4*%
%TO.N,SUB1N*%
%TA.AperFunction,SMDPad,CuDef*%
G36*
G01*
X140531800Y-80354400D02*
X140406800Y-80354400D01*
G75*
G02*
X140344300Y-80291900I0J62500D01*
G01*
X140344300Y-79541900D01*
G75*
G02*
X140406800Y-79479400I62500J0D01*
G01*
X140531800Y-79479400D01*
G75*
G02*
X140594300Y-79541900I0J-62500D01*
G01*
X140594300Y-80291900D01*
G75*
G02*
X140531800Y-80354400I-62500J0D01*
G01*
G37*
%TD.AperFunction*%
%TO.P,U1,3*%
%TO.N,SUB1P*%
%TA.AperFunction,SMDPad,CuDef*%
G36*
G01*
X140031800Y-80354400D02*
X139906800Y-80354400D01*
G75*
G02*
X139844300Y-80291900I0J62500D01*
G01*
X139844300Y-79541900D01*
G75*
G02*
X139906800Y-79479400I62500J0D01*
G01*
X140031800Y-79479400D01*
G75*
G02*
X140094300Y-79541900I0J-62500D01*
G01*
X140094300Y-80291900D01*
G75*
G02*
X140031800Y-80354400I-62500J0D01*
G01*
G37*
%TD.AperFunction*%
%TO.P,U1,2*%
%TO.N,2.4N*%
%TA.AperFunction,SMDPad,CuDef*%
G36*
G01*
X139531800Y-80354400D02*
X139406800Y-80354400D01*
G75*
G02*
X139344300Y-80291900I0J62500D01*
G01*
X139344300Y-79541900D01*
G75*
G02*
X139406800Y-79479400I62500J0D01*
G01*
X139531800Y-79479400D01*
G75*
G02*
X139594300Y-79541900I0J-62500D01*
G01*
X139594300Y-80291900D01*
G75*
G02*
X139531800Y-80354400I-62500J0D01*
G01*
G37*
%TD.AperFunction*%
%TO.P,U1,1*%
%TO.N,2.4P*%
%TA.AperFunction,SMDPad,CuDef*%
G36*
G01*
X139031800Y-80354400D02*
X138906800Y-80354400D01*
G75*
G02*
X138844300Y-80291900I0J62500D01*
G01*
X138844300Y-79541900D01*
G75*
G02*
X138906800Y-79479400I62500J0D01*
G01*
X139031800Y-79479400D01*
G75*
G02*
X139094300Y-79541900I0J-62500D01*
G01*
X139094300Y-80291900D01*
G75*
G02*
X139031800Y-80354400I-62500J0D01*
G01*
G37*
%TD.AperFunction*%
%TO.P,U1,49*%
%TO.N,N/C*%
%TA.AperFunction,SMDPad,CuDef*%
G36*
G01*
X144044299Y-79054400D02*
X139394301Y-79054400D01*
G75*
G02*
X139144300Y-78804399I0J250001D01*
G01*
X139144300Y-74154401D01*
G75*
G02*
X139394301Y-73904400I250001J0D01*
G01*
X144044299Y-73904400D01*
G75*
G02*
X144294300Y-74154401I0J-250001D01*
G01*
X144294300Y-78804399D01*
G75*
G02*
X144044299Y-79054400I-250001J0D01*
G01*
G37*
%TD.AperFunction*%
%TD*%
%TO.P,L340,2*%
%TO.N,Net-(C487-Pad2)*%
%TA.AperFunction,SMDPad,CuDef*%
G36*
G01*
X132430099Y-93312400D02*
X133330101Y-93312400D01*
G75*
G02*
X133580100Y-93562399I0J-249999D01*
G01*
X133580100Y-94212401D01*
G75*
G02*
X133330101Y-94462400I-249999J0D01*
G01*
X132430099Y-94462400D01*
G75*
G02*
X132180100Y-94212401I0J249999D01*
G01*
X132180100Y-93562399D01*
G75*
G02*
X132430099Y-93312400I249999J0D01*
G01*
G37*
%TD.AperFunction*%
%TO.P,L340,1*%
%TO.N,SUB1P*%
%TA.AperFunction,SMDPad,CuDef*%
G36*
G01*
X132430099Y-91262400D02*
X133330101Y-91262400D01*
G75*
G02*
X133580100Y-91512399I0J-249999D01*
G01*
X133580100Y-92162401D01*
G75*
G02*
X133330101Y-92412400I-249999J0D01*
G01*
X132430099Y-92412400D01*
G75*
G02*
X132180100Y-92162401I0J249999D01*
G01*
X132180100Y-91512399D01*
G75*
G02*
X132430099Y-91262400I249999J0D01*
G01*
G37*
%TD.AperFunction*%
%TD*%
%TO.P,L339,2*%
%TO.N,Net-(C487-Pad2)*%
%TA.AperFunction,SMDPad,CuDef*%
G36*
G01*
X134970100Y-100032399D02*
X134970100Y-100932401D01*
G75*
G02*
X134720101Y-101182400I-249999J0D01*
G01*
X134070099Y-101182400D01*
G75*
G02*
X133820100Y-100932401I0J249999D01*
G01*
X133820100Y-100032399D01*
G75*
G02*
X134070099Y-99782400I249999J0D01*
G01*
X134720101Y-99782400D01*
G75*
G02*
X134970100Y-100032399I0J-249999D01*
G01*
G37*
%TD.AperFunction*%
%TO.P,L339,1*%
%TO.N,Net-(C487-Pad1)*%
%TA.AperFunction,SMDPad,CuDef*%
G36*
G01*
X137020100Y-100032399D02*
X137020100Y-100932401D01*
G75*
G02*
X136770101Y-101182400I-249999J0D01*
G01*
X136120099Y-101182400D01*
G75*
G02*
X135870100Y-100932401I0J249999D01*
G01*
X135870100Y-100032399D01*
G75*
G02*
X136120099Y-99782400I249999J0D01*
G01*
X136770101Y-99782400D01*
G75*
G02*
X137020100Y-100032399I0J-249999D01*
G01*
G37*
%TD.AperFunction*%
%TD*%
%TO.P,L338,2*%
%TO.N,Net-(C487-Pad1)*%
%TA.AperFunction,SMDPad,CuDef*%
G36*
G01*
X136240099Y-93312400D02*
X137140101Y-93312400D01*
G75*
G02*
X137390100Y-93562399I0J-249999D01*
G01*
X137390100Y-94212401D01*
G75*
G02*
X137140101Y-94462400I-249999J0D01*
G01*
X136240099Y-94462400D01*
G75*
G02*
X135990100Y-94212401I0J249999D01*
G01*
X135990100Y-93562399D01*
G75*
G02*
X136240099Y-93312400I249999J0D01*
G01*
G37*
%TD.AperFunction*%
%TO.P,L338,1*%
%TO.N,SUB1N*%
%TA.AperFunction,SMDPad,CuDef*%
G36*
G01*
X136240099Y-91262400D02*
X137140101Y-91262400D01*
G75*
G02*
X137390100Y-91512399I0J-249999D01*
G01*
X137390100Y-92162401D01*
G75*
G02*
X137140101Y-92412400I-249999J0D01*
G01*
X136240099Y-92412400D01*
G75*
G02*
X135990100Y-92162401I0J249999D01*
G01*
X135990100Y-91512399D01*
G75*
G02*
X136240099Y-91262400I249999J0D01*
G01*
G37*
%TD.AperFunction*%
%TD*%
%TO.P,L337,2*%
%TO.N,Net-(C36-Pad1)*%
%TA.AperFunction,SMDPad,CuDef*%
G36*
G01*
X134970100Y-115272399D02*
X134970100Y-116172401D01*
G75*
G02*
X134720101Y-116422400I-249999J0D01*
G01*
X134070099Y-116422400D01*
G75*
G02*
X133820100Y-116172401I0J249999D01*
G01*
X133820100Y-115272399D01*
G75*
G02*
X134070099Y-115022400I249999J0D01*
G01*
X134720101Y-115022400D01*
G75*
G02*
X134970100Y-115272399I0J-249999D01*
G01*
G37*
%TD.AperFunction*%
%TO.P,L337,1*%
%TO.N,Net-(C33-Pad1)*%
%TA.AperFunction,SMDPad,CuDef*%
G36*
G01*
X137020100Y-115272399D02*
X137020100Y-116172401D01*
G75*
G02*
X136770101Y-116422400I-249999J0D01*
G01*
X136120099Y-116422400D01*
G75*
G02*
X135870100Y-116172401I0J249999D01*
G01*
X135870100Y-115272399D01*
G75*
G02*
X136120099Y-115022400I249999J0D01*
G01*
X136770101Y-115022400D01*
G75*
G02*
X137020100Y-115272399I0J-249999D01*
G01*
G37*
%TD.AperFunction*%
%TD*%
%TO.P,L336,2*%
%TO.N,Net-(C33-Pad1)*%
%TA.AperFunction,SMDPad,CuDef*%
G36*
G01*
X134970100Y-107652399D02*
X134970100Y-108552401D01*
G75*
G02*
X134720101Y-108802400I-249999J0D01*
G01*
X134070099Y-108802400D01*
G75*
G02*
X133820100Y-108552401I0J249999D01*
G01*
X133820100Y-107652399D01*
G75*
G02*
X134070099Y-107402400I249999J0D01*
G01*
X134720101Y-107402400D01*
G75*
G02*
X134970100Y-107652399I0J-249999D01*
G01*
G37*
%TD.AperFunction*%
%TO.P,L336,1*%
%TO.N,Net-(C487-Pad2)*%
%TA.AperFunction,SMDPad,CuDef*%
G36*
G01*
X137020100Y-107652399D02*
X137020100Y-108552401D01*
G75*
G02*
X136770101Y-108802400I-249999J0D01*
G01*
X136120099Y-108802400D01*
G75*
G02*
X135870100Y-108552401I0J249999D01*
G01*
X135870100Y-107652399D01*
G75*
G02*
X136120099Y-107402400I249999J0D01*
G01*
X136770101Y-107402400D01*
G75*
G02*
X137020100Y-107652399I0J-249999D01*
G01*
G37*
%TD.AperFunction*%
%TD*%
%TO.P,L22,2*%
%TO.N,Net-(C12-Pad1)*%
%TA.AperFunction,SMDPad,CuDef*%
G36*
G01*
X129520100Y-92042401D02*
X129520100Y-91142399D01*
G75*
G02*
X129770099Y-90892400I249999J0D01*
G01*
X130420101Y-90892400D01*
G75*
G02*
X130670100Y-91142399I0J-249999D01*
G01*
X130670100Y-92042401D01*
G75*
G02*
X130420101Y-92292400I-249999J0D01*
G01*
X129770099Y-92292400D01*
G75*
G02*
X129520100Y-92042401I0J249999D01*
G01*
G37*
%TD.AperFunction*%
%TO.P,L22,1*%
%TO.N,2.4P*%
%TA.AperFunction,SMDPad,CuDef*%
G36*
G01*
X127470100Y-92042401D02*
X127470100Y-91142399D01*
G75*
G02*
X127720099Y-90892400I249999J0D01*
G01*
X128370101Y-90892400D01*
G75*
G02*
X128620100Y-91142399I0J-249999D01*
G01*
X128620100Y-92042401D01*
G75*
G02*
X128370101Y-92292400I-249999J0D01*
G01*
X127720099Y-92292400D01*
G75*
G02*
X127470100Y-92042401I0J249999D01*
G01*
G37*
%TD.AperFunction*%
%TD*%
%TO.P,L21,2*%
%TO.N,2.4P*%
%TA.AperFunction,SMDPad,CuDef*%
G36*
G01*
X128620100Y-88602399D02*
X128620100Y-89502401D01*
G75*
G02*
X128370101Y-89752400I-249999J0D01*
G01*
X127720099Y-89752400D01*
G75*
G02*
X127470100Y-89502401I0J249999D01*
G01*
X127470100Y-88602399D01*
G75*
G02*
X127720099Y-88352400I249999J0D01*
G01*
X128370101Y-88352400D01*
G75*
G02*
X128620100Y-88602399I0J-249999D01*
G01*
G37*
%TD.AperFunction*%
%TO.P,L21,1*%
%TO.N,2.4N*%
%TA.AperFunction,SMDPad,CuDef*%
G36*
G01*
X130670100Y-88602399D02*
X130670100Y-89502401D01*
G75*
G02*
X130420101Y-89752400I-249999J0D01*
G01*
X129770099Y-89752400D01*
G75*
G02*
X129520100Y-89502401I0J249999D01*
G01*
X129520100Y-88602399D01*
G75*
G02*
X129770099Y-88352400I249999J0D01*
G01*
X130420101Y-88352400D01*
G75*
G02*
X130670100Y-88602399I0J-249999D01*
G01*
G37*
%TD.AperFunction*%
%TD*%
%TO.P,L14,2*%
%TO.N,Net-(C14-Pad1)*%
%TA.AperFunction,SMDPad,CuDef*%
G36*
G01*
X128620100Y-101302399D02*
X128620100Y-102202401D01*
G75*
G02*
X128370101Y-102452400I-249999J0D01*
G01*
X127720099Y-102452400D01*
G75*
G02*
X127470100Y-102202401I0J249999D01*
G01*
X127470100Y-101302399D01*
G75*
G02*
X127720099Y-101052400I249999J0D01*
G01*
X128370101Y-101052400D01*
G75*
G02*
X128620100Y-101302399I0J-249999D01*
G01*
G37*
%TD.AperFunction*%
%TO.P,L14,1*%
%TO.N,Net-(C13-Pad1)*%
%TA.AperFunction,SMDPad,CuDef*%
G36*
G01*
X130670100Y-101302399D02*
X130670100Y-102202401D01*
G75*
G02*
X130420101Y-102452400I-249999J0D01*
G01*
X129770099Y-102452400D01*
G75*
G02*
X129520100Y-102202401I0J249999D01*
G01*
X129520100Y-101302399D01*
G75*
G02*
X129770099Y-101052400I249999J0D01*
G01*
X130420101Y-101052400D01*
G75*
G02*
X130670100Y-101302399I0J-249999D01*
G01*
G37*
%TD.AperFunction*%
%TD*%
%TO.P,L13,2*%
%TO.N,Net-(C13-Pad1)*%
%TA.AperFunction,SMDPad,CuDef*%
G36*
G01*
X129520100Y-97122401D02*
X129520100Y-96222399D01*
G75*
G02*
X129770099Y-95972400I249999J0D01*
G01*
X130420101Y-95972400D01*
G75*
G02*
X130670100Y-96222399I0J-249999D01*
G01*
X130670100Y-97122401D01*
G75*
G02*
X130420101Y-97372400I-249999J0D01*
G01*
X129770099Y-97372400D01*
G75*
G02*
X129520100Y-97122401I0J249999D01*
G01*
G37*
%TD.AperFunction*%
%TO.P,L13,1*%
%TO.N,Net-(C12-Pad1)*%
%TA.AperFunction,SMDPad,CuDef*%
G36*
G01*
X127470100Y-97122401D02*
X127470100Y-96222399D01*
G75*
G02*
X127720099Y-95972400I249999J0D01*
G01*
X128370101Y-95972400D01*
G75*
G02*
X128620100Y-96222399I0J-249999D01*
G01*
X128620100Y-97122401D01*
G75*
G02*
X128370101Y-97372400I-249999J0D01*
G01*
X127720099Y-97372400D01*
G75*
G02*
X127470100Y-97122401I0J249999D01*
G01*
G37*
%TD.AperFunction*%
%TD*%
%TO.P,C490,2*%
%TO.N,GND8*%
%TA.AperFunction,SMDPad,CuDef*%
G36*
G01*
X132085100Y-114002400D02*
X131135100Y-114002400D01*
G75*
G02*
X130885100Y-113752400I0J250000D01*
G01*
X130885100Y-113077400D01*
G75*
G02*
X131135100Y-112827400I250000J0D01*
G01*
X132085100Y-112827400D01*
G75*
G02*
X132335100Y-113077400I0J-250000D01*
G01*
X132335100Y-113752400D01*
G75*
G02*
X132085100Y-114002400I-250000J0D01*
G01*
G37*
%TD.AperFunction*%
%TO.P,C490,1*%
%TO.N,Net-(C36-Pad1)*%
%TA.AperFunction,SMDPad,CuDef*%
G36*
G01*
X132085100Y-116077400D02*
X131135100Y-116077400D01*
G75*
G02*
X130885100Y-115827400I0J250000D01*
G01*
X130885100Y-115152400D01*
G75*
G02*
X131135100Y-114902400I250000J0D01*
G01*
X132085100Y-114902400D01*
G75*
G02*
X132335100Y-115152400I0J-250000D01*
G01*
X132335100Y-115827400D01*
G75*
G02*
X132085100Y-116077400I-250000J0D01*
G01*
G37*
%TD.AperFunction*%
%TD*%
%TO.P,C489,2*%
%TO.N,Net-(C487-Pad1)*%
%TA.AperFunction,SMDPad,CuDef*%
G36*
G01*
X139070100Y-106382400D02*
X138120100Y-106382400D01*
G75*
G02*
X137870100Y-106132400I0J250000D01*
G01*
X137870100Y-105457400D01*
G75*
G02*
X138120100Y-105207400I250000J0D01*
G01*
X139070100Y-105207400D01*
G75*
G02*
X139320100Y-105457400I0J-250000D01*
G01*
X139320100Y-106132400D01*
G75*
G02*
X139070100Y-106382400I-250000J0D01*
G01*
G37*
%TD.AperFunction*%
%TO.P,C489,1*%
%TO.N,Net-(C33-Pad1)*%
%TA.AperFunction,SMDPad,CuDef*%
G36*
G01*
X139070100Y-108457400D02*
X138120100Y-108457400D01*
G75*
G02*
X137870100Y-108207400I0J250000D01*
G01*
X137870100Y-107532400D01*
G75*
G02*
X138120100Y-107282400I250000J0D01*
G01*
X139070100Y-107282400D01*
G75*
G02*
X139320100Y-107532400I0J-250000D01*
G01*
X139320100Y-108207400D01*
G75*
G02*
X139070100Y-108457400I-250000J0D01*
G01*
G37*
%TD.AperFunction*%
%TD*%
%TO.P,C488,2*%
%TO.N,Net-(C487-Pad2)*%
%TA.AperFunction,SMDPad,CuDef*%
G36*
G01*
X135870100Y-104767400D02*
X135870100Y-103817400D01*
G75*
G02*
X136120100Y-103567400I250000J0D01*
G01*
X136795100Y-103567400D01*
G75*
G02*
X137045100Y-103817400I0J-250000D01*
G01*
X137045100Y-104767400D01*
G75*
G02*
X136795100Y-105017400I-250000J0D01*
G01*
X136120100Y-105017400D01*
G75*
G02*
X135870100Y-104767400I0J250000D01*
G01*
G37*
%TD.AperFunction*%
%TO.P,C488,1*%
%TO.N,GND8*%
%TA.AperFunction,SMDPad,CuDef*%
G36*
G01*
X133795100Y-104767400D02*
X133795100Y-103817400D01*
G75*
G02*
X134045100Y-103567400I250000J0D01*
G01*
X134720100Y-103567400D01*
G75*
G02*
X134970100Y-103817400I0J-250000D01*
G01*
X134970100Y-104767400D01*
G75*
G02*
X134720100Y-105017400I-250000J0D01*
G01*
X134045100Y-105017400D01*
G75*
G02*
X133795100Y-104767400I0J250000D01*
G01*
G37*
%TD.AperFunction*%
%TD*%
%TO.P,C487,2*%
%TO.N,Net-(C487-Pad2)*%
%TA.AperFunction,SMDPad,CuDef*%
G36*
G01*
X134970100Y-96197400D02*
X134970100Y-97147400D01*
G75*
G02*
X134720100Y-97397400I-250000J0D01*
G01*
X134045100Y-97397400D01*
G75*
G02*
X133795100Y-97147400I0J250000D01*
G01*
X133795100Y-96197400D01*
G75*
G02*
X134045100Y-95947400I250000J0D01*
G01*
X134720100Y-95947400D01*
G75*
G02*
X134970100Y-96197400I0J-250000D01*
G01*
G37*
%TD.AperFunction*%
%TO.P,C487,1*%
%TO.N,Net-(C487-Pad1)*%
%TA.AperFunction,SMDPad,CuDef*%
G36*
G01*
X137045100Y-96197400D02*
X137045100Y-97147400D01*
G75*
G02*
X136795100Y-97397400I-250000J0D01*
G01*
X136120100Y-97397400D01*
G75*
G02*
X135870100Y-97147400I0J250000D01*
G01*
X135870100Y-96197400D01*
G75*
G02*
X136120100Y-95947400I250000J0D01*
G01*
X136795100Y-95947400D01*
G75*
G02*
X137045100Y-96197400I0J-250000D01*
G01*
G37*
%TD.AperFunction*%
%TD*%
%TO.P,C37,2*%
%TO.N,Net-(C36-Pad1)*%
%TA.AperFunction,SMDPad,CuDef*%
G36*
G01*
X134970100Y-119057400D02*
X134970100Y-120007400D01*
G75*
G02*
X134720100Y-120257400I-250000J0D01*
G01*
X134045100Y-120257400D01*
G75*
G02*
X133795100Y-120007400I0J250000D01*
G01*
X133795100Y-119057400D01*
G75*
G02*
X134045100Y-118807400I250000J0D01*
G01*
X134720100Y-118807400D01*
G75*
G02*
X134970100Y-119057400I0J-250000D01*
G01*
G37*
%TD.AperFunction*%
%TO.P,C37,1*%
%TO.N,Net-(AE2-Pad1)*%
%TA.AperFunction,SMDPad,CuDef*%
G36*
G01*
X137045100Y-119057400D02*
X137045100Y-120007400D01*
G75*
G02*
X136795100Y-120257400I-250000J0D01*
G01*
X136120100Y-120257400D01*
G75*
G02*
X135870100Y-120007400I0J250000D01*
G01*
X135870100Y-119057400D01*
G75*
G02*
X136120100Y-118807400I250000J0D01*
G01*
X136795100Y-118807400D01*
G75*
G02*
X137045100Y-119057400I0J-250000D01*
G01*
G37*
%TD.AperFunction*%
%TD*%
%TO.P,C33,2*%
%TO.N,GND8*%
%TA.AperFunction,SMDPad,CuDef*%
G36*
G01*
X134970100Y-111437400D02*
X134970100Y-112387400D01*
G75*
G02*
X134720100Y-112637400I-250000J0D01*
G01*
X134045100Y-112637400D01*
G75*
G02*
X133795100Y-112387400I0J250000D01*
G01*
X133795100Y-111437400D01*
G75*
G02*
X134045100Y-111187400I250000J0D01*
G01*
X134720100Y-111187400D01*
G75*
G02*
X134970100Y-111437400I0J-250000D01*
G01*
G37*
%TD.AperFunction*%
%TO.P,C33,1*%
%TO.N,Net-(C33-Pad1)*%
%TA.AperFunction,SMDPad,CuDef*%
G36*
G01*
X137045100Y-111437400D02*
X137045100Y-112387400D01*
G75*
G02*
X136795100Y-112637400I-250000J0D01*
G01*
X136120100Y-112637400D01*
G75*
G02*
X135870100Y-112387400I0J250000D01*
G01*
X135870100Y-111437400D01*
G75*
G02*
X136120100Y-111187400I250000J0D01*
G01*
X136795100Y-111187400D01*
G75*
G02*
X137045100Y-111437400I0J-250000D01*
G01*
G37*
%TD.AperFunction*%
%TD*%
%TO.P,C21,2*%
%TO.N,GND8*%
%TA.AperFunction,SMDPad,CuDef*%
G36*
G01*
X123540100Y-88577400D02*
X123540100Y-89527400D01*
G75*
G02*
X123290100Y-89777400I-250000J0D01*
G01*
X122615100Y-89777400D01*
G75*
G02*
X122365100Y-89527400I0J250000D01*
G01*
X122365100Y-88577400D01*
G75*
G02*
X122615100Y-88327400I250000J0D01*
G01*
X123290100Y-88327400D01*
G75*
G02*
X123540100Y-88577400I0J-250000D01*
G01*
G37*
%TD.AperFunction*%
%TO.P,C21,1*%
%TO.N,2.4P*%
%TA.AperFunction,SMDPad,CuDef*%
G36*
G01*
X125615100Y-88577400D02*
X125615100Y-89527400D01*
G75*
G02*
X125365100Y-89777400I-250000J0D01*
G01*
X124690100Y-89777400D01*
G75*
G02*
X124440100Y-89527400I0J250000D01*
G01*
X124440100Y-88577400D01*
G75*
G02*
X124690100Y-88327400I250000J0D01*
G01*
X125365100Y-88327400D01*
G75*
G02*
X125615100Y-88577400I0J-250000D01*
G01*
G37*
%TD.AperFunction*%
%TD*%
%TO.P,C14,2*%
%TO.N,GND8*%
%TA.AperFunction,SMDPad,CuDef*%
G36*
G01*
X123772600Y-101277400D02*
X123772600Y-102227400D01*
G75*
G02*
X123522600Y-102477400I-250000J0D01*
G01*
X122847600Y-102477400D01*
G75*
G02*
X122597600Y-102227400I0J250000D01*
G01*
X122597600Y-101277400D01*
G75*
G02*
X122847600Y-101027400I250000J0D01*
G01*
X123522600Y-101027400D01*
G75*
G02*
X123772600Y-101277400I0J-250000D01*
G01*
G37*
%TD.AperFunction*%
%TO.P,C14,1*%
%TO.N,Net-(C14-Pad1)*%
%TA.AperFunction,SMDPad,CuDef*%
G36*
G01*
X125847600Y-101277400D02*
X125847600Y-102227400D01*
G75*
G02*
X125597600Y-102477400I-250000J0D01*
G01*
X124922600Y-102477400D01*
G75*
G02*
X124672600Y-102227400I0J250000D01*
G01*
X124672600Y-101277400D01*
G75*
G02*
X124922600Y-101027400I250000J0D01*
G01*
X125597600Y-101027400D01*
G75*
G02*
X125847600Y-101277400I0J-250000D01*
G01*
G37*
%TD.AperFunction*%
%TD*%
%TO.P,C13,2*%
%TO.N,GND8*%
%TA.AperFunction,SMDPad,CuDef*%
G36*
G01*
X128620100Y-98737400D02*
X128620100Y-99687400D01*
G75*
G02*
X128370100Y-99937400I-250000J0D01*
G01*
X127695100Y-99937400D01*
G75*
G02*
X127445100Y-99687400I0J250000D01*
G01*
X127445100Y-98737400D01*
G75*
G02*
X127695100Y-98487400I250000J0D01*
G01*
X128370100Y-98487400D01*
G75*
G02*
X128620100Y-98737400I0J-250000D01*
G01*
G37*
%TD.AperFunction*%
%TO.P,C13,1*%
%TO.N,Net-(C13-Pad1)*%
%TA.AperFunction,SMDPad,CuDef*%
G36*
G01*
X130695100Y-98737400D02*
X130695100Y-99687400D01*
G75*
G02*
X130445100Y-99937400I-250000J0D01*
G01*
X129770100Y-99937400D01*
G75*
G02*
X129520100Y-99687400I0J250000D01*
G01*
X129520100Y-98737400D01*
G75*
G02*
X129770100Y-98487400I250000J0D01*
G01*
X130445100Y-98487400D01*
G75*
G02*
X130695100Y-98737400I0J-250000D01*
G01*
G37*
%TD.AperFunction*%
%TD*%
%TO.P,C12,2*%
%TO.N,2.4N*%
%TA.AperFunction,SMDPad,CuDef*%
G36*
G01*
X129520100Y-94607400D02*
X129520100Y-93657400D01*
G75*
G02*
X129770100Y-93407400I250000J0D01*
G01*
X130445100Y-93407400D01*
G75*
G02*
X130695100Y-93657400I0J-250000D01*
G01*
X130695100Y-94607400D01*
G75*
G02*
X130445100Y-94857400I-250000J0D01*
G01*
X129770100Y-94857400D01*
G75*
G02*
X129520100Y-94607400I0J250000D01*
G01*
G37*
%TD.AperFunction*%
%TO.P,C12,1*%
%TO.N,Net-(C12-Pad1)*%
%TA.AperFunction,SMDPad,CuDef*%
G36*
G01*
X127445100Y-94607400D02*
X127445100Y-93657400D01*
G75*
G02*
X127695100Y-93407400I250000J0D01*
G01*
X128370100Y-93407400D01*
G75*
G02*
X128620100Y-93657400I0J-250000D01*
G01*
X128620100Y-94607400D01*
G75*
G02*
X128370100Y-94857400I-250000J0D01*
G01*
X127695100Y-94857400D01*
G75*
G02*
X127445100Y-94607400I0J250000D01*
G01*
G37*
%TD.AperFunction*%
%TD*%
D16*
%TO.P,P8,1*%
%TO.N,GND8*%
X164630100Y-62382400D03*
D17*
%TO.P,P8,2*%
X167170100Y-62382400D03*
%TO.P,P8,3*%
%TO.N,N/C*%
X164630100Y-64922400D03*
%TO.P,P8,4*%
X167170100Y-64922400D03*
%TO.P,P8,5*%
X164630100Y-67462400D03*
%TO.P,P8,6*%
X167170100Y-67462400D03*
%TO.P,P8,7*%
X164630100Y-70002400D03*
%TO.P,P8,8*%
X167170100Y-70002400D03*
%TO.P,P8,9*%
X164630100Y-72542400D03*
%TO.P,P8,10*%
X167170100Y-72542400D03*
%TO.P,P8,11*%
X164630100Y-75082400D03*
%TO.P,P8,12*%
X167170100Y-75082400D03*
%TO.P,P8,13*%
X164630100Y-77622400D03*
%TO.P,P8,14*%
X167170100Y-77622400D03*
%TO.P,P8,15*%
X164630100Y-80162400D03*
%TO.P,P8,16*%
X167170100Y-80162400D03*
%TO.P,P8,17*%
X164630100Y-82702400D03*
%TO.P,P8,18*%
X167170100Y-82702400D03*
%TO.P,P8,19*%
X164630100Y-85242400D03*
%TO.P,P8,20*%
X167170100Y-85242400D03*
%TO.P,P8,21*%
X164630100Y-87782400D03*
%TO.P,P8,22*%
X167170100Y-87782400D03*
%TO.P,P8,23*%
X164630100Y-90322400D03*
%TO.P,P8,24*%
X167170100Y-90322400D03*
%TO.P,P8,25*%
X164630100Y-92862400D03*
%TO.P,P8,26*%
X167170100Y-92862400D03*
%TO.P,P8,27*%
X164630100Y-95402400D03*
%TO.P,P8,28*%
X167170100Y-95402400D03*
%TO.P,P8,29*%
X164630100Y-97942400D03*
%TO.P,P8,30*%
X167170100Y-97942400D03*
%TO.P,P8,31*%
X164630100Y-100482400D03*
%TO.P,P8,32*%
X167170100Y-100482400D03*
%TO.P,P8,33*%
X164630100Y-103022400D03*
%TO.P,P8,34*%
X167170100Y-103022400D03*
%TO.P,P8,35*%
X164630100Y-105562400D03*
%TO.P,P8,36*%
X167170100Y-105562400D03*
%TO.P,P8,37*%
X164630100Y-108102400D03*
%TO.P,P8,38*%
X167170100Y-108102400D03*
%TO.P,P8,39*%
X164630100Y-110642400D03*
%TO.P,P8,40*%
X167170100Y-110642400D03*
%TO.P,P8,41*%
X164630100Y-113182400D03*
%TO.P,P8,42*%
X167170100Y-113182400D03*
%TO.P,P8,43*%
X164630100Y-115722400D03*
%TO.P,P8,44*%
X167170100Y-115722400D03*
%TO.P,P8,45*%
X164630100Y-118262400D03*
%TO.P,P8,46*%
X167170100Y-118262400D03*
%TD*%
D16*
%TO.P,P9,1*%
%TO.N,GND8*%
X116370100Y-62382400D03*
D17*
%TO.P,P9,2*%
X118910100Y-62382400D03*
%TO.P,P9,3*%
%TO.N,+3V3*%
X116370100Y-64922400D03*
%TO.P,P9,4*%
X118910100Y-64922400D03*
%TO.P,P9,5*%
%TO.N,+5V*%
X116370100Y-67462400D03*
%TO.P,P9,6*%
X118910100Y-67462400D03*
%TO.P,P9,7*%
%TO.N,SYS_5V*%
X116370100Y-70002400D03*
%TO.P,P9,8*%
X118910100Y-70002400D03*
%TO.P,P9,9*%
%TO.N,N/C*%
X116370100Y-72542400D03*
%TO.P,P9,10*%
X118910100Y-72542400D03*
%TO.P,P9,11*%
X116370100Y-75082400D03*
%TO.P,P9,12*%
X118910100Y-75082400D03*
%TO.P,P9,13*%
X116370100Y-77622400D03*
%TO.P,P9,14*%
X118910100Y-77622400D03*
%TO.P,P9,15*%
X116370100Y-80162400D03*
%TO.P,P9,16*%
X118910100Y-80162400D03*
%TO.P,P9,17*%
X116370100Y-82702400D03*
%TO.P,P9,18*%
X118910100Y-82702400D03*
%TO.P,P9,19*%
X116370100Y-85242400D03*
%TO.P,P9,20*%
X118910100Y-85242400D03*
%TO.P,P9,21*%
X116370100Y-87782400D03*
%TO.P,P9,22*%
X118910100Y-87782400D03*
%TO.P,P9,23*%
X116370100Y-90322400D03*
%TO.P,P9,24*%
X118910100Y-90322400D03*
%TO.P,P9,25*%
X116370100Y-92862400D03*
%TO.P,P9,26*%
X118910100Y-92862400D03*
%TO.P,P9,27*%
X116370100Y-95402400D03*
%TO.P,P9,28*%
X118910100Y-95402400D03*
%TO.P,P9,29*%
X116370100Y-97942400D03*
%TO.P,P9,30*%
X118910100Y-97942400D03*
%TO.P,P9,31*%
X116370100Y-100482400D03*
%TO.P,P9,32*%
X118910100Y-100482400D03*
%TO.P,P9,33*%
X116370100Y-103022400D03*
%TO.P,P9,34*%
X118910100Y-103022400D03*
%TO.P,P9,35*%
X116370100Y-105562400D03*
%TO.P,P9,36*%
X118910100Y-105562400D03*
%TO.P,P9,37*%
X116370100Y-108102400D03*
%TO.P,P9,38*%
X118910100Y-108102400D03*
%TO.P,P9,39*%
X116370100Y-110642400D03*
%TO.P,P9,40*%
X118910100Y-110642400D03*
%TO.P,P9,41*%
X116370100Y-113182400D03*
%TO.P,P9,42*%
X118910100Y-113182400D03*
%TO.P,P9,43*%
%TO.N,GND8*%
X116370100Y-115722400D03*
%TO.P,P9,44*%
X118910100Y-115722400D03*
%TO.P,P9,45*%
X116370100Y-118262400D03*
%TO.P,P9,46*%
X118910100Y-118262400D03*
%TD*%
D18*
%TO.N,RX_TX*%
X139230100Y-91592400D03*
D19*
X141998700Y-86995000D03*
X142000100Y-91362400D03*
D18*
%TO.N,Net-(C487-Pad1)*%
X137960100Y-95402400D03*
%TO.N,GND8*%
X121450100Y-86512400D03*
X132880100Y-102387400D03*
X145580100Y-96037400D03*
X150411300Y-117596800D03*
X150411300Y-113177200D03*
X150411300Y-105542200D03*
X128736000Y-113414900D03*
X122313700Y-115163600D03*
X133464300Y-113868200D03*
X137820400Y-114236500D03*
%TO.N,2.4N*%
X131610100Y-87782400D03*
%TO.N,Net-(AE5-Pad1)*%
X154266900Y-110286800D03*
X152742900Y-122656600D03*
%TO.N,Net-(C53-Pad2)*%
X150660100Y-95402400D03*
X146850100Y-96037400D03*
D19*
%TO.N,TX_20dB_P*%
X142582900Y-89001600D03*
X145961100Y-87604600D03*
D18*
%TO.N,RF1_SKY*%
X146951700Y-110540800D03*
X139636500Y-114173000D03*
%TO.N,RFC_SKY*%
X146824700Y-115138200D03*
X142887700Y-115646200D03*
%TO.N,Net-(C496-Pad1)*%
X147485100Y-99847400D03*
X150025100Y-99847400D03*
%TD*%
D20*
%TO.N,*%
X157039400Y-122855100D02*
X158305500Y-124121200D01*
X155642400Y-121458100D02*
X157039400Y-122855100D01*
X155642400Y-121031000D02*
X155642400Y-121458100D01*
%TO.N,Net-(AE1-Pad1)*%
X128159600Y-105638600D02*
X128159600Y-105846500D01*
X127272490Y-122628390D02*
X129298700Y-124654600D01*
X127272490Y-106525710D02*
X127272490Y-122628390D01*
X128159600Y-105638600D02*
X127272490Y-106525710D01*
%TO.N,Net-(AE2-Pad1)*%
X136457600Y-119532400D02*
X136920100Y-119994900D01*
X136457600Y-124371300D02*
X136563100Y-124476800D01*
X136457600Y-119532400D02*
X136457600Y-124371300D01*
%TO.N,RX_TX*%
X141770100Y-91592400D02*
X139230100Y-91592400D01*
X142000100Y-91362400D02*
X142000100Y-91362400D01*
X141969300Y-80014000D02*
X142000100Y-80044800D01*
X141969300Y-79916900D02*
X141969300Y-80014000D01*
X142000100Y-91362400D02*
X141770100Y-91592400D01*
X141998700Y-80213200D02*
X141998700Y-86995000D01*
X141969300Y-80183800D02*
X141998700Y-80213200D01*
X141969300Y-79916900D02*
X141969300Y-80183800D01*
%TO.N,Net-(C12-Pad1)*%
X130095100Y-92069900D02*
X128032600Y-94132400D01*
X130095100Y-91592400D02*
X130095100Y-92069900D01*
X128032600Y-96659900D02*
X128045100Y-96672400D01*
X128032600Y-94132400D02*
X128032600Y-96659900D01*
%TO.N,Net-(C13-Pad1)*%
X130095100Y-99199900D02*
X130107600Y-99212400D01*
X130095100Y-96672400D02*
X130095100Y-99199900D01*
X130107600Y-101739900D02*
X130095100Y-101752400D01*
X130107600Y-99212400D02*
X130107600Y-101739900D01*
%TO.N,Net-(C33-Pad1)*%
X134395100Y-109849900D02*
X136457600Y-111912400D01*
X134395100Y-108102400D02*
X134395100Y-109849900D01*
X136445100Y-111924900D02*
X136457600Y-111912400D01*
X136445100Y-115722400D02*
X136445100Y-111924900D01*
X138595100Y-109774900D02*
X136457600Y-111912400D01*
X138595100Y-107869900D02*
X138595100Y-109774900D01*
%TO.N,Net-(C487-Pad1)*%
X136690100Y-96439900D02*
X136457600Y-96672400D01*
X136690100Y-93887400D02*
X136690100Y-96439900D01*
X136457600Y-100469900D02*
X136445100Y-100482400D01*
X136457600Y-96672400D02*
X136457600Y-100469900D01*
X138595100Y-102632400D02*
X136445100Y-100482400D01*
X138595100Y-105794900D02*
X138595100Y-102632400D01*
X136457600Y-96672400D02*
X136457600Y-96672400D01*
X136690100Y-96672400D02*
X137960100Y-95402400D01*
X136457600Y-96672400D02*
X136690100Y-96672400D01*
%TO.N,Net-(C487-Pad2)*%
X132880100Y-95169900D02*
X134382600Y-96672400D01*
X132880100Y-93887400D02*
X132880100Y-95169900D01*
X134382600Y-100469900D02*
X134395100Y-100482400D01*
X134382600Y-96672400D02*
X134382600Y-100469900D01*
X134395100Y-102229900D02*
X136457600Y-104292400D01*
X134395100Y-100482400D02*
X134395100Y-102229900D01*
X136457600Y-108089900D02*
X136445100Y-108102400D01*
X136457600Y-104292400D02*
X136457600Y-108089900D01*
%TO.N,GND8*%
X134395100Y-111899900D02*
X134382600Y-111912400D01*
X122952600Y-94132400D02*
X122952600Y-89052400D01*
X128032600Y-99212400D02*
X122952600Y-94132400D01*
X128032600Y-99212400D02*
X122720100Y-99212400D01*
X122720100Y-101287400D02*
X123185100Y-101752400D01*
X122720100Y-99212400D02*
X122720100Y-101287400D01*
X128945110Y-102190600D02*
X128945110Y-100124910D01*
X128945110Y-100124910D02*
X128032600Y-99212400D01*
X131046910Y-104292400D02*
X128945110Y-102190600D01*
X134382600Y-104292400D02*
X131046910Y-104292400D01*
X132880100Y-105794900D02*
X134382600Y-104292400D01*
X132880100Y-111277400D02*
X132880100Y-105794900D01*
X133515100Y-111912400D02*
X132880100Y-111277400D01*
X134382600Y-111912400D02*
X133515100Y-111912400D01*
X132012600Y-113414900D02*
X133515100Y-111912400D01*
X131610100Y-113414900D02*
X132012600Y-113414900D01*
X122952600Y-89052400D02*
X122952600Y-88819900D01*
X122952600Y-89052400D02*
X122952600Y-88014900D01*
X122952600Y-88014900D02*
X121450100Y-86512400D01*
X134382600Y-103889900D02*
X132880100Y-102387400D01*
X134382600Y-104292400D02*
X134382600Y-103889900D01*
X148120100Y-97942400D02*
X145982600Y-97942400D01*
X147485100Y-91592400D02*
X148120100Y-92227400D01*
X148120100Y-92227400D02*
X148120100Y-97942400D01*
X145982600Y-91592400D02*
X147485100Y-91592400D01*
X148755100Y-98577400D02*
X148120100Y-97942400D01*
X148755100Y-104292400D02*
X148755100Y-98577400D01*
X147252600Y-104292400D02*
X148755100Y-104292400D01*
X145982600Y-105562400D02*
X147252600Y-104292400D01*
X150892600Y-98577400D02*
X151930100Y-97539900D01*
X148755100Y-98577400D02*
X150892600Y-98577400D01*
X145982600Y-97942400D02*
X145982600Y-96439900D01*
X145982600Y-96439900D02*
X145580100Y-96037400D01*
X145580100Y-96037400D02*
X145580100Y-96037400D01*
X151930100Y-97049500D02*
X155765500Y-93214100D01*
X151930100Y-97539900D02*
X151930100Y-97049500D01*
X159473900Y-93214100D02*
X159550100Y-93290300D01*
X155765500Y-93214100D02*
X159473900Y-93214100D01*
X153275000Y-113177200D02*
X155591600Y-115493800D01*
X152488900Y-113177200D02*
X153275000Y-113177200D01*
X155654900Y-115557100D02*
X155591600Y-115493800D01*
X155654900Y-118237000D02*
X155654900Y-115557100D01*
X152488900Y-113177200D02*
X150411300Y-113177200D01*
X150411300Y-113177200D02*
X150411300Y-113177200D01*
X149014300Y-104551600D02*
X148755100Y-104292400D01*
X150411300Y-104551600D02*
X149014300Y-104551600D01*
X150411300Y-113177200D02*
X150411300Y-113177200D01*
X150411300Y-105542200D02*
X150411300Y-104551600D01*
X131610100Y-113414900D02*
X128736000Y-113414900D01*
X128736000Y-113414900D02*
X128736000Y-113414900D01*
X119468900Y-115163600D02*
X118910100Y-115722400D01*
X122313700Y-115163600D02*
X119468900Y-115163600D01*
X140550900Y-116865400D02*
X140533010Y-116883290D01*
X134382600Y-111912400D02*
X134382600Y-112729100D01*
X134382600Y-112729100D02*
X133464300Y-113647400D01*
X133464300Y-113647400D02*
X133464300Y-113868200D01*
X133464300Y-113868200D02*
X133464300Y-113868200D01*
X137820400Y-114236500D02*
X137820400Y-116039900D01*
X137820400Y-116039900D02*
X138645900Y-116865400D01*
X138645900Y-116865400D02*
X139679790Y-116865400D01*
X163563300Y-62382400D02*
X164630100Y-62382400D01*
X162090100Y-63855600D02*
X163563300Y-62382400D01*
X162090100Y-92456000D02*
X162090100Y-63855600D01*
X161255800Y-93290300D02*
X162090100Y-92456000D01*
X159550100Y-93290300D02*
X161255800Y-93290300D01*
%TO.N,2.4N*%
X130095100Y-89052400D02*
X130340100Y-89052400D01*
X130340100Y-89052400D02*
X131610100Y-90322400D01*
X131610100Y-92629900D02*
X130107600Y-94132400D01*
X131610100Y-90322400D02*
X131610100Y-92629900D01*
X130340100Y-89052400D02*
X130340100Y-89052400D01*
X130340100Y-89052400D02*
X131610100Y-87782400D01*
X131610100Y-87782400D02*
X131610100Y-87782400D01*
X131610100Y-89052400D02*
X131610100Y-90322400D01*
X132880100Y-87782400D02*
X131610100Y-89052400D01*
X139230100Y-87782400D02*
X132880100Y-87782400D01*
X139230100Y-86875422D02*
X139230100Y-87782400D01*
X139469300Y-86636222D02*
X139230100Y-86875422D01*
X139469300Y-79916900D02*
X139469300Y-86636222D01*
%TO.N,2.4P*%
X128045100Y-89052400D02*
X128045100Y-91592400D01*
X128045100Y-89052400D02*
X125027600Y-89052400D01*
X129950100Y-87147400D02*
X128045100Y-89052400D01*
X137972600Y-87147400D02*
X129950100Y-87147400D01*
X138969300Y-86150700D02*
X137972600Y-87147400D01*
X138969300Y-79916900D02*
X138969300Y-86150700D01*
%TO.N,SUB1N*%
X136690100Y-91592400D02*
X136690100Y-91837400D01*
X138596510Y-90322400D02*
X136690100Y-90322400D01*
X140500100Y-88418810D02*
X138596510Y-90322400D01*
X140500100Y-86269200D02*
X140500100Y-88418810D01*
X136690100Y-90322400D02*
X136690100Y-91837400D01*
X140469300Y-86238400D02*
X140500100Y-86269200D01*
X140469300Y-79916900D02*
X140469300Y-86238400D01*
%TO.N,SUB1P*%
X132880100Y-90322400D02*
X132880100Y-91837400D01*
X134150100Y-89052400D02*
X132880100Y-90322400D01*
X139230100Y-89052400D02*
X134150100Y-89052400D01*
X140000100Y-80241400D02*
X140000100Y-88282400D01*
X139969300Y-80210600D02*
X140000100Y-80241400D01*
X140000100Y-88282400D02*
X139230100Y-89052400D01*
X139969300Y-79916900D02*
X139969300Y-80210600D01*
%TO.N,Net-(AE3-Pad1)*%
X145982600Y-112547400D02*
X145800100Y-112547400D01*
X145982600Y-122042300D02*
X143776700Y-124248200D01*
X145982600Y-112547400D02*
X145982600Y-122042300D01*
%TO.N,Net-(AE5-Pad1)*%
X155667800Y-107569000D02*
X154495500Y-107569000D01*
X154495500Y-107569000D02*
X154266900Y-107797600D01*
X154266900Y-107797600D02*
X154266900Y-110286800D01*
X154266900Y-110286800D02*
X154266900Y-110286800D01*
X152531100Y-122656600D02*
X150990300Y-124197400D01*
X152742900Y-122656600D02*
X152531100Y-122656600D01*
%TO.N,Net-(C14-Pad1)*%
X125260100Y-101752400D02*
X128045100Y-101752400D01*
X128495100Y-103899100D02*
X130234600Y-105638600D01*
X128495100Y-102041000D02*
X128495100Y-103899100D01*
X128206500Y-101752400D02*
X128495100Y-102041000D01*
X128045100Y-101752400D02*
X128206500Y-101752400D01*
X130234600Y-109296200D02*
X130260000Y-109321600D01*
X130234600Y-105638600D02*
X130234600Y-109296200D01*
%TO.N,RF2_SKY*%
X135420100Y-118944210D02*
X136724210Y-117640100D01*
X135420100Y-120421400D02*
X135420100Y-118944210D01*
X134886700Y-120954800D02*
X135420100Y-120421400D01*
X130238500Y-120954800D02*
X134886700Y-120954800D01*
X130238500Y-119104500D02*
X130238500Y-120954800D01*
X136724210Y-117640100D02*
X140127499Y-117640100D01*
X131584700Y-117758300D02*
X130238500Y-119104500D01*
%TO.N,Net-(C36-Pad1)*%
X134382600Y-115709900D02*
X134395100Y-115722400D01*
X134162600Y-115489900D02*
X134395100Y-115722400D01*
X131610100Y-115489900D02*
X134162600Y-115489900D01*
X134395100Y-119519900D02*
X134382600Y-119532400D01*
X134395100Y-115722400D02*
X134395100Y-119519900D01*
X134081700Y-119833300D02*
X134382600Y-119532400D01*
X131584700Y-119833300D02*
X134081700Y-119833300D01*
%TO.N,Net-(C51-Pad1)*%
X154174700Y-88849200D02*
X158314900Y-84709000D01*
X153945700Y-88849200D02*
X154174700Y-88849200D01*
X153945700Y-84744200D02*
X153980900Y-84709000D01*
X153945700Y-88849200D02*
X153945700Y-84744200D01*
X153945700Y-89319300D02*
X155765500Y-91139100D01*
X153945700Y-88849200D02*
X153945700Y-89319300D01*
X159473900Y-91139100D02*
X159550100Y-91215300D01*
X155765500Y-91139100D02*
X159473900Y-91139100D01*
%TO.N,Net-(C53-Pad2)*%
X143907600Y-96194900D02*
X145970100Y-94132400D01*
X143907600Y-97942400D02*
X143907600Y-96194900D01*
X143907600Y-100469900D02*
X143920100Y-100482400D01*
X143907600Y-97942400D02*
X143907600Y-100469900D01*
X145970100Y-94132400D02*
X145970100Y-95157400D01*
X145970100Y-95157400D02*
X146850100Y-96037400D01*
X146850100Y-96037400D02*
X146850100Y-96037400D01*
X150660100Y-94534900D02*
X151930100Y-93264900D01*
X150660100Y-95402400D02*
X150660100Y-94534900D01*
%TO.N,TX_20dB_P*%
X151692500Y-89052400D02*
X151895700Y-88849200D01*
X145970100Y-89052400D02*
X151692500Y-89052400D01*
X151930100Y-88883600D02*
X151895700Y-88849200D01*
X151930100Y-91189900D02*
X151930100Y-88883600D01*
X140957300Y-87833200D02*
X140957300Y-89001600D01*
X140969300Y-87821200D02*
X140957300Y-87833200D01*
X140969300Y-79916900D02*
X140969300Y-87821200D01*
X140957300Y-89001600D02*
X142582900Y-89001600D01*
X142582900Y-89001600D02*
X142582900Y-89001600D01*
X145961100Y-89043400D02*
X145970100Y-89052400D01*
X145961100Y-87604600D02*
X145961100Y-89043400D01*
%TO.N,RF1_SKY*%
X145982600Y-108737400D02*
X145982600Y-109571700D01*
X145982600Y-109571700D02*
X146951700Y-110540800D01*
X146951700Y-110540800D02*
X146951700Y-110540800D01*
X139636500Y-115599701D02*
X140127499Y-116090700D01*
X139636500Y-114173000D02*
X139636500Y-115599701D01*
%TO.N,Net-(C497-Pad1)*%
X143920100Y-105549900D02*
X143907600Y-105562400D01*
X143920100Y-103022400D02*
X143920100Y-105549900D01*
X143907600Y-105562400D02*
X143907600Y-108737400D01*
X143907600Y-108737400D02*
X143907600Y-112547400D01*
%TO.N,RX_20dB_N*%
X143920100Y-91579900D02*
X143907600Y-91592400D01*
X143920100Y-89052400D02*
X143920100Y-91579900D01*
X143907600Y-94119900D02*
X143920100Y-94132400D01*
X143907600Y-91592400D02*
X143907600Y-94119900D01*
X143869300Y-89001600D02*
X143920100Y-89052400D01*
X142929500Y-88061800D02*
X143920100Y-89052400D01*
X141516100Y-88061800D02*
X142929500Y-88061800D01*
X141516100Y-86442800D02*
X141516100Y-88061800D01*
X141500100Y-86426800D02*
X141516100Y-86442800D01*
X141469300Y-79955200D02*
X141500100Y-79986000D01*
X141500100Y-79986000D02*
X141500100Y-86426800D01*
X141469300Y-79916900D02*
X141469300Y-79955200D01*
%TO.N,Net-(C482-Pad2)*%
X155591600Y-113093700D02*
X155604100Y-113106200D01*
X155591600Y-110210600D02*
X155591600Y-113093700D01*
%TO.N,RFC_SKY*%
X157666600Y-107645200D02*
X157742800Y-107569000D01*
X157666600Y-110210600D02*
X157666600Y-107645200D01*
X152488900Y-112527200D02*
X149440001Y-112527200D01*
X153530300Y-111485800D02*
X152488900Y-112527200D01*
X158407100Y-105841800D02*
X154546300Y-105841800D01*
X159296100Y-106730800D02*
X158407100Y-105841800D01*
X154546300Y-105841800D02*
X153530300Y-106857800D01*
X159296100Y-109042200D02*
X159296100Y-106730800D01*
X158127700Y-110210600D02*
X159296100Y-109042200D01*
X153530300Y-106857800D02*
X153530300Y-111485800D01*
X157666600Y-110210600D02*
X158127700Y-110210600D01*
X149440001Y-112527200D02*
X149435700Y-112527200D01*
X149435700Y-112527200D02*
X146824700Y-115138200D01*
X146824700Y-115138200D02*
X146824700Y-115138200D01*
X142443200Y-116090700D02*
X141380701Y-116090700D01*
X142887700Y-115646200D02*
X142443200Y-116090700D01*
%TO.N,Net-(C496-Pad1)*%
X145970100Y-103022400D02*
X145970100Y-100482400D01*
X145970100Y-100482400D02*
X146850100Y-100482400D01*
X146850100Y-100482400D02*
X147485100Y-99847400D01*
X147485100Y-99847400D02*
X147485100Y-99847400D01*
X151697600Y-99847400D02*
X151930100Y-99614900D01*
X150025100Y-99847400D02*
X151697600Y-99847400D01*
%TO.N,Net-(Z60-Pad2)*%
X157654100Y-115481300D02*
X157666600Y-115493800D01*
X157654100Y-113106200D02*
X157654100Y-115481300D01*
X157666600Y-118198700D02*
X157704900Y-118237000D01*
X157666600Y-115493800D02*
X157666600Y-118198700D01*
X157704900Y-121018500D02*
X157717400Y-121031000D01*
X157704900Y-118237000D02*
X157704900Y-121018500D01*
%TD*%
M02*
